<?xml version="1.0" encoding="utf-8"?>
<!-- Generator: Adobe Illustrator 24.0.0, SVG Export Plug-In . SVG Version: 6.00 Build 0)  -->
<svg version="1.1" id="Layer_1" xmlns="http://www.w3.org/2000/svg" xmlns:xlink="http://www.w3.org/1999/xlink" x="0px" y="0px"
	 viewBox="0 0 283 145.3" style="enable-background:new 0 0 283 145.3;" xml:space="preserve">
<style type="text/css">
	.st0{fill:#020202;}
</style>
<path d="M56.6,141.9c-2.2,0-4.3-0.3-6.2-0.8c-1.9-0.5-3.7-1.4-5.1-2.6c-1.4-1.2-2.6-2.7-3.4-4.6c-0.8-1.8-1.3-4-1.3-6.4
	c0-2.4,0.4-4.6,1.3-6.4c0.8-1.8,2-3.4,3.4-4.6c1.4-1.2,3.2-2.1,5.1-2.7c1.9-0.6,4-0.9,6.2-0.9c2.2,0,4.3,0.3,6.2,0.9
	c1.9,0.6,3.6,1.5,5.1,2.7c1.4,1.2,2.6,2.7,3.4,4.6c0.8,1.8,1.3,4,1.3,6.4c0,2.4-0.4,4.6-1.3,6.4c-0.8,1.8-2,3.4-3.4,4.6
	c-1.4,1.2-3.2,2.1-5.1,2.6C60.9,141.6,58.8,141.9,56.6,141.9 M56.6,118.3c-1.2,0-2.4,0.2-3.5,0.6c-1.1,0.4-2.2,1-3.1,1.8
	c-0.9,0.8-1.6,1.7-2.2,2.9c-0.5,1.1-0.8,2.4-0.8,3.9c0,1.4,0.3,2.7,0.8,3.9c0.5,1.1,1.3,2.1,2.2,2.9c0.9,0.8,1.9,1.4,3.1,1.8
	c1.1,0.4,2.3,0.6,3.5,0.6c1.2,0,2.4-0.2,3.5-0.6c1.1-0.4,2.2-1,3.1-1.8c0.9-0.8,1.6-1.7,2.2-2.9c0.5-1.1,0.8-2.4,0.8-3.9
	c0-1.4-0.3-2.7-0.8-3.9c-0.5-1.1-1.3-2.1-2.2-2.9c-0.9-0.8-1.9-1.4-3.1-1.8C59,118.5,57.8,118.3,56.6,118.3"/>
<path d="M118.5,141.9c-2.2,0-4.3-0.3-6.2-0.8c-1.9-0.5-3.7-1.4-5.1-2.6c-1.4-1.2-2.6-2.8-3.4-4.6c-0.8-1.8-1.3-4-1.3-6.4
	c0-2.4,0.4-4.6,1.3-6.4c0.8-1.8,2-3.4,3.4-4.6c1.4-1.2,3.2-2.1,5.1-2.7c1.9-0.6,4-0.9,6.2-0.9c2.2,0,4.3,0.3,6.2,0.9
	c1.9,0.6,3.6,1.5,5.1,2.7c1.4,1.2,2.6,2.7,3.4,4.6c0.8,1.8,1.3,4,1.3,6.4c0,2.4-0.4,4.6-1.3,6.4c-0.8,1.8-2,3.4-3.4,4.6
	c-1.4,1.2-3.2,2.1-5.1,2.6C122.8,141.6,120.7,141.9,118.5,141.9 M118.5,118.3c-1.2,0-2.4,0.2-3.5,0.6c-1.1,0.4-2.2,1-3.1,1.8
	c-0.9,0.8-1.6,1.7-2.2,2.9c-0.5,1.1-0.8,2.4-0.8,3.9c0,1.4,0.3,2.7,0.8,3.9c0.5,1.1,1.3,2.1,2.2,2.9c0.9,0.8,1.9,1.4,3.1,1.8
	c1.1,0.4,2.3,0.6,3.5,0.6c1.2,0,2.4-0.2,3.5-0.6c1.1-0.4,2.2-1,3.1-1.8c0.9-0.8,1.6-1.7,2.2-2.9c0.5-1.1,0.8-2.4,0.8-3.9
	c0-1.4-0.3-2.7-0.8-3.9c-0.5-1.1-1.3-2.1-2.2-2.9c-0.9-0.8-1.9-1.4-3.1-1.8C120.9,118.5,119.7,118.3,118.5,118.3"/>
<polyline class="st0" points="29.7,145.1 6.9,118.7 6.9,145.1 0,145.1 0,108 7.2,108 29.2,133.4 29.2,108 36.1,108 36.1,145.1 
	29.7,145.1 "/>
<polyline points="90.6,141.7 84.5,141.7 72.1,113.2 79,113.2 87.5,133 96,113.2 102.9,113.2 90.6,141.7 "/>
<polyline points="211.8,141.7 211.8,118.6 201.8,118.6 201.8,113.2 228.2,113.2 228.2,118.6 218.2,118.6 218.2,141.7 211.8,141.7 
	"/>
<rect x="232.9" y="113.2" width="6.5" height="28.5"/>
<path d="M198.5,141.7l-3-6.9h-12.5l-3,6.9h-6.4l12.6-28.5h6l12.6,28.5H198.5 M193.3,129.3l-3.9-9.2l-3.9,9.2H193.3z"/>
<g>
	<defs>
		<rect id="SVGID_1_" width="283" height="145.3"/>
	</defs>
	<clipPath id="SVGID_2_">
		<use xlink:href="#SVGID_1_"  style="overflow:visible;"/>
	</clipPath>
</g>
<polyline points="163.9,113.2 154.6,130.1 145.3,113.2 139,113.2 139,141.7 144.7,141.7 144.7,124 154.6,141.8 164.5,124 
	164.5,141.7 170.2,141.7 170.2,113.2 163.9,113.2 "/>
<path d="M179.3,10.4c-2.5-3.9-7.6-6.7-15.6-8.4c-6.1-1.3-13.8-2-22.2-2c-8.4,0-16.1,0.7-22.2,2c-7.9,1.7-13,4.5-15.6,8.4
	c-4.2,6.4-3.2,15.8-2.1,26.7c0.2,2,0.4,4.1,0.6,6.1c0.3,4,1.1,11.9,2.6,19.6c2.1,11.1,4.4,15,6,17c6.6,8.3,25.2,9,30.7,9
	c5.5,0,24.1-0.6,30.7-9c1.6-2,3.9-5.9,6-17c1.5-7.6,2.3-15.5,2.6-19.6c0.2-2,0.4-4.1,0.6-6.1C182.5,26.3,183.5,16.9,179.3,10.4
	 M178.3,36.9c-0.2,2-0.4,4.1-0.6,6.1c-0.3,4-1.1,11.7-2.6,19.3c-2,10.5-4,13.9-5.4,15.7c-5.9,7.5-24.6,7.8-28.3,7.8
	c-3.7,0-22.4-0.4-28.3-7.8c-1.4-1.7-3.4-5.2-5.4-15.7c-1.4-7.5-2.2-15.3-2.6-19.3c-0.2-2-0.4-4.1-0.6-6.1c-1.1-10.3-2-19.2,1.6-24.8
	c2.1-3.2,6.5-5.5,13.7-7.1c5.9-1.3,13.4-2,21.6-2c8.2,0,15.7,0.7,21.6,2c7.1,1.5,11.6,3.9,13.7,7.1
	C180.3,17.6,179.4,26.5,178.3,36.9 M141.5,7.4c15.9,0,28.7,2.6,31.6,7c3.4,5.2,1.3,16.8,0.3,28.1c-1,11.4-3.4,27.9-7,32.6
	c-3.2,4.1-14.7,6.2-24.9,6.2c-10.2,0-21.7-2.1-24.9-6.2c-3.7-4.7-6.1-21.2-7-32.6c-1-11.4-3-22.9,0.3-28.1
	C112.7,10.1,125.6,7.4,141.5,7.4 M118.1,23.2c-0.4,0.2-0.6,1-0.6,1l-0.5,2c0,0-0.2,0.5,0.1,1.1c0.3,0.6,2.3,1,2.3,1s3.5,0.5,4.9,2.3
	c1.4,1.7,0.8,4.1,0.8,4.1l-3.8,18.7c0,0-0.4,1.8-1.3,2.7c-0.9,0.8-2.5,0.9-2.5,0.9s-0.9,0-1.5,0.3c-0.5,0.2-0.7,1-0.7,1l-0.3,1.2
	c0,0-0.1,0.5,0.2,1c0.3,0.5,1.1,0.6,1.1,0.6l19.3,0.1c0,0,0.6,0,0.9-0.3c0.3-0.3,0.4-1,0.4-1l0.3-1.8c0,0,0.1-0.5-0.1-0.9
	c-0.3-0.4-0.6-0.4-1.5-0.6c-0.9-0.2-1.4-0.5-2.3-1.2c-1.1-0.9-0.7-2.6-0.7-2.6l1.7-9.4c0,0,0.2-0.7,0.7-0.7c0.7,0,0.9,0.6,0.9,0.6
	l9.2,16.5c0,0,0.3,0.6,0.8,0.9c0.5,0.4,1.6,0.4,1.6,0.4l15.6-0.1c0,0,0.8,0,1.2-0.3c0.5-0.4,0.6-1.1,0.6-1.1l0.3-1.4
	c0,0,0.2-0.6-0.1-1.3c-0.3-0.7-1.7-0.9-3.2-1.3c-1.1-0.4-2.6-1.1-3.1-1.9c-0.3-0.5,0-1.6,0-1.6l5.2-21.4c0,0,0.2-0.9,1.1-1.8
	c0.8-0.8,3-1.3,3-1.3s0.6-0.1,0.9-0.4c0.2-0.2,0.3-0.7,0.3-0.7l0.6-2.3c0,0,0.2-0.6-0.2-1c-0.3-0.4-1.1-0.4-1.1-0.4h-17.8
	c0,0-0.6,0-1.1,0.4c-0.5,0.4-0.6,0.9-0.6,0.9l-0.4,1.9c0,0-0.1,0.5,0,0.9c0.2,0.5,0.7,0.5,0.7,0.5l0.7,0.1c0,0,1.4,0.3,2.1,1
	c0.7,0.7,0.4,2.6,0.4,2.6l-2.6,12.4l-9.4-18c0,0-0.3-0.8-1.3-1.9c-1-1-2.6-0.9-2.6-0.9h-17.6C119.2,23,118.5,23,118.1,23.2"/>
<path d="M265.2,145.3c-2.7,0-5.4-0.4-7.9-1.1c-2.5-0.7-4.8-1.9-6.7-3.5c-1.9-1.6-3.5-3.5-4.6-5.9c-1.1-2.3-1.7-5.1-1.7-8.2
	c0-3.1,0.6-5.8,1.7-8.2c1.1-2.4,2.7-4.4,4.6-5.9c1.9-1.6,4.2-2.8,6.7-3.6c2.5-0.8,5.2-1.2,7.9-1.2c5.6,0,10.7,1.9,14.1,3.3
	c0.4,0.2,2.6,1.2,2.6,1.2l-3.5,5.9l-0.5-0.3c-3.5-2.1-7.4-3.4-11-3.8c-0.6-0.1-1.2-0.1-1.7-0.1l-0.3,0l-0.2,0
	c-1.7,0-3.3,0.3-4.8,0.8c-1.7,0.6-3.2,1.4-4.4,2.5c-1.2,1.1-2.2,2.4-3,4c-0.7,1.6-1.1,3.4-1.1,5.4c0,2,0.4,3.8,1.1,5.4
	c0.7,1.6,1.7,2.9,3,4c1.2,1.1,2.7,1.9,4.4,2.5c1.7,0.6,3.5,0.8,5.3,0.8c5.9,0,10.9-2.7,14.1-5l0.5-0.4l3.1,5.4l-0.5,0.3
	c-3.9,2.5-9.9,5.6-16.1,5.9C266,145.3,265.6,145.3,265.2,145.3"/>
</svg>
