<?xml version="1.0" encoding="UTF-8"?>
<svg width="640px" height="134px" viewBox="0 0 640 134" version="1.1" xmlns="http://www.w3.org/2000/svg" xmlns:xlink="http://www.w3.org/1999/xlink">
    <!-- Generator: Sketch 52.4 (67378) - http://www.bohemiancoding.com/sketch -->
    <title>Playtech Black</title>
    <desc>Created with Sketch.</desc>
    <g id="Playtech-Black" stroke="none" stroke-width="1" fill="none" fill-rule="evenodd">
        <g id="PlaytechSourceOfSuccess_logo" fill="#000000" fill-rule="nonzero">
            <path d="M536.495696,75.1897049 L553.385335,16.87 C553.530555,16.3355277 553.634039,15.7905502 553.694852,15.24 C553.775951,14.7374345 553.816021,14.2290853 553.814665,13.72 C553.947025,12.5260238 553.501785,11.3405784 552.616537,10.53 C551.827769,10.01 549.56131,9.72 545.867083,9.72 L540.175975,9.72 L541.054602,5.78 C545.370409,5.61927271 549.668604,5.14132065 553.914509,4.35 C557.741635,3.61395478 561.5018,2.56374457 565.156942,1.21 L569.669891,1.21 L552.386895,60.74 C559.859795,53.2949132 568.039032,46.5966159 576.808736,40.74 C584.207176,36.03 590.117941,33.64 594.521061,33.64 C596.847426,33.64 598.514821,34.17 599.653042,35.22 C600.866118,36.5898253 601.471529,38.3944581 601.330421,40.22 C601.305287,41.0623488 601.194893,41.8999706 601.000936,42.72 C600.801248,43.72 600.531669,44.86 600.212168,46.07 L587.591888,86.62 C587.349859,87.4756488 587.153224,88.3435298 587.002808,89.22 C586.832011,90.1267187 586.745111,91.0472876 586.743214,91.97 C586.769817,92.5136422 587.02793,93.0197522 587.452106,93.36 C587.911388,93.76 588.450546,94.47 589.059594,94.47 C590.287676,94.47 592.054914,93.17 594.181591,91.58 C596.698376,89.6486898 599.001278,87.4528204 601.050858,85.03 L603.626833,87.13 C600.003251,91.6116515 595.783911,95.5751455 591.086427,98.91 C587.039418,101.63 583.321893,102.993333 579.933853,103 C578.059185,103.101088 576.206283,102.557756 574.682059,101.46 C573.39911,100.442331 572.685265,98.8671835 572.765055,97.23 C572.767415,96.5386031 572.834268,95.8489392 572.964743,95.17 C573.134393,94.3637327 573.364691,93.5714727 573.653666,92.8 L586.633385,50.86 C586.873011,49.94 587.022777,49.24 587.112637,48.76 C587.177643,48.3296985 587.211014,47.8951969 587.21248,47.46 C587.265111,46.5285674 586.898822,45.6224188 586.214041,44.99 C585.432978,44.4075585 584.469816,44.123833 583.498284,44.19 C581.65117,44.19 578.935413,45.28 575.351014,47.5 C570.943308,50.3235468 566.766661,53.4935296 562.86053,56.98 C559.453667,59.7566335 556.323867,62.8578335 553.515133,66.24 C551.636811,68.6420968 550.181501,71.3475889 549.211856,74.24 L540.625273,103.17 C539.626833,103.02 536.162246,102.92 535.163807,102.85 C534.165367,102.78 535.623089,102.79 534.584711,102.79 C533.546334,102.79 532.468019,102.79 531.459594,102.85 C530.45117,102.91 529.472699,102.91 528.424337,103.06 L532.542577,88.8397707 C529.069008,92.7968903 525.382694,95.9174825 521.465211,98.22 C516.050669,101.386896 509.883079,103.031392 503.613105,102.98 C496.554134,102.98 490.783151,100.73 486.360062,96.18 C483.960823,93.7119197 482.216707,90.8436785 481.122932,87.5529318 C475.114063,92.3732103 469.398713,96.0440802 463.965055,98.53 C458.051628,101.415274 451.572114,102.948878 444.994696,103.02 C438.924181,103.02 434.161622,101.26 430.826833,97.83 C428.525045,95.4624939 427.022401,92.3803512 426.312334,88.6033027 C423.381676,92.0971399 420.093664,95.2805116 416.49922,98.1 C412.285803,101.3 408.435153,102.896667 404.94727,102.89 C402.460268,103.011191 400.040246,102.061322 398.29766,100.28 C396.595286,98.3389919 395.714344,95.810394 395.841498,93.23 C395.858655,92.0630647 395.968833,90.8993655 396.170983,89.75 C396.401744,88.3098055 396.715107,86.8841128 397.109516,85.48 L409.789704,38.27 L400.439527,38.27 C401.20887,39.8638413 401.572057,41.6409646 401.472699,43.44 C401.472699,47.5 399.415913,54.06 395.352262,63.07 C390.451375,73.5724298 384.878469,83.7469323 378.668331,93.53 C370.680811,106.443333 363.418825,115.85 356.882371,121.75 C350.345918,127.65 344.052418,130.613333 338.001872,130.64 C334.008112,130.64 330.833073,129.79 328.526677,128.08 C326.275744,126.452991 324.983644,123.808486 325.082059,121.03 C325.023399,118.453374 326.122954,115.986522 328.077379,114.31 C330.17144,112.507824 332.866388,111.561691 335.625585,111.66 C338.402923,111.795612 341.080961,112.737169 343.333541,114.37 C346.069267,116.2 347.926365,117.06 348.834945,117.06 C350.472387,117.06 352.33947,115.746667 354.436193,113.12 C356.592824,110.47 357.671139,107.97 357.671139,105.55 C357.630691,103.30904 357.464019,101.072151 357.171919,98.85 C356.842434,96.12 356.323245,92.79 355.664275,88.85 C354.276443,80.37 352.858658,72.64 351.460842,65.7 C350.063027,58.76 348.725117,53.27 347.586895,49.27 C346.588456,45.83 345.590016,43.6 344.521685,42.54 C344.045706,42.0677331 343.458741,41.706627 342.74401,41.4513752 L332.660218,76.71 L332.660218,76.85 C330.863027,83.2033333 329.964431,86.9066667 329.964431,87.96 C329.913917,88.7917712 330.119537,89.6190278 330.55351,90.33 C330.866192,90.8994457 331.472628,91.2437588 332.121061,91.22 C334.028081,91.22 336.524181,89.03 339.509516,84.64 C340.418097,83.39 341.117005,82.4 341.586271,81.7 L345.020905,84.27 C341.166927,90.71 337.332917,95.47 333.419033,98.5 C329.842567,101.415076 325.379808,103.020229 320.768799,103.05 C317.014665,103.05 314.159126,102.25 312.222153,100.68 C310.285179,99.11 309.226833,96.74 309.226833,93.68 C309.238938,92.5148924 309.332353,91.3520577 309.506396,90.2 C309.686115,88.79 309.985647,86.96 310.404992,84.73 C306.840562,90.94 302.95663,95.56 298.763183,98.54 C294.715255,101.52488 289.811558,103.117564 284.785023,103.08 C279.463339,103.08 275.279875,101.5 272.20468,98.34 C270.179032,96.25849 268.816204,93.6519691 268.121905,90.537586 C265.530863,93.879012 263.01459,96.5112811 260.592824,98.43 C257.077627,101.423581 252.635824,103.105552 248.022465,103.19 C244.178471,103.19 241.173167,102.19 239.086427,100.11 C236.999688,98.03 235.96131,95.11 235.96131,91.22 C235.96131,89.33 237.039626,84.3 239.166303,76.17 L239.375975,75.35 L240.11344,72.6241492 C238.138599,77.1916855 235.636823,81.5167307 232.656474,85.51 C228.303276,91.34 223.670515,95.72 218.788144,98.61 C214.051176,101.482778 208.620368,103.004259 203.082683,103.01 C200.906836,103.016028 198.743635,102.678554 196.672699,102.01 C194.733404,101.372157 192.911943,100.419463 191.281123,99.19 L186.967863,114.81 C186.656398,115.756232 186.439014,116.730964 186.318877,117.72 C186.16929,118.679225 186.099161,119.649197 186.109204,120.62 C186.109204,122.49 186.678315,123.85 187.84649,124.62 C189.014665,125.39 191.380967,125.84 194.935413,126.05 L194.935413,129.7 L154.6883,129.7 L154.6883,125.89 C154.886156,125.889535 155.08348,125.869437 155.277379,125.83 C155.463888,125.784099 155.654571,125.757294 155.84649,125.75 C158.352574,125.75 160.219657,125.14 161.457722,123.89 C162.695788,122.64 164.003744,119.39 165.351638,114.1 L181.326677,51.94 C181.60624,50.94 181.825897,49.94 181.995632,48.94 C182.135361,48.2108441 182.218811,47.4719925 182.245242,46.73 C182.402427,45.36473 181.791121,44.0246852 180.657722,43.25 C179.579407,42.55 177.572543,42.25 174.667083,42.25 L174.70702,38.83 C180.69766,38.39 186.298908,37.83 191.680499,37.13 C197.06209,36.43 202.263963,35.69 207.276131,34.75 L203.05273,49.16 C207.266147,43.59 211.279875,39.5 215.133853,36.99 C218.58181,34.5064393 222.718361,33.1638929 226.965367,33.15 C232.576599,33.15 236.949766,34.83 239.945086,38.2 C242.940406,41.57 244.527925,46.42 244.527925,52.67 C244.510918,54.2200226 244.420796,55.76605 244.258498,57.303012 L254.053042,21.1 C254.182839,20.6 254.362559,19.86 254.602184,18.88 C255.277793,16.6472394 255.729327,14.3525442 255.950078,12.03 C256.024865,10.8380355 255.462289,9.69589686 254.472387,9.03 C253.058235,8.27167175 251.460269,7.92525122 249.859594,8.03 L248.60156,8.03 L248.571607,4.54 C254.562246,4.08 260.333229,3.45 265.914509,2.69 C271.495788,1.93 276.727613,1.07 281.669891,-5.68434189e-14 L259.564431,83.35 C259.424649,83.81 259.254914,84.35 259.065211,85.08 C258.851244,85.7757958 258.717252,86.4937737 258.665835,87.22 C258.614655,88.0297451 258.820877,88.8349179 259.254914,89.52 C259.689605,90.0764578 260.367564,90.3861202 261.072075,90.35 C262.153703,90.1985726 263.132617,89.6275454 263.797816,88.76 C265.147985,87.1480885 266.426666,85.4782456 267.630322,83.7553604 C267.928142,77.3470778 269.420472,71.0463549 272.034945,65.18 C274.881333,58.3291095 278.913763,52.0357307 283.946334,46.59 C287.461146,42.6049866 291.606821,39.2265057 296.217161,36.59 C299.961915,34.4195672 304.192505,33.2295744 308.517941,33.13 C312.272075,33.13 315.18752,34 317.354134,35.73 C319.520749,37.46 320.948518,40.15 321.627457,43.73 L323.804056,35.48 L344.451794,35.48 L344.126481,36.6174774 C347.738352,36.1727838 351.38552,35.6788088 355.075195,35.15 C361.005928,34.3 364.160998,33.89 364.600312,33.89 C366.966615,33.89 370.071763,43.8 373.825897,63.67 C375.35351,71.58 376.591576,77.96 377.580031,82.73 C382.053042,74.0633333 385.111596,67.7666667 386.755694,63.84 C388.40312,59.92 389.211856,57 389.211856,55.14 C389.211856,53.69 387.843994,51.94 385.0883,49.94 C382.332605,47.94 380.944774,45.59 380.944774,43.03 C380.825707,40.3286025 381.877652,37.7073908 383.830265,35.84 C385.916652,33.9799254 388.648454,33.0140423 391.438378,33.15 C393.597193,33.0308898 395.720088,33.6170722 397.498476,34.7960444 L397.678627,34.21 C403.377669,33.0389254 408.649294,30.3315702 412.924805,26.38 C417.327925,22.38 421.331669,16.73 424.846178,9.58 L429.409048,9.58 L423.418409,33.28 L435.619345,33.28 L434.381279,38.28 L421.840874,38.28 L409.659906,83.87 C409.390328,84.87 409.170671,85.81 409.020905,86.67 C408.913087,87.4123998 408.846422,88.1602126 408.821217,88.91 C408.734851,90.162469 409.115527,91.4024884 409.889548,92.39 C410.614884,93.2146376 411.679834,93.6575223 412.775039,93.59 C414.372543,93.59 416.239626,92.71 418.466147,90.86 C421.120558,88.5034112 423.58433,85.9410471 425.834762,83.1970813 C425.834676,83.1647581 425.834633,83.1323977 425.834633,83.1 C425.89504,76.7262098 427.229228,70.4290704 429.758502,64.58 C432.311195,58.4180415 435.942679,52.7624969 440.481747,47.88 C444.585072,43.4739774 449.47496,39.8754471 454.89922,37.27 C459.952418,34.8559865 465.475443,33.5891693 471.073947,33.56 C476.165991,33.56 480.15975,34.7 483.055226,36.96 C485.966119,39.1219834 487.624806,42.5829796 487.4883,46.21 C487.4883,53.29 483.15507,59.43 474.578471,64.6 C466.001872,69.77 454.779407,72.79 440.85117,73.86 C440.411275,75.4628348 440.077733,77.0930611 439.85273,78.74 C439.630747,80.138857 439.523887,81.5536158 439.533229,82.97 C439.533229,86.92 440.531669,89.97 442.618409,92.02 C444.986396,94.418389 448.237614,95.7317625 451.604368,95.65 C455.458346,95.65 459.89142,93.9 464.763807,91.38 C470.118154,88.5158171 475.175977,85.130445 479.864371,81.2738062 C479.781702,80.3138306 479.740406,79.3260155 479.740406,78.31 C479.807458,72.5475402 481.086649,66.8639642 483.49454,61.63 C485.969357,55.9467785 489.484493,50.7777623 493.858346,46.39 C497.76122,42.4123818 502.387091,39.218429 507.487051,36.98 C512.324101,34.7834612 517.572002,33.6415715 522.882995,33.63 C528.394384,33.63 532.777535,34.85 536.042434,37.25 C539.187404,39.4216383 541.027022,43.0351795 540.934789,46.86 C540.975299,49.1750987 540.053033,51.4028639 538.388768,53.01 C536.836237,54.6634746 534.664256,55.5916343 532.398128,55.57 C530.673815,55.6483906 528.994923,55.0033264 527.765367,53.79 C526.56269,52.5454224 525.923678,50.8604244 525.998128,49.13 C526.081354,47.479068 526.571908,45.874548 527.425897,44.46 C528.068127,43.4447484 528.537147,42.3295079 528.813729,41.16 C528.769815,40.2647871 528.201846,39.4801579 527.365991,39.16 C526.138655,38.5917565 524.792815,38.3276557 523.442122,38.39 C519.776606,38.4508549 516.193068,39.4861829 513.058346,41.39 C509.449064,43.5420622 506.30837,46.3986081 503.822777,49.79 C500.677931,53.9578128 498.170925,58.5718438 496.384399,63.48 C494.716618,68.0089001 493.845065,72.7930151 493.808424,77.62 C493.808424,82.85 495.186271,87.03 497.981903,90.09 C500.839711,93.3629628 504.963068,95.2494147 509.304212,95.27 C513.078315,95.27 516.792512,93.59 520.436817,91.34 C524.035593,89.1181104 530.029542,84.6045735 536.495698,75.1896979 Z M147.28986,48.78 C148.258346,36.06 140.270827,27.2 123.936349,26.05 C112.993448,25.28 99.923869,28.1 86.8043682,33.48 L91.1775351,36.08 C117.825897,29.57 140.939782,33.88 147.030265,48.08 C147.130109,48.32 147.190016,48.55 147.28986,48.78 Z M123.59688,78.62 C140.670203,57.9 137.485179,39.9 116.517941,38.39 C109.971472,38.089078 103.422227,38.9212758 97.1581903,40.85 L122.628393,54.85 C124.868248,56.0890375 126.277507,58.4312257 126.324884,60.9935691 C126.37226,63.5559126 125.050551,65.9487533 122.858034,67.27 L59.9762871,103.77 C57.544793,105.105387 54.5832896,105.023843 52.2287223,103.556674 C49.874155,102.089504 48.4924444,99.4647214 48.6140406,96.69 L48.6140406,70.69 C48.2546022,71.12 47.8851794,71.53 47.5457098,71.96 C30.4524181,92.68 33.6474259,110.73 54.6146646,112.21 C75.5819033,113.69 106.533541,99.35 123.59688,78.62 Z M43.7216849,123.36 L43.6817473,123.36 C60.2957878,124.53 81.6723869,117.48 100.892356,105.66 C100.203432,105.95 99.5045242,106.28 98.7956318,106.58 C64.6090484,121.19 30.7819033,118.83 23.2436817,101.19 C22.1911329,98.717589 21.6836914,96.0468 21.7560062,93.36 C16.7638066,109.87 24.4418097,121.98 43.7216849,123.36 Z M65.9469579,31.1 L65.9070203,31.1 C64.2511377,30.1546786 62.2225523,30.1441712 60.5569963,31.0722888 C58.8914402,32.0004064 57.8307997,33.7323598 57.7597504,35.64 L57.9594384,84.78 C57.8699762,86.6709126 58.8057692,88.4631389 60.4073912,89.4683073 C62.0090131,90.4734758 64.0274186,90.5352869 65.6873635,89.63 L108.290796,64.89 C109.767095,63.9706116 110.649714,62.3394672 110.612821,60.5987243 C110.575929,58.8579814 109.624998,57.2658176 108.111076,56.41 L65.9469579,31.1 Z M163.524493,40.27 C173.309204,63.1 145.273011,97.09 100.942278,116.09 C56.6115445,135.09 12.7301092,131.96 2.93541342,109.09 C-5.52137285,89.27 14.3375975,61.17 48.5441498,41.62 L48.5441498,24.54 C48.6375559,21.7111085 50.207462,19.1391989 52.6788144,17.7663567 C55.1501667,16.3935146 58.1598049,16.4214765 60.6053042,17.84 L78.2577223,28.41 C117.975663,15.02 154.6883,19.58 163.524493,40.27 Z M198.769423,70.03 L194.935413,83.47 C194.366303,85.47 193.936973,87.37 193.577535,88.98 C193.292389,90.1743119 193.121879,91.3931883 193.068331,92.62 C192.996459,93.8685663 193.448949,95.0903845 194.316381,95.99 C195.272312,96.833375 196.518487,97.2709351 197.790952,97.21 C200.047426,97.21 202.377119,96.0033333 204.780031,93.59 C207.643326,90.5109086 210.002181,86.9974728 211.769111,83.18 C214.388928,77.615015 216.59158,71.8624599 218.358814,65.97 C219.996256,60.33 220.864899,55.89 220.864899,52.73 C220.956271,50.7809916 220.439833,48.8518052 219.387207,47.21 C218.603642,45.9183759 217.21181,45.1212612 215.702964,45.1 C212.368175,45.1 209.322933,47.15 206.537285,51.2 C203.751638,55.25 201.165679,61.55 198.769423,70.03 Z M317.783463,47.71 C317.878536,46.0123867 317.400221,44.3321466 316.425585,42.94 C315.591179,41.8001962 314.251837,41.1425571 312.841186,41.18 C310.484914,41.2963317 308.28114,42.3818485 306.750702,44.18 C304.089,47.1996524 301.811791,50.5385071 299.971295,54.12 C297.110598,59.2674463 294.743686,64.6749822 292.90234,70.27 C291.335322,74.6545195 290.456246,79.2557965 290.296412,83.91 C290.195664,85.8104784 290.699024,87.6940264 291.734165,89.29 C292.638903,90.5181121 294.084719,91.2272214 295.608112,91.19 C297.974415,91.19 300.400624,89.85 302.906708,87.09 C305.860515,83.6402665 308.258977,79.7501726 310.015601,75.56 C312.250757,70.3417891 314.135348,64.9798502 315.656786,59.51 C317.064587,54.37 317.783463,50.43 317.783463,47.71 Z M442.00936,68.86 C451.834009,68.41 460.101092,65.86 466.730733,61.23 C473.360374,56.6 476.715133,51.28 476.715133,45.31 C476.841311,43.648322 476.261177,42.0105168 475.117629,40.8 C473.771442,39.7197202 472.064724,39.194031 470.345086,39.33 C464.354446,39.33 458.873011,41.89 453.81092,47.13 C448.74883,52.37 444.834945,59.63 442.00936,68.86 Z M380.106084,126.76 L380.106084,127.88 C380.085213,128.425379 380.159547,128.970222 380.325741,129.49 C380.685179,130.85 381.84337,131.49 383.820281,131.49 C384.497107,131.500891 385.171297,131.40298 385.817161,131.2 C386.881002,130.833191 387.64988,129.900221 387.807816,128.784504 C387.965752,127.668786 387.486105,126.558528 386.565991,125.91 C385.844476,125.478606 385.097616,125.091235 384.329485,124.75 L381.713573,123.63 C380.803572,123.261029 379.930946,122.805617 379.107644,122.27 C377.705298,121.386103 376.882523,119.818099 376.951014,118.16 C376.85014,116.413392 377.801442,114.77554 379.367239,114 C380.900101,113.311506 382.570866,112.986413 384.24961,113.05 C386.775663,113.05 388.602808,113.5 389.711076,114.41 C390.599688,115.15 391.048986,116.58 391.048986,118.73 L391.048986,119.13 L387.454602,119.13 L387.454602,118.64 L387.394696,117.64 C387.165055,116.08 386.106708,115.32 384.199688,115.35 C381.783463,115.35 380.565367,116.28 380.535413,118.12 C380.535413,119.29 381.294228,120.25 382.801872,120.98 C383.75039,121.45 384.798752,121.91 385.976911,122.39 C386.974805,122.761989 387.942793,123.209966 388.872387,123.73 C390.537678,124.617136 391.547103,126.382501 391.468331,128.27 C391.468331,131.94 388.882371,133.79 383.800312,133.79 C382.076699,133.912977 380.351915,133.567481 378.808112,132.79 C377.494111,132.064893 376.648077,130.710638 376.571607,129.21 L376.521685,127.6 L376.521685,126.79 L380.106084,126.76 Z M393.884555,119.87 C393.837827,118.641545 393.999884,117.414069 394.363807,116.24 C394.963034,114.931541 396.136976,113.97761 397.538846,113.66 C398.768217,113.267244 400.052592,113.074794 401.342902,113.09 C402.633,113.077865 403.916891,113.270243 405.146958,113.66 C406.538955,113.983167 407.701476,114.936815 408.292044,116.24 C408.656468,117.414307 408.825135,118.640746 408.791264,119.87 L408.791264,126.62 C408.802479,127.673841 408.73238,128.726976 408.581591,129.77 C408.182215,132.43 405.795944,133.77 401.442746,133.77 C398.287676,133.77 396.160998,133.15 395.092668,131.9 C394.273947,130.96 393.864587,129.19 393.884555,126.6 L393.884555,119.87 Z M397.478939,126.6 C397.406773,127.714578 397.538741,128.832977 397.868331,129.9 C398.1702,130.451638 398.658819,130.877188 399.246178,131.1 C399.910009,131.380178 400.622546,131.526306 401.342902,131.53 C401.987399,131.537932 402.626538,131.411948 403.219969,131.16 C404.259444,130.85452 405.004932,129.941063 405.097036,128.86 C405.156942,128.23 405.186895,127.48 405.19688,126.6 L405.19688,119.85 C405.294558,118.7998 405.119133,117.74216 404.687676,116.78 C404.118565,115.78 403.000312,115.34 401.342902,115.35 C400.724156,115.340526 400.108717,115.442131 399.525741,115.65 C398.427976,115.920415 397.62461,116.861822 397.528861,117.99 C397.450075,118.606665 397.420028,119.228598 397.439002,119.85 L397.478939,126.6 Z M412.056162,113.38 L415.640562,113.38 L415.640562,126.81 L415.640562,128.58 C415.773687,130.54 416.968487,131.523333 419.224961,131.53 C421.49142,131.53 422.73947,130.61 422.949142,128.77 C423.028952,128.106218 423.072283,127.438545 423.078939,126.77 L423.078939,113.38 L426.673325,113.38 L426.673323,127.02 C426.673636,127.884972 426.630315,128.749407 426.543526,129.61 C426.456183,130.514978 426.032029,131.353901 425.355382,131.96 C424.037441,133.18 422.040562,133.78 419.364743,133.79 C416.688924,133.8 414.542278,133.19 413.314197,132 C412.648444,131.371479 412.233309,130.522145 412.146022,129.61 C412.086115,129.07 412.056162,128.22 412.056162,127.02 L412.056162,113.38 Z M436.018721,113.38 L438.165367,113.38 C438.927723,113.380041 439.688891,113.440228 440.44181,113.56 C443.087676,113.96 444.435569,115.56 444.435569,118.39 C444.518778,119.608136 444.144914,120.813503 443.387207,121.77 C442.708268,122.5 441.390328,122.99 439.44337,123.26 C440.335867,123.305661 441.217023,123.48082 442.059282,123.78 C442.792619,124.101776 443.327339,124.756344 443.497036,125.54 C443.63257,126.151526 443.712769,126.774046 443.736661,127.4 L443.886427,129.77 C443.93814,131.056139 444.218781,132.322691 444.715133,133.51 L441.01092,133.51 L440.641498,132.22 C440.53023,131.764524 440.466652,131.298675 440.451794,130.83 L440.312012,129.03 L440.182215,127.14 C440.162705,125.866542 439.254203,124.781315 438.005616,124.54 C437.385899,124.431046 436.757736,124.377502 436.128549,124.38 L433.642434,124.38 L433.642434,133.51 L430.028081,133.51 L430.028081,113.38 L436.018721,113.38 Z M433.642434,115.64 L433.642434,122.1 L436.208424,122.1 C436.876407,122.108478 437.544038,122.065014 438.205304,121.97 C439.116095,121.919092 439.954084,121.455269 440.481747,120.71 C440.809478,120.014962 440.950574,119.246338 440.891108,118.48 C440.985141,117.534706 440.515954,116.622278 439.69298,116.15 C438.653087,115.737149 437.534055,115.562881 436.418097,115.64 L433.642434,115.64 Z M457.984399,118.68 L457.984399,117.75 C457.89454,116.14 456.8961,115.34 454.98908,115.35 C453.271763,115.35 452.163495,115.78 451.644306,116.62 C451.378403,116.983009 451.216181,117.411667 451.175039,117.86 L451.175039,119.51 L451.175039,127.45 C451.093402,128.398666 451.244205,129.352951 451.614353,130.23 C452.347328,131.165043 453.509318,131.65626 454.689548,131.53 C456.586583,131.53 457.684867,130.66 457.904524,128.96 L458.05429,127.66 L458.05429,126.97 L461.63869,126.97 L461.63869,127.67 L461.63869,128.93 C461.607656,130.258742 461.016365,131.512203 460.011232,132.38 C459.401848,132.869874 458.687696,133.212108 457.924493,133.38 C456.912972,133.636242 455.87265,133.760604 454.829329,133.75 C453.901564,133.767962 452.974506,133.687513 452.063651,133.51 C449.068331,132.98 447.630577,131.11 447.610608,127.87 L447.610608,119.87 C447.603257,119.053468 447.660011,118.237622 447.780343,117.43 C447.892971,116.591227 448.238969,115.801118 448.778783,115.15 C449.917005,113.78 451.973791,113.09 454.929173,113.07 C459.062715,113.07 461.29922,114.34 461.608736,116.81 C461.67143,117.334286 461.701441,117.861975 461.698596,118.39 L461.698596,119.18 L457.984399,119.18 L457.984399,118.68 Z M464.683931,113.38 L476.415601,113.38 L476.415601,115.64 L468.268331,115.64 L468.268331,122.02 L475.956318,122.02 L475.956318,124.27 L468.268331,124.27 L468.268331,131.27 L476.645242,131.27 L476.645242,133.54 L464.663963,133.54 L464.683931,113.38 Z M485.940718,119.87 C485.878763,118.640879 486.041171,117.410748 486.419969,116.24 C487.004943,114.928535 488.175066,113.971689 489.575039,113.66 C490.807674,113.266523 492.09545,113.074068 493.38908,113.09 C494.679178,113.077865 495.963069,113.270243 497.193136,113.66 C498.582746,113.992866 499.744588,114.942941 500.348206,116.24 C500.712698,117.414111 500.878069,118.641118 500.837441,119.87 L500.837441,126.62 C500.846473,127.67344 500.779738,128.726163 500.637754,129.77 C500.218409,132.43 497.852106,133.77 493.488924,133.77 C490.320541,133.77 488.203848,133.146667 487.138846,131.9 C486.320125,130.96 485.920749,129.193333 485.940718,126.6 L485.940718,119.87 Z M489.525117,126.6 C489.449174,127.715385 489.584684,128.835088 489.924493,129.9 C490.222502,130.450958 490.707797,130.876698 491.292356,131.1 C491.956187,131.380178 492.668724,131.526306 493.38908,131.53 C494.033656,131.538808 494.672974,131.412789 495.266147,131.16 C496.300077,130.848658 497.039903,129.937289 497.133229,128.86 C497.193136,128.23 497.233073,127.48 497.243058,126.6 L497.243058,119.85 C497.340736,118.7998 497.165311,117.74216 496.733853,116.78 C496.164743,115.78 495.04649,115.34 493.38908,115.35 C492.770333,115.340526 492.154895,115.442131 491.571919,115.65 C490.488667,115.930497 489.705089,116.87226 489.624961,117.99 C489.532489,118.605388 489.499055,119.228229 489.525117,119.85 L489.525117,126.6 Z M515.554446,113.38 L515.554446,115.64 L507.706708,115.64 L507.706708,122 L515.254914,122 L515.254914,124.27 L507.706708,124.27 L507.706708,133.5 L504.112324,133.5 L504.112324,113.38 L515.554446,113.38 Z M527.485803,126.76 L527.485803,127.88 C527.461708,128.424794 527.532661,128.969623 527.695476,129.49 C528.054914,130.85 529.223089,131.49 531.190016,131.49 C531.866721,131.499023 532.540618,131.401155 533.186895,131.2 C534.477262,130.866672 535.34902,129.661935 535.263651,128.33 C535.286812,127.34052 534.775377,126.415441 533.925741,125.91 C533.20649,125.474548 532.459369,125.087042 531.689236,124.75 L529.083307,123.63 C528.177077,123.259739 527.307884,122.804374 526.487363,122.27 C525.090407,121.382188 524.272193,119.815624 524.340718,118.16 C524.238932,116.410437 525.195345,114.770563 526.766927,114 C528.295862,113.310248 529.96369,112.985061 531.639314,113.05 C534.155382,113.05 535.982527,113.5 537.10078,114.41 C537.989392,115.15 538.428705,116.58 538.428705,118.73 L538.428705,119.13 L534.864275,119.13 L534.864275,118.64 L534.794384,117.64 C534.574727,116.08 533.516381,115.32 531.599376,115.35 C529.173167,115.35 527.975039,116.28 527.945086,118.12 C527.945086,119.29 528.7039,120.25 530.211544,120.98 C531.140094,121.45 532.208424,121.91 533.386583,122.39 C534.384477,122.761989 535.352466,123.209966 536.282059,123.73 C537.939617,124.622657 538.940638,126.386896 538.858034,128.27 C538.858034,131.94 536.26209,133.79 531.190016,133.79 C529.466402,133.912977 527.741619,133.567481 526.197816,132.79 C524.878291,132.070757 524.0301,130.713049 523.96131,129.21 L523.881435,127.57 L523.881435,126.76 L527.485803,126.76 Z M541.404056,113.38 L544.988456,113.38 L544.988456,126.81 L544.988456,128.58 C545.118253,130.58 546.316381,131.52 548.562871,131.53 C550.80936,131.54 552.077379,130.61 552.297036,128.77 C552.366927,128.12 552.406864,127.47 552.426833,126.77 L552.426833,113.38 L556.011232,113.38 L556.011232,127.02 C556.016635,127.885091 555.9733,128.749799 555.881435,129.61 C555.798956,130.516385 555.373949,131.356995 554.693292,131.96 C553.385335,133.18 551.368487,133.78 548.702652,133.79 C546.036817,133.8 543.870203,133.19 542.632137,132 C541.976599,131.365165 541.566347,130.518585 541.473947,129.61 C541.473947,129.07 541.394072,128.22 541.394072,127.02 L541.404056,113.38 Z M570.019345,118.68 L570.019345,117.75 C569.929485,116.14 568.911076,115.34 567.024025,115.35 C565.316693,115.35 564.218409,115.78 563.69922,116.62 C563.434453,116.98452 563.269259,117.411939 563.219969,117.86 L563.219969,119.51 L563.219969,127.45 C563.145073,128.399341 563.299169,129.352803 563.669267,130.23 C564.397875,131.164969 565.557049,131.656591 566.734477,131.53 C568.641498,131.53 569.729797,130.66 569.959438,128.96 L570.109204,127.66 L570.109204,126.97 L573.693604,126.97 L573.693604,127.67 L573.693604,128.93 C573.671461,130.260834 573.078538,131.517754 572.066147,132.38 C571.459283,132.867892 570.748842,133.209984 569.989392,133.38 C568.974253,133.635029 567.930788,133.759365 566.884243,133.75 C565.959765,133.768538 565.035956,133.688082 564.128549,133.51 C561.133229,132.98 559.695476,131.11 559.685491,127.87 L559.685491,119.87 C559.665046,119.053503 559.718515,118.236831 559.845242,117.43 C559.943947,116.587378 560.291611,115.793467 560.843682,115.15 C561.991888,113.78 564.03869,113.09 567.004056,113.07 C571.144254,113.07 573.370775,114.316667 573.683619,116.81 C573.74131,117.334716 573.771305,117.862117 573.773479,118.39 L573.773479,119.18 L570.18908,119.18 L570.019345,118.68 Z M587.332293,118.68 L587.332293,117.75 C587.242434,116.14 586.243994,115.34 584.336973,115.35 C582.619657,115.35 581.511388,115.78 580.9922,116.62 C580.724724,116.981309 580.565427,117.41139 580.532917,117.86 L580.532917,119.51 L580.532917,127.45 C580.457203,128.398446 580.607784,129.351329 580.972231,130.23 C581.704416,131.160288 582.860881,131.650761 584.037441,131.53 C585.954446,131.53 587.032761,130.66 587.262402,128.96 L587.412168,127.66 L587.412168,126.97 L591.006552,126.97 L591.006552,127.67 L591.006552,128.93 C590.974336,130.256302 590.38746,131.508084 589.38908,132.38 C588.777184,132.871879 588.059312,133.214257 587.292356,133.38 C586.277538,133.636768 585.233848,133.761131 584.187207,133.75 C583.26606,133.767826 582.345636,133.687373 581.441498,133.51 C578.446178,132.98 577.008424,131.11 576.988456,127.87 L576.988456,119.87 C576.966146,119.053083 577.022991,118.235925 577.15819,117.43 C577.261542,116.588649 577.60864,115.79603 578.15663,115.15 C579.304836,113.78 581.351638,113.09 584.317005,113.07 C588.450546,113.07 590.673739,114.316667 590.986583,116.81 C591.052874,117.334052 591.086221,117.861759 591.086427,118.39 L591.086427,119.18 L587.492044,119.18 L587.332293,118.68 Z M594.051794,113.38 L605.75351,113.38 L605.75351,115.64 L597.616225,115.64 L597.616225,122.02 L605.25429,122.02 L605.25429,124.27 L597.616225,124.27 L597.616225,131.27 L605.993136,131.27 L605.993136,133.54 L594.011856,133.54 L594.051794,113.38 Z M611.274883,126.76 L611.274883,127.88 C611.257233,128.425966 611.334948,128.970823 611.504524,129.49 C611.863963,130.85 613.022153,131.49 614.98908,131.49 C615.66584,131.499864 616.339868,131.401977 616.985959,131.2 C618.083466,130.869195 618.888364,129.928875 619.047146,128.792025 C619.205928,127.655174 618.689551,126.529737 617.724805,125.91 C617.004417,125.476584 616.257429,125.089147 615.4883,124.75 L612.882371,123.63 C611.978202,123.262136 611.112098,122.806637 610.296412,122.27 C608.897203,121.3832 608.075457,119.817158 608.139782,118.16 C608.033486,116.412098 608.986408,114.771459 610.556006,114 C612.088209,113.309424 613.759467,112.984235 615.438378,113.05 C617.964431,113.05 619.781591,113.5 620.909828,114.41 C621.788456,115.15 622.227769,116.58 622.227769,118.73 L622.227769,119.13 L618.64337,119.13 L618.64337,118.64 L618.573479,117.64 C618.353822,116.08 617.285491,115.32 615.378471,115.35 C612.972231,115.35 611.74415,116.28 611.724181,118.12 C611.724181,119.29 612.482995,120.25 613.980655,120.98 C614.919189,121.45 615.977535,121.91 617.175663,122.39 C618.168779,122.765722 619.133174,123.21358 620.061154,123.73 C621.750055,124.601285 622.78758,126.368222 622.726989,128.27 C622.726989,131.94 620.14103,133.79 615.048986,133.79 C613.325247,133.914982 611.599935,133.569381 610.056786,132.79 C608.734456,132.073747 607.88516,130.714268 607.820281,129.21 L607.760374,127.6 L607.760374,126.79 L611.274883,126.76 Z M627.908892,126.76 L627.908892,127.88 C627.883058,128.425611 627.957512,128.971333 628.128549,129.49 C628.478003,130.85 629.646178,131.49 631.613105,131.49 C632.289931,131.500891 632.964121,131.40298 633.609984,131.2 C634.708865,130.871685 635.51625,129.93253 635.67722,128.795378 C635.838191,127.658226 635.323271,126.531306 634.358814,125.91 C633.638426,125.476584 632.891439,125.089147 632.122309,124.75 L629.516381,123.63 C628.612211,123.262136 627.746107,122.806637 626.930421,122.27 C625.521085,121.391531 624.693205,119.821069 624.763807,118.16 C624.670095,116.412385 625.624094,114.77665 627.190016,114 C628.722218,113.309424 630.393476,112.984235 632.072387,113.05 C634.595112,113.05 636.415601,113.503333 637.533853,114.41 C638.422465,115.15 638.871763,116.58 638.871763,118.73 L638.871763,119.13 L635.287363,119.13 L635.287363,118.64 L635.197504,117.64 C634.987832,116.08 633.919501,115.32 632.002496,115.35 C629.60624,115.35 628.378159,116.28 628.35819,118.12 C628.35819,119.29 629.10702,120.25 630.624649,120.98 C631.553198,121.45 632.621529,121.91 633.799688,122.39 C634.794457,122.761769 635.759143,123.209762 636.685179,123.73 C638.35047,124.617136 639.359895,126.382501 639.281123,128.27 C639.281123,131.94 636.695164,133.79 631.623089,133.79 C629.899476,133.912977 628.174692,133.567481 626.630889,132.79 C625.311364,132.070757 624.463174,130.713049 624.394384,129.21 L624.324493,127.6 L624.324493,126.79 L627.908892,126.76 Z" id="Combined-Shape"></path>
        </g>
    </g>
</svg>