<svg xmlns="http://www.w3.org/2000/svg" width="216" height="94" viewBox="0 0 216 94">
  <metadata><?xpacket begin="﻿" id="W5M0MpCehiHzreSzNTczkc9d"?>
<x:xmpmeta xmlns:x="adobe:ns:meta/" x:xmptk="Adobe XMP Core 5.6-c138 79.159824, 2016/09/14-01:09:01        ">
   <rdf:RDF xmlns:rdf="http://www.w3.org/1999/02/22-rdf-syntax-ns#">
      <rdf:Description rdf:about=""/>
   </rdf:RDF>
</x:xmpmeta>
                                                                                                    
                                                                                                    
                                                                                                    
                                                                                                    
                                                                                                    
                                                                                                    
                                                                                                    
                                                                                                    
                                                                                                    
                                                                                                    
                                                                                                    
                                                                                                    
                                                                                                    
                                                                                                    
                                                                                                    
                                                                                                    
                                                                                                    
                                                                                                    
                                                                                                    
                                                                                                    
                           
<?xpacket end="w"?></metadata>
<defs>
    <style>
      .cls-1 {
        fill-rule: evenodd;
      }
    </style>
  </defs>
  <path id="pragmatic_black" class="cls-1" d="M307.931,222.729L307.281,219,306,222.729h-1L303.733,219l-0.659,3.729h-1.12l1-5.888h1.119l1.4,4.121,1.41-4.121H308l1,5.888h-1.069Zm-7.406,0h-1.159v-4.808H298.3v-1.109h3.328v1.109h-1.1v4.808Zm-15.8,10.675H281.5v-7.232l-5-9.448h3.468l3.169,6,3.158-6h3.428l-5,9.458V233.4Zm-9.2,0-1.329-3.434h-6.927l-1.359,3.424h-3.358l6.516-16.67h3.279l6.536,16.68h-3.358Zm-4.8-12.255-2.279,5.72h4.547ZM252.7,216.724h3.209v13.609h4.707v3.022h-7.946Zm-5.527,9.39a14.808,14.808,0,0,1-3.408.265v7.064h-3.238V216.724h3.388a11.48,11.48,0,0,1,4,.5,4.07,4.07,0,0,1,2,1.629,4.972,4.972,0,0,1,.71,2.708,4.483,4.483,0,0,1-.93,2.943A4.822,4.822,0,0,1,247.174,226.114Zm-0.459-6a4.411,4.411,0,0,0-2.059-.334h-0.91l0.02,3.454h1a5.685,5.685,0,0,0,1.689-.167,1.5,1.5,0,0,0,.749-0.559,1.625,1.625,0,0,0,.27-0.982A1.511,1.511,0,0,0,246.715,220.119Zm-24.917-1.06a5.757,5.757,0,0,0-5.867,5.641c0,0.052,0,.105,0,0.158a6,6,0,0,0,.749,3.022,5.361,5.361,0,0,0,2.129,2.07,6.288,6.288,0,0,0,3.058.756,6.428,6.428,0,0,0,2.629-.53,9.386,9.386,0,0,0,2.619-1.963l2.238,2.3a12.253,12.253,0,0,1-3.628,2.551,10.083,10.083,0,0,1-3.9.717,9.091,9.091,0,0,1-6.636-2.463,8.84,8.84,0,0,1,1.949-14.149,9.617,9.617,0,0,1,4.707-1.207,10.072,10.072,0,0,1,7.546,3.414l-2.3,2.13A7.206,7.206,0,0,0,221.8,219.059Zm7.606,0.3v0.02l-0.01-.011Zm-22.677-2.993h3.278v17.024h-3.278V216.37Zm-5.787,17.024h-3.3V219.54h-3.079v-3.17h9.585v3.17H200.94v13.854Zm-9.455,0-1.359-3.5H183.05l-1.409,3.5h-3.429l6.737-17.024h3.3l6.7,17.024h-3.458Zm-4.837-12.51-2.329,5.887h4.628ZM171.166,222.6l-3.688,10.793h-2.9l-3.618-10.744-1.9,10.793h-3.258l3.008-17.073h3.218l4,11.873,4.058-11.873h3.218l2.909,17.024h-3.189Zm-21.1,10.175a8.839,8.839,0,0,1-4.4,1.05,9.917,9.917,0,0,1-4.817-1.148,8.5,8.5,0,0,1-3.338-3.326,9,9,0,0,1-1.229-4.592,8.448,8.448,0,0,1,2.278-5.888,9.075,9.075,0,0,1,7-2.943,10.875,10.875,0,0,1,4.228.824,9.7,9.7,0,0,1,3.278,2.394l-2.328,2.257a6.925,6.925,0,0,0-5.148-2.3,5.935,5.935,0,0,0-4.287,1.668,5.411,5.411,0,0,0-1.729,4.052,5.552,5.552,0,0,0,1.789,4.18,6.153,6.153,0,0,0,4.427,1.717,5.505,5.505,0,0,0,2.889-.706,5,5,0,0,0,1.889-2.208h-5v-3.042H154.3v0.717A8.583,8.583,0,0,1,150.068,232.776Zm-19.09-2.885h-7l-1.409,3.5h-3.468l6.686-17.024h3.348l6.667,17.024h-3.428Zm-3.488-9.007-2.328,5.887H129.8Zm-13.982,12.51-3.9-7.212h-0.3v7.212h-3.318V216.37h3.5a11.777,11.777,0,0,1,4.088.5,4.175,4.175,0,0,1,2,1.668,5.042,5.042,0,0,1,.739,2.767,4.643,4.643,0,0,1-.819,2.806,5,5,0,0,1-2.509,1.717l4.108,7.565h-3.588Zm-0.46-12.118a1.591,1.591,0,0,0-1.079-1.57,6.126,6.126,0,0,0-1.759-.166H109.3l-0.01,3.483h1a4.07,4.07,0,0,0,2.169-.4A1.51,1.51,0,0,0,113.048,221.276Zm-13.272,4.641a15.026,15.026,0,0,1-3.478.265v7.212H93V216.37h3.5a11.737,11.737,0,0,1,4.1.511,4.145,4.145,0,0,1,2,1.668,5.086,5.086,0,0,1,.73,2.757,4.577,4.577,0,0,1-.95,2.943A4.924,4.924,0,0,1,99.776,225.917Zm-0.5-6.073a4.506,4.506,0,0,0-2.049-.3H96.3v3.483h1a5.787,5.787,0,0,0,1.719-.177,1.517,1.517,0,0,0,.76-0.579,1.663,1.663,0,0,0,.279-0.981A1.542,1.542,0,0,0,99.276,219.844ZM264.485,258a32.782,32.782,0,1,1,32.507-32.781A32.645,32.645,0,0,1,264.485,258Zm0-62.117a29.327,29.327,0,0,0,0,58.652v0.01h0.01A29.332,29.332,0,0,0,264.485,195.881Zm9.852,17.918c-11.153.7-15.682-12.549-5.591-13.18C279.492,199.948,285.242,213.078,274.337,213.8ZM262.35,188.99a32.136,32.136,0,0,0-15.891,4.838c-0.705-2.244-3.814-10.617-11.829-15.264a16.493,16.493,0,0,1,13.606,8.664s-3.108-13.211-2.254-23.227c6.3,7.762,11.143,20.452,11.143,20.452a16.708,16.708,0,0,1,6.377-14.9C259.43,178.083,261.714,186.9,262.35,188.99Z" transform="translate(-93 -164)"/>
</svg>
