<svg width="40" height="40" viewBox="0 0 40 40" fill="none" xmlns="http://www.w3.org/2000/svg">
<g clip-path="url(#clip0)">
<path d="M21.0711 26.1925C20.595 26.1892 20.1194 26.1595 19.6465 26.1035V30.8045H22.5031V26.1035C22.0277 26.1597 21.5497 26.1894 21.0711 26.1925Z" fill="#FFC107"/>
<path opacity="0.8" d="M31.3047 36.9744V31.2158C31.3047 30.8755 30.8927 30.5996 30.3845 30.5996H11.3557C10.8475 30.5996 10.4355 30.8755 10.4355 31.2158V36.9744C10.4355 37.3148 10.8475 37.5906 11.3557 37.5906H30.3845C30.8927 37.5906 31.3047 37.3148 31.3047 36.9744Z" fill="url(#paint0_linear)"/>
<path d="M6.05146 21.0915C4.90805 21.0915 3.81148 20.5594 3.00296 19.6121C2.19445 18.6648 1.74023 17.38 1.74023 16.0403C1.74023 13.1539 3.82194 11.6458 5.8359 10.181C7.68357 8.82435 9.47581 7.5399 9.47581 5.29572C9.47716 4.86684 9.38554 4.44458 9.20953 4.06853C9.03352 3.69247 8.77889 3.37494 8.46951 3.14571C8.16013 2.91647 7.80614 2.78303 7.44071 2.7579C7.07528 2.73277 6.7104 2.81677 6.38025 3.00203C6.05011 3.1873 5.76552 3.46775 5.55318 3.81709C5.34083 4.16644 5.20768 4.57325 5.1662 4.99937C5.12472 5.42549 5.17628 5.85698 5.31604 6.25337C5.45579 6.64977 5.67917 6.99809 5.96524 7.26569C6.01352 7.3088 6.05396 7.36277 6.08419 7.42443C6.11443 7.4861 6.13384 7.55422 6.1413 7.6248C6.14876 7.69538 6.14411 7.76699 6.12762 7.83543C6.11114 7.90388 6.08315 7.96777 6.0453 8.02337C5.96904 8.13439 5.85889 8.20626 5.73818 8.22377C5.61747 8.24128 5.49569 8.20305 5.39862 8.11718C4.98722 7.74026 4.66439 7.24694 4.4605 6.68361C4.2566 6.12028 4.17834 5.50545 4.23306 4.89693C4.28779 4.2884 4.4737 3.70619 4.77333 3.20502C5.07295 2.70385 5.47644 2.30019 5.94586 2.032C6.41528 1.76382 6.9352 1.63991 7.45673 1.67194C7.97827 1.70396 8.48428 1.89087 8.9272 2.21508C9.37012 2.53929 9.73538 2.99015 9.98865 3.52527C10.2419 4.06039 10.3749 4.66219 10.375 5.27408C10.375 8.11718 8.30562 9.60368 6.30398 11.0469C4.45631 12.4179 2.64559 13.7096 2.64559 15.9898C2.64522 16.6913 2.80266 17.3805 3.10207 17.9879C3.40147 18.5954 3.83225 19.0996 4.35098 19.4498C4.86972 19.8 5.45809 19.9839 6.05678 19.9828C6.65548 19.9817 7.24335 19.7957 7.76115 19.4436C8.27895 19.0915 8.70838 18.5856 9.00616 17.9771C9.30394 17.3686 9.45955 16.6788 9.45731 15.9774C9.45506 15.2759 9.29504 14.5875 8.99337 13.9816C8.6917 13.3757 8.25904 12.8737 7.739 12.5262C7.63634 12.4552 7.56108 12.3405 7.52894 12.206C7.4968 12.0715 7.51028 11.9277 7.56655 11.8046C7.62713 11.6843 7.72504 11.5961 7.83982 11.5584C7.9546 11.5208 8.07736 11.5366 8.18244 11.6025C9.0303 12.1422 9.69915 12.9994 10.0819 14.0372C10.4647 15.0749 10.5393 16.2331 10.2938 17.3264C10.0483 18.4197 9.49683 19.3849 8.72769 20.0675C7.95856 20.7501 7.01621 21.1107 6.05146 21.0915V21.0915Z" fill="#FFC107"/>
<path d="M35.6776 21.0916C34.7169 21.1097 33.7788 20.7496 33.0125 20.0688C32.2463 19.388 31.6959 18.4255 31.4491 17.3347C31.2023 16.2439 31.2733 15.0875 31.6507 14.0496C32.0281 13.0116 32.6902 12.1519 33.5316 11.6072C33.6362 11.5393 33.7593 11.5225 33.8744 11.5603C33.9894 11.5982 34.0872 11.6876 34.1465 11.8094C34.2032 11.9318 34.2176 12.0752 34.1867 12.2097C34.1558 12.3442 34.0819 12.4596 33.9805 12.5318C33.4613 12.8797 33.0294 13.3822 32.7282 13.9888C32.427 14.5953 32.2673 15.2844 32.265 15.9866C32.2628 16.6888 32.4181 17.3792 32.7154 17.9884C33.0127 18.5976 33.4414 19.1039 33.9584 19.4564C34.4753 19.8089 35.0622 19.9951 35.6599 19.9962C36.2577 19.9972 36.8451 19.8132 37.3629 19.4626C37.8808 19.1121 38.3109 18.6073 38.6098 17.9992C38.9087 17.3911 39.0659 16.7012 39.0655 15.9991C39.0655 13.7164 37.2885 12.3873 35.3763 11.051C33.3779 9.60626 31.312 8.08932 31.312 5.27216C31.3129 4.66026 31.4462 4.05868 31.6992 3.52387C31.9523 2.98905 32.3169 2.53854 32.7588 2.21461C33.2007 1.89068 33.7054 1.70395 34.2255 1.67194C34.7456 1.63993 35.2642 1.76369 35.7324 2.03161C36.2007 2.29954 36.6034 2.70283 36.9026 3.20365C37.2019 3.70448 37.3879 4.28641 37.4433 4.89484C37.4986 5.50327 37.4215 6.11825 37.2191 6.68207C37.0168 7.24589 36.6958 7.74007 36.2863 8.11822C36.1884 8.20461 36.0658 8.24309 35.9443 8.22558C35.8228 8.20807 35.7117 8.13593 35.6345 8.02431C35.5613 7.91047 35.5288 7.76763 35.5437 7.62606C35.5586 7.48448 35.6199 7.35529 35.7145 7.26584C36.0095 7.00777 36.2434 6.66513 36.3936 6.27067C36.5439 5.8762 36.6056 5.44306 36.5728 5.01261C36.54 4.58216 36.4139 4.16877 36.2064 3.81191C35.9989 3.45505 35.717 3.16663 35.3876 2.97419C35.0582 2.78175 34.6923 2.69171 34.3249 2.71268C33.9575 2.73364 33.6007 2.86491 33.2888 3.09394C32.9768 3.32298 32.72 3.64214 32.543 4.02094C32.3659 4.39975 32.2744 4.82556 32.2773 5.25771C32.2773 7.50422 34.042 8.79 35.9051 10.148C37.9157 11.5927 40.0001 13.1241 40.0001 16.0135C40.0026 16.6812 39.8924 17.3428 39.6761 17.9602C39.4597 18.5776 39.1414 19.1386 38.7395 19.6107C38.3376 20.0828 37.8602 20.4567 37.3346 20.7109C36.8091 20.9651 36.2459 21.0945 35.6776 21.0916Z" fill="#FFC107"/>
<path d="M10.2288 4.84232V15.0206C10.2096 17.8974 11.2818 20.6713 13.223 22.7668C15.1641 24.8622 17.8253 26.1184 20.6542 26.2746C22.1137 26.3305 23.5693 26.0869 24.934 25.5586C26.2986 25.0302 27.5444 24.2278 28.5967 23.1994C29.649 22.171 30.4863 20.9377 31.0586 19.5732C31.6308 18.2087 31.9262 16.7411 31.9271 15.258V4.872C31.9271 4.71066 31.864 4.55593 31.7517 4.44185C31.6393 4.32776 31.487 4.26367 31.3281 4.26367H10.8205C10.6679 4.26538 10.5216 4.32622 10.4116 4.43377C10.3016 4.54132 10.2362 4.68746 10.2288 4.84232Z" fill="url(#paint1_linear)"/>
<g opacity="0.6">
<path opacity="0.6" d="M21.0712 24.6645C20.9627 24.6645 20.8587 24.6207 20.7819 24.5428C20.7052 24.4649 20.6621 24.3592 20.6621 24.249C20.6621 24.1389 20.7052 24.0332 20.7819 23.9553C20.8587 23.8774 20.9627 23.8336 21.0712 23.8336C22.1787 23.8326 23.2751 23.6099 24.2976 23.1782C25.3202 22.7466 26.249 22.1144 27.0307 21.3178C27.8124 20.5213 28.4318 19.576 28.8534 18.5362C29.2749 17.4963 29.4905 16.3822 29.4876 15.2577V11.9193C29.4895 11.8085 29.5342 11.7028 29.6121 11.6251C29.69 11.5474 29.7948 11.5039 29.904 11.5039C30.0125 11.5039 30.1166 11.5477 30.1933 11.6256C30.27 11.7035 30.3131 11.8092 30.3131 11.9193V15.2577C30.3151 16.4917 30.0775 17.714 29.614 18.8547C29.1505 19.9954 28.4701 21.0322 27.6119 21.9058C26.7536 22.7794 25.7342 23.4727 24.6119 23.946C23.4896 24.4194 22.2865 24.6635 21.0712 24.6645V24.6645Z" fill="white"/>
</g>
<g opacity="0.6">
<path opacity="0.6" d="M29.9047 10.2287C29.7955 10.2287 29.6907 10.1852 29.6128 10.1075C29.5349 10.0298 29.4902 9.92409 29.4883 9.81323V7.02384C29.4902 6.91298 29.5349 6.80732 29.6128 6.72962C29.6907 6.65191 29.7955 6.60838 29.9047 6.6084C30.0132 6.6084 30.1173 6.65217 30.194 6.73008C30.2707 6.80799 30.3138 6.91366 30.3138 7.02384V9.82807C30.3101 9.93566 30.2653 10.0376 30.189 10.1123C30.1126 10.187 30.0107 10.2287 29.9047 10.2287V10.2287Z" fill="white"/>
</g>
<path d="M29.5664 34.8724V33.1364C29.5664 32.7472 29.2557 32.4316 28.8724 32.4316H12.8695C12.4862 32.4316 12.1754 32.7472 12.1754 33.1364V34.8724C12.1754 35.2616 12.4862 35.5771 12.8695 35.5771H28.8724C29.2557 35.5771 29.5664 35.2616 29.5664 34.8724Z" fill="url(#paint2_linear)"/>
<path d="M1.85637 10.852V10.7482C1.86 10.7827 1.86 10.8175 1.85637 10.852ZM0.0445216 8.47068C0.475026 8.56524 0.869764 8.78327 1.18186 9.09887C1.49396 9.41447 1.71032 9.81439 1.80523 10.2511C1.80523 10.2649 1.81062 10.2781 1.82021 10.2879C1.8298 10.2976 1.84281 10.3031 1.85637 10.3031C1.86994 10.3031 1.88294 10.2976 1.89253 10.2879C1.90213 10.2781 1.90751 10.2649 1.90751 10.2511C2.00051 9.81593 2.21441 9.41691 2.52388 9.10135C2.83334 8.78579 3.22541 8.56692 3.65361 8.47068C3.67008 8.47068 3.68588 8.46404 3.69752 8.45221C3.70917 8.44038 3.71571 8.42435 3.71571 8.40762C3.71571 8.3909 3.70917 8.37486 3.69752 8.36303C3.68588 8.35121 3.67008 8.34456 3.65361 8.34456C3.22406 8.24958 2.83044 8.03128 2.51959 7.71563C2.20873 7.39998 1.99374 7.00028 1.90021 6.5641C1.90021 6.55033 1.89482 6.53712 1.88523 6.52738C1.87564 6.51764 1.86263 6.51217 1.84907 6.51217C1.8355 6.51217 1.8225 6.51764 1.8129 6.52738C1.80331 6.53712 1.79793 6.55033 1.79793 6.5641C1.70356 6.99989 1.48829 7.39913 1.17758 7.71464C0.866861 8.03015 0.473686 8.24874 0.0445216 8.34456C0.0280517 8.34456 0.0122564 8.35121 0.000610462 8.36303C-0.0110355 8.37486 -0.0175781 8.3909 -0.0175781 8.40762C-0.0175781 8.42435 -0.0110355 8.44038 0.000610462 8.45221C0.0122564 8.46404 0.0280517 8.47068 0.0445216 8.47068ZM34.3382 26.7056L34.2505 26.624L34.3309 26.713L34.3382 26.7056ZM30.2396 26.7056L30.32 26.6166L30.2323 26.6982L30.2396 26.7056ZM30.6853 23.0631C30.989 23.5268 31.1511 24.0714 31.1511 24.6284C31.1511 25.1854 30.989 25.7299 30.6853 26.1937C30.6756 26.2035 30.6701 26.2169 30.6701 26.2308C30.6701 26.2447 30.6756 26.258 30.6853 26.2679C30.6949 26.2777 30.7081 26.2833 30.7218 26.2833C30.7355 26.2833 30.7486 26.2777 30.7583 26.2679C31.215 25.9594 31.7513 25.7949 32.2998 25.7949C32.8484 25.7949 33.3847 25.9594 33.8414 26.2679C33.8511 26.2777 33.8642 26.2833 33.8779 26.2833C33.8916 26.2833 33.9048 26.2777 33.9144 26.2679C33.9241 26.258 33.9296 26.2447 33.9296 26.2308C33.9296 26.2169 33.9241 26.2035 33.9144 26.1937C33.6107 25.7299 33.4486 25.1854 33.4486 24.6284C33.4486 24.0714 33.6107 23.5268 33.9144 23.0631C33.9241 23.0532 33.9296 23.0399 33.9296 23.026C33.9296 23.012 33.9241 22.9987 33.9144 22.9889C33.9048 22.979 33.8916 22.9735 33.8779 22.9735C33.8642 22.9735 33.8511 22.979 33.8414 22.9889C33.3847 23.2973 32.8484 23.4619 32.2998 23.4619C31.7513 23.4619 31.215 23.2973 30.7583 22.9889C30.7486 22.979 30.7355 22.9735 30.7218 22.9735C30.7081 22.9735 30.6949 22.979 30.6853 22.9889C30.6756 22.9987 30.6701 23.012 30.6701 23.026C30.6701 23.0399 30.6756 23.0532 30.6853 23.0631ZM20.4571 7.69173C20.7608 8.1555 20.9229 8.70007 20.9229 9.25705C20.9229 9.81403 20.7608 10.3586 20.4571 10.8224C20.453 10.8335 20.4522 10.8456 20.455 10.8572C20.4577 10.8687 20.4638 10.8792 20.4725 10.8871C20.4811 10.8951 20.4919 10.9003 20.5035 10.902C20.5151 10.9037 20.5269 10.9018 20.5374 10.8966C20.9927 10.5878 21.5279 10.423 22.0753 10.423C22.6228 10.423 23.1579 10.5878 23.6132 10.8966C23.6229 10.9064 23.636 10.9119 23.6497 10.9119C23.6634 10.9119 23.6766 10.9064 23.6863 10.8966C23.6959 10.8867 23.7014 10.8734 23.7014 10.8595C23.7014 10.8456 23.6959 10.8322 23.6863 10.8224C23.3861 10.3572 23.2262 9.81318 23.2262 9.25705C23.2262 8.70092 23.3861 8.1569 23.6863 7.69173C23.6959 7.68189 23.7014 7.66855 23.7014 7.65463C23.7014 7.64072 23.6959 7.62738 23.6863 7.61754C23.6766 7.6077 23.6634 7.60218 23.6497 7.60218C23.636 7.60218 23.6229 7.6077 23.6132 7.61754C23.1579 7.9263 22.6228 8.09109 22.0753 8.09109C21.5279 8.09109 20.9927 7.9263 20.5374 7.61754C20.5269 7.61233 20.5151 7.61044 20.5035 7.61212C20.4919 7.6138 20.4811 7.61897 20.4725 7.62696C20.4638 7.63495 20.4577 7.64539 20.455 7.65694C20.4522 7.66849 20.453 7.68061 20.4571 7.69173ZM10.6891 23.3821C10.8038 23.5867 10.8641 23.818 10.8641 24.0534C10.8641 24.2888 10.8038 24.5202 10.6891 24.7248C10.6891 24.7767 10.6891 24.8213 10.7622 24.799C10.9637 24.6826 11.1915 24.6214 11.4234 24.6214C11.6552 24.6214 11.8831 24.6826 12.0846 24.799C12.1357 24.799 12.1868 24.799 12.1576 24.7248C12.043 24.5202 11.9827 24.2888 11.9827 24.0534C11.9827 23.818 12.043 23.5867 12.1576 23.3821C12.1673 23.3722 12.1728 23.3589 12.1728 23.345C12.1728 23.331 12.1673 23.3177 12.1576 23.3079C12.1479 23.298 12.1348 23.2925 12.1211 23.2925C12.1074 23.2925 12.0943 23.298 12.0846 23.3079C11.8831 23.4243 11.6552 23.4855 11.4234 23.4855C11.1915 23.4855 10.9637 23.4243 10.7622 23.3079C10.7525 23.2882 10.7355 23.2732 10.715 23.2663C10.6944 23.2593 10.672 23.2609 10.6526 23.2708C10.6332 23.2806 10.6185 23.2979 10.6117 23.3187C10.6048 23.3396 10.6064 23.3624 10.6161 23.3821H10.6891Z" fill="white"/>
</g>
<defs>
<linearGradient id="paint0_linear" x1="25.817" y1="30.9529" x2="24.9253" y2="38.4701" gradientUnits="userSpaceOnUse">
<stop stop-color="#F85473"/>
<stop offset="0.22" stop-color="#F2627C"/>
<stop offset="0.46" stop-color="#F58697"/>
<stop offset="0.72" stop-color="#F79CA5"/>
<stop offset="0.98" stop-color="#FABCB9"/>
<stop offset="1" stop-color="#FABEBA"/>
</linearGradient>
<linearGradient id="paint1_linear" x1="13.0437" y1="11.3798" x2="41.253" y2="36.5559" gradientUnits="userSpaceOnUse">
<stop stop-color="#FFD707"/>
<stop offset="1" stop-color="#F07925"/>
</linearGradient>
<linearGradient id="paint2_linear" x1="22.72" y1="32.8397" x2="20.0445" y2="50.1907" gradientUnits="userSpaceOnUse">
<stop stop-color="#FFD707"/>
<stop offset="1" stop-color="#F07925"/>
</linearGradient>
<clipPath id="clip0">
<rect width="40" height="40" fill="white"/>
</clipPath>
</defs>
</svg>
