<svg width="197" height="122" viewBox="0 0 197 122" fill="none" xmlns="http://www.w3.org/2000/svg">
<path d="M45.0215 113.158C45.0215 113.481 44.8096 113.905 44.3857 114.43C40.6722 118.85 35.7376 121.06 29.582 121.06C23.2852 121.06 18.179 118.91 14.2637 114.611C10.4492 110.454 8.54199 105.206 8.54199 98.8691C8.54199 92.7337 10.4089 87.5267 14.1426 83.248C18.0378 78.7676 22.9925 76.5273 29.0068 76.5273C35.5459 76.5273 40.6722 78.5355 44.3857 82.5518C44.7894 82.9958 44.9912 83.3893 44.9912 83.7324C44.9912 84.1159 44.2848 85.5387 42.8721 88.001C41.4795 90.4632 40.6016 91.8457 40.2383 92.1484C40.0768 92.3099 39.875 92.3906 39.6328 92.3906C39.5319 92.3906 39.0273 91.987 38.1191 91.1797C37.0293 90.2109 35.9596 89.4541 34.9102 88.9092C33.3158 88.1019 31.6608 87.6982 29.9453 87.6982C26.9785 87.6982 24.6071 88.8083 22.8311 91.0283C21.1963 93.0869 20.3789 95.6299 20.3789 98.6572C20.3789 101.725 21.1963 104.298 22.8311 106.377C24.6071 108.637 26.9785 109.768 29.9453 109.768C31.7012 109.768 33.3662 109.384 34.9404 108.617C35.9697 108.113 37.0192 107.406 38.0889 106.498C38.9769 105.731 39.4714 105.348 39.5723 105.348C39.7741 105.348 39.9759 105.459 40.1777 105.681C40.5007 106.044 41.3786 107.305 42.8115 109.465C44.2848 111.705 45.0215 112.936 45.0215 113.158Z" fill="white"/>
<path d="M78.5039 104.863C78.5039 106.417 78.5947 108.728 78.7764 111.796C78.958 114.864 79.0488 117.164 79.0488 118.698C79.0488 119.506 78.6956 119.939 77.9893 120C75.4867 120.182 72.6208 120.272 69.3916 120.272C69.0081 120.272 68.7458 119.697 68.6045 118.547C68.4834 117.376 68.332 116.781 68.1504 116.761C67.9889 116.841 67.777 117.013 67.5146 117.275C65.2542 119.556 62.8324 120.696 60.249 120.696C56.3135 120.696 53.054 119.142 50.4707 116.034C48.0286 113.128 46.8076 109.657 46.8076 105.62C46.8076 100.958 48.069 97.2041 50.5918 94.3584C53.2155 91.4118 56.8079 89.9385 61.3691 89.9385C64.5378 89.9385 67.0404 91.0485 68.877 93.2686C68.9577 93.3695 69.0283 93.4199 69.0889 93.4199C69.2705 93.4199 69.4723 92.9355 69.6943 91.9668C69.9365 90.9779 70.2191 90.4834 70.542 90.4834C71.2887 90.4834 72.7116 90.6953 74.8105 91.1191C76.8086 91.5228 78.2415 91.8659 79.1094 92.1484C79.4121 92.2695 79.5635 92.431 79.5635 92.6328C79.5635 92.7135 79.5332 92.9255 79.4727 93.2686C78.8268 96.9215 78.5039 100.786 78.5039 104.863ZM68.7559 105.045C68.7559 103.329 68.2109 101.917 67.1211 100.807C66.0514 99.6764 64.6488 99.1113 62.9131 99.1113C61.1774 99.1113 59.7747 99.6663 58.7051 100.776C57.6354 101.886 57.1006 103.309 57.1006 105.045C57.1006 106.68 57.6657 108.082 58.7959 109.253C59.9261 110.424 61.2985 111.009 62.9131 111.009C64.6286 111.009 66.0312 110.454 67.1211 109.344C68.2109 108.214 68.7559 106.781 68.7559 105.045Z" fill="white"/>
<path d="M102.238 95.5088C102.238 95.7106 102.087 95.9831 101.784 96.3262C101.219 96.1849 100.654 96.1143 100.089 96.1143C98.8981 96.1143 97.8991 96.3766 97.0918 96.9014C96.123 97.5068 95.6387 98.3646 95.6387 99.4746C95.6387 100.181 96.1533 101.079 97.1826 102.169C98.7367 103.804 99.6953 104.904 100.059 105.469C101.088 107.003 101.603 108.647 101.603 110.403C101.603 111.433 101.401 112.522 100.997 113.673C100.533 114.944 99.9476 115.873 99.2412 116.458C97.7477 117.75 96.002 118.84 94.0039 119.728C91.8444 120.656 89.8564 121.12 88.04 121.12C87.6364 121.12 86.7282 120.03 85.3154 117.851C83.9229 115.651 83.2266 114.309 83.2266 113.824C83.2266 113.643 83.3376 113.532 83.5596 113.491C84.9723 113.229 86.3952 112.966 87.8281 112.704C89.6042 112.139 90.4922 111.211 90.4922 109.919C90.4922 109.031 89.9775 108.002 88.9482 106.831C87.1117 104.793 86.153 103.713 86.0723 103.592C85.043 102.139 84.5283 100.605 84.5283 98.9902C84.5283 95.9629 86.0622 93.3896 89.1299 91.2705C91.8747 89.3936 94.8112 88.4551 97.9395 88.4551C98.2624 88.4551 99.0596 89.5449 100.331 91.7246C101.603 93.8841 102.238 95.1455 102.238 95.5088Z" fill="white"/>
<path d="M118.616 83.6113C118.616 87.123 116.638 88.8789 112.683 88.8789C110.987 88.8789 109.585 88.4349 108.475 87.5469C107.264 86.5781 106.658 85.2663 106.658 83.6113C106.658 82.0371 107.284 80.7454 108.535 79.7363C109.686 78.8079 111.068 78.3438 112.683 78.3438C114.257 78.3438 115.619 78.818 116.77 79.7666C118.001 80.7757 118.616 82.0573 118.616 83.6113ZM117.829 106.104C117.829 107.578 117.859 109.778 117.92 112.704C117.98 115.61 118.011 117.79 118.011 119.243C118.011 119.667 117.758 119.919 117.254 120C116.568 120.121 115.024 120.182 112.622 120.182C110.2 120.182 108.646 120.121 107.96 120C107.516 119.919 107.243 119.788 107.143 119.606C107.102 119.526 107.082 119.223 107.082 118.698C107.082 117.306 107.112 115.217 107.173 112.432C107.233 109.626 107.264 107.517 107.264 106.104C107.264 100.373 107.042 95.8115 106.598 92.4209C106.557 92.098 106.537 91.8861 106.537 91.7852C106.537 91.3815 106.81 91.1797 107.354 91.1797C107.92 91.1797 108.777 91.2402 109.928 91.3613C111.098 91.4824 111.976 91.543 112.562 91.543C113.147 91.543 114.025 91.4925 115.195 91.3916C116.366 91.2907 117.244 91.2402 117.829 91.2402C118.313 91.2402 118.556 91.4421 118.556 91.8457C118.556 91.9264 118.535 92.1182 118.495 92.4209C118.051 96.3564 117.829 100.918 117.829 106.104Z" fill="white"/>
<path d="M153.794 119.122C153.794 119.667 153.511 119.98 152.946 120.061C152.381 120.141 150.908 120.182 148.526 120.182C145.983 120.182 144.409 120.121 143.804 120C143.198 119.879 142.896 119.465 142.896 118.759C142.896 117.81 142.926 116.377 142.986 114.46C143.047 112.543 143.077 111.1 143.077 110.131C143.077 109.384 143.057 108.274 143.017 106.801C142.976 105.307 142.956 104.187 142.956 103.44C142.956 100.675 141.755 99.293 139.354 99.293C138.566 99.293 137.648 99.6361 136.599 100.322C135.468 101.089 134.903 101.846 134.903 102.593V118.94C134.903 119.606 134.59 119.98 133.965 120.061C133.258 120.141 131.815 120.182 129.636 120.182C127.274 120.182 125.741 120.121 125.034 120C124.409 119.899 124.096 119.566 124.096 119.001C124.096 117.427 124.106 115.055 124.126 111.887C124.146 108.718 124.156 106.337 124.156 104.742C124.156 99.7168 123.763 95.7712 122.976 92.9053C122.935 92.7236 122.915 92.5723 122.915 92.4512C122.915 92.1283 123.066 91.9062 123.369 91.7852C124.641 91.6439 126.336 91.4219 128.455 91.1191C131.664 90.4935 133.47 90.1807 133.874 90.1807C134.096 90.1807 134.268 90.8669 134.389 92.2393C134.51 93.5915 134.681 94.2676 134.903 94.2676C134.681 94.2676 135.761 93.5713 138.143 92.1787C140.544 90.766 142.643 90.0596 144.439 90.0596C147.003 90.0596 149.142 90.665 150.857 91.876C152.775 93.2686 153.733 95.2061 153.733 97.6885V107.346C153.733 108.658 153.743 110.625 153.764 113.249C153.784 115.853 153.794 117.81 153.794 119.122Z" fill="white"/>
<path d="M188.003 105.105C188.003 109.707 186.59 113.441 183.765 116.307C180.959 119.173 177.266 120.605 172.685 120.605C168.244 120.605 164.591 119.193 161.726 116.367C158.86 113.542 157.427 109.909 157.427 105.469C157.427 100.786 158.799 96.9922 161.544 94.0859C164.289 91.1595 168.002 89.6963 172.685 89.6963C177.246 89.6963 180.939 91.1292 183.765 93.9951C186.59 96.8408 188.003 100.544 188.003 105.105ZM178.073 105.105C178.073 103.511 177.579 102.108 176.59 100.897C175.601 99.6663 174.319 99.0508 172.745 99.0508C171.151 99.0508 169.839 99.6764 168.81 100.928C167.841 102.098 167.356 103.491 167.356 105.105C167.356 106.74 167.841 108.143 168.81 109.313C169.839 110.565 171.151 111.19 172.745 111.19C174.319 111.19 175.621 110.565 176.65 109.313C177.599 108.143 178.073 106.74 178.073 105.105Z" fill="white"/>
<path d="M31.8223 36.3955C31.8223 36.6175 31.6204 36.7285 31.2168 36.7285C29.7031 36.7285 27.4023 36.5973 24.3145 36.335C21.2467 36.0726 18.946 35.9414 17.4121 35.9414C15.4746 35.9414 14.3444 36.012 14.0215 36.1533C13.2747 36.4964 12.9014 37.4652 12.9014 39.0596C12.9014 40.9769 13.3857 42.0667 14.3545 42.3291C14.7581 42.43 15.3737 42.4805 16.2012 42.4805C17.5938 42.4805 19.6725 42.4098 22.4375 42.2686C25.2227 42.1071 27.3115 42.0264 28.7041 42.0264C29.3701 42.0264 29.7031 43.8024 29.7031 47.3545C29.7031 50.4424 29.5921 52.2386 29.3701 52.7432C29.2288 53.1064 28.9564 53.2881 28.5527 53.2881C28.8151 53.2881 28.1794 53.2174 26.6455 53.0762C24.486 52.8743 21.2165 52.7734 16.8369 52.7734C15.4242 52.7734 14.627 52.7835 14.4453 52.8037C13.416 52.9652 12.9014 53.3991 12.9014 54.1055C12.9014 56.9714 13.0225 60.2712 13.2646 64.0049C13.4665 67.3753 13.5674 68.8789 13.5674 68.5156C13.5674 69.0404 12.9316 69.3431 11.6602 69.4238C12.0033 69.4036 11.1051 69.3936 8.96582 69.3936C5.19173 69.3936 2.75977 69.2624 1.66992 69C1.08464 68.8587 0.791992 68.5459 0.791992 68.0615C0.791992 65.8213 0.86263 62.4609 1.00391 57.9805C1.16536 53.4798 1.24609 50.1094 1.24609 47.8691C1.24609 45.2051 1.125 41.8548 0.882812 37.8184C0.519531 31.582 0.327799 28.2318 0.307617 27.7676L0.277344 27.4043C0.257161 26.8997 0.559896 26.6475 1.18555 26.6475C2.67904 26.6475 4.92936 26.6777 7.93652 26.7383C10.9639 26.7988 13.2344 26.8291 14.748 26.8291C16.3626 26.8291 18.7845 26.708 22.0137 26.4658C25.263 26.2236 27.695 26.1025 29.3096 26.1025C30.3187 26.1025 30.8838 26.5163 31.0049 27.3438C31.0049 28.2116 31.0452 29.5133 31.126 31.249C31.1663 31.693 31.2975 32.5508 31.5195 33.8223C31.7214 34.9323 31.8223 35.79 31.8223 36.3955Z" fill="#FDAE05"/>
<path d="M55.2842 50.1396C55.2842 50.9268 54.8503 51.3203 53.9824 51.3203C53.599 51.3203 53.0339 51.3001 52.2871 51.2598C51.5605 51.1992 51.0156 51.1689 50.6523 51.1689C48.9772 51.1689 47.8369 51.4313 47.2314 51.9561C46.626 52.4808 46.3232 53.5404 46.3232 55.1348C46.3232 56.0026 46.3333 57.3245 46.3535 59.1006C46.3939 60.8564 46.4141 62.1683 46.4141 63.0361C46.4141 63.6214 46.4544 64.4993 46.5352 65.6699C46.6159 66.8203 46.6562 67.6781 46.6562 68.2432C46.6562 68.7275 46.3232 69 45.6572 69.0605C44.6885 69.1413 43.2051 69.1816 41.207 69.1816C39.2897 69.1816 37.7559 69.1211 36.6055 69C35.9395 68.9193 35.6064 68.5863 35.6064 68.001C35.6064 66.3864 35.6165 63.9746 35.6367 60.7656C35.6569 57.5365 35.667 55.1146 35.667 53.5C35.667 48.7572 35.2331 44.8519 34.3652 41.7842C34.3249 41.6025 34.3047 41.4512 34.3047 41.3301C34.3047 41.0273 34.4561 40.8255 34.7588 40.7246C35.8688 40.6035 37.4935 40.3815 39.6328 40.0586C42.8216 39.4329 44.4665 39.1201 44.5674 39.1201C44.9307 39.1201 45.1628 39.7559 45.2637 41.0273C45.3646 42.2988 45.5462 42.9346 45.8086 42.9346C45.526 42.9346 46.3535 42.4098 48.291 41.3604C50.2285 40.2907 52.0954 39.7559 53.8916 39.7559C55.0218 39.7559 55.5869 39.998 55.5869 40.4824C55.5869 41.0677 55.5264 41.8952 55.4053 42.9648C55.2842 44.1152 55.2135 44.9427 55.1934 45.4473C55.1934 46.0326 55.2035 46.8096 55.2236 47.7783C55.264 48.9691 55.2842 49.7562 55.2842 50.1396Z" fill="#FDAE05"/>
<path d="M70.8145 32.6113C70.8145 36.123 68.8366 37.8789 64.8809 37.8789C63.1855 37.8789 61.7829 37.4349 60.6729 36.5469C59.4619 35.5781 58.8564 34.2663 58.8564 32.6113C58.8564 31.0371 59.4821 29.7454 60.7334 28.7363C61.8838 27.8079 63.2663 27.3438 64.8809 27.3438C66.4551 27.3438 67.8174 27.818 68.9678 28.7666C70.1989 29.7757 70.8145 31.0573 70.8145 32.6113ZM70.0273 55.1045C70.0273 56.5778 70.0576 58.7777 70.1182 61.7041C70.1787 64.6104 70.209 66.79 70.209 68.2432C70.209 68.667 69.9567 68.9193 69.4521 69C68.766 69.1211 67.222 69.1816 64.8203 69.1816C62.3984 69.1816 60.8444 69.1211 60.1582 69C59.7142 68.9193 59.4417 68.7881 59.3408 68.6064C59.3005 68.5257 59.2803 68.223 59.2803 67.6982C59.2803 66.3057 59.3105 64.2168 59.3711 61.4316C59.4316 58.6263 59.4619 56.5173 59.4619 55.1045C59.4619 49.3727 59.2399 44.8115 58.7959 41.4209C58.7555 41.098 58.7354 40.8861 58.7354 40.7852C58.7354 40.3815 59.0078 40.1797 59.5527 40.1797C60.1178 40.1797 60.9756 40.2402 62.126 40.3613C63.2965 40.4824 64.1745 40.543 64.7598 40.543C65.3451 40.543 66.223 40.4925 67.3936 40.3916C68.5641 40.2907 69.4421 40.2402 70.0273 40.2402C70.5117 40.2402 70.7539 40.4421 70.7539 40.8457C70.7539 40.9264 70.7337 41.1182 70.6934 41.4209C70.2493 45.3564 70.0273 49.9176 70.0273 55.1045Z" fill="#FDAE05"/>
<path d="M103.631 52.5615C103.631 54.5999 102.975 55.7604 101.663 56.043C101.441 56.0833 99.3522 56.3053 95.3965 56.709C93.015 56.9714 89.4629 57.2842 84.7402 57.6475C85.0228 58.9593 85.8805 59.9583 87.3135 60.6445C88.484 61.2096 89.8161 61.4922 91.3096 61.4922C93.1058 61.4922 94.9121 61.0078 96.7285 60.0391C97.4954 59.5547 98.2624 59.0703 99.0293 58.5859C99.4531 58.7878 100.16 59.8171 101.148 61.6738C102.158 63.5306 102.662 64.7113 102.662 65.2158C102.662 65.3571 102.511 65.5892 102.208 65.9121C99.7458 68.556 95.9212 69.8779 90.7344 69.8779C85.931 69.8779 82.056 68.4753 79.1094 65.6699C76.082 62.8242 74.5684 59.0199 74.5684 54.2568C74.5684 49.6149 75.9206 45.8105 78.625 42.8438C81.4102 39.776 85.1035 38.2422 89.7051 38.2422C93.5801 38.2422 96.8698 39.6549 99.5742 42.4805C102.279 45.306 103.631 48.6663 103.631 52.5615ZM93.0352 50.7148C93.0352 49.4635 92.5911 48.3636 91.7031 47.415C90.8151 46.4665 89.7555 45.9922 88.5244 45.9922C87.2529 45.9922 86.2035 46.527 85.376 47.5967C84.609 48.5856 84.2256 49.7461 84.2256 51.0781C84.2256 51.623 84.5081 51.8955 85.0732 51.8955C86.5667 51.8955 88.8877 51.6634 92.0361 51.1992C92.7021 51.0983 93.0352 50.9368 93.0352 50.7148Z" fill="#FDAE05"/>
<path d="M137.053 68.1221C137.053 68.667 136.77 68.9798 136.205 69.0605C135.64 69.1413 134.167 69.1816 131.785 69.1816C129.242 69.1816 127.668 69.1211 127.062 69C126.457 68.8789 126.154 68.4652 126.154 67.7588C126.154 66.8102 126.185 65.3773 126.245 63.46C126.306 61.5426 126.336 60.0996 126.336 59.1309C126.336 58.3841 126.316 57.2741 126.275 55.8008C126.235 54.3073 126.215 53.1872 126.215 52.4404C126.215 49.6755 125.014 48.293 122.612 48.293C121.825 48.293 120.907 48.6361 119.857 49.3223C118.727 50.0892 118.162 50.846 118.162 51.5928V67.9404C118.162 68.6064 117.849 68.9798 117.224 69.0605C116.517 69.1413 115.074 69.1816 112.895 69.1816C110.533 69.1816 108.999 69.1211 108.293 69C107.667 68.8991 107.354 68.5661 107.354 68.001C107.354 66.4268 107.365 64.0553 107.385 60.8867C107.405 57.7181 107.415 55.3366 107.415 53.7422C107.415 48.7168 107.021 44.7712 106.234 41.9053C106.194 41.7236 106.174 41.5723 106.174 41.4512C106.174 41.1283 106.325 40.9062 106.628 40.7852C107.899 40.6439 109.595 40.4219 111.714 40.1191C114.923 39.4935 116.729 39.1807 117.133 39.1807C117.355 39.1807 117.526 39.8669 117.647 41.2393C117.769 42.5915 117.94 43.2676 118.162 43.2676C117.94 43.2676 119.02 42.5713 121.401 41.1787C123.803 39.766 125.902 39.0596 127.698 39.0596C130.261 39.0596 132.401 39.665 134.116 40.876C136.034 42.2686 136.992 44.2061 136.992 46.6885V56.3457C136.992 57.6576 137.002 59.6253 137.022 62.249C137.043 64.8525 137.053 66.8102 137.053 68.1221Z" fill="#FDAE05"/>
<path d="M174.229 26.042C174.229 25.598 174.148 26.264 173.986 28.04C173.764 30.2803 173.593 33.1462 173.472 36.6377C173.31 40.5934 173.229 45.0941 173.229 50.1396C173.229 58.4749 173.462 64.4085 173.926 67.9404C173.966 68.3239 173.986 68.5661 173.986 68.667C173.986 68.889 173.835 69.0202 173.532 69.0605C172.806 69.1615 170.132 69.2119 165.51 69.2119C164.42 69.2119 163.794 69 163.633 68.5762C163.592 67.8092 163.552 67.0423 163.512 66.2754C163.492 66.1139 163.411 65.9525 163.27 65.791C163.148 65.8516 162.997 65.9727 162.815 66.1543C160.636 68.2936 157.911 69.3633 154.642 69.3633C150.383 69.3633 146.972 67.8698 144.409 64.8828C141.967 62.0371 140.746 58.4447 140.746 54.1055C140.746 49.7057 141.947 46.083 144.349 43.2373C146.892 40.21 150.323 38.6963 154.642 38.6963C157.689 38.6963 160.061 39.665 161.756 41.6025C162.038 41.9255 162.24 42.0869 162.361 42.0869C162.543 42.0869 162.634 41.8245 162.634 41.2998C162.634 39.7458 162.593 37.4248 162.513 34.3369C162.432 31.249 162.392 28.9382 162.392 27.4043C162.392 26.819 162.553 26.486 162.876 26.4053C164.168 26.3447 165.944 26.2236 168.204 26.042C172.241 25.5374 174.027 25.2852 173.562 25.2852C174.007 25.2852 174.229 25.5374 174.229 26.042ZM162.815 53.8633C162.815 52.2689 162.26 50.8763 161.15 49.6855C160.04 48.4746 158.698 47.8691 157.124 47.8691C155.469 47.8691 154.147 48.4746 153.158 49.6855C152.189 50.8763 151.705 52.3092 151.705 53.9844C151.705 55.6191 152.2 57.0016 153.188 58.1318C154.198 59.3428 155.509 59.9482 157.124 59.9482C158.739 59.9482 160.091 59.3428 161.181 58.1318C162.271 56.9209 162.815 55.498 162.815 53.8633Z" fill="#FDAE05"/>
<path d="M196.419 44.5088C196.419 44.7106 196.268 44.9831 195.965 45.3262C195.4 45.1849 194.835 45.1143 194.27 45.1143C193.079 45.1143 192.08 45.3766 191.272 45.9014C190.304 46.5068 189.819 47.3646 189.819 48.4746C189.819 49.181 190.334 50.0791 191.363 51.1689C192.917 52.8037 193.876 53.9036 194.239 54.4688C195.269 56.0026 195.783 57.6475 195.783 59.4033C195.783 60.4326 195.581 61.5225 195.178 62.6729C194.714 63.9443 194.128 64.8727 193.422 65.458C191.928 66.7497 190.183 67.8395 188.185 68.7275C186.025 69.6559 184.037 70.1201 182.221 70.1201C181.817 70.1201 180.909 69.0303 179.496 66.8506C178.104 64.6507 177.407 63.3086 177.407 62.8242C177.407 62.6426 177.518 62.5316 177.74 62.4912C179.153 62.2288 180.576 61.9665 182.009 61.7041C183.785 61.139 184.673 60.2106 184.673 58.9189C184.673 58.0309 184.158 57.0016 183.129 55.8311C181.292 53.7926 180.334 52.7129 180.253 52.5918C179.224 51.1387 178.709 49.6048 178.709 47.9902C178.709 44.9629 180.243 42.3896 183.311 40.2705C186.055 38.3936 188.992 37.4551 192.12 37.4551C192.443 37.4551 193.24 38.5449 194.512 40.7246C195.783 42.8841 196.419 44.1455 196.419 44.5088Z" fill="#FDAE05"/>
<path d="M122.086 0L128.067 11.7198L141.062 13.7865L131.764 23.0964L133.814 36.0934L122.086 30.1275L110.359 36.0934L112.409 23.0964L103.111 13.7865L116.105 11.7198L122.086 0Z" fill="url(#paint0_linear)"/>
<path d="M95.7502 14.3656L98.6211 19.9911L104.858 20.9831L100.395 25.4519L101.379 31.6905L95.7502 28.8268L90.121 31.6905L91.105 25.4519L86.642 20.9831L92.8793 19.9911L95.7502 14.3656Z" fill="url(#paint1_linear)"/>
<path d="M81.3846 23.9423L83.2986 27.6926L87.4568 28.354L84.4814 31.3331L85.1374 35.4922L81.3846 33.5831L77.6318 35.4922L78.2878 31.3331L75.3125 28.354L79.4707 27.6926L81.3846 23.9423Z" fill="url(#paint2_linear)"/>
<path d="M148.423 14.3656L151.294 19.9911L157.531 20.9831L153.068 25.4519L154.052 31.6905L148.423 28.8268L142.794 31.6905L143.778 25.4519L139.315 20.9831L145.552 19.9911L148.423 14.3656Z" fill="#FDAE05"/>
<defs>
<linearGradient id="paint0_linear" x1="122.086" y1="0" x2="122.086" y2="39.9039" gradientUnits="userSpaceOnUse">
<stop offset="0.869792" stop-color="#FDAE05"/>
<stop offset="1" stop-color="#B97F05"/>
</linearGradient>
<linearGradient id="paint1_linear" x1="95.7502" y1="14.3656" x2="95.7502" y2="33.5195" gradientUnits="userSpaceOnUse">
<stop offset="0.869792" stop-color="#FDAE05"/>
<stop offset="1" stop-color="#B97F05"/>
</linearGradient>
<linearGradient id="paint2_linear" x1="81.3846" y1="23.9423" x2="81.3846" y2="36.7116" gradientUnits="userSpaceOnUse">
<stop offset="0.869792" stop-color="#FDAE05"/>
<stop offset="1" stop-color="#B97F05"/>
</linearGradient>
</defs>
</svg>
