<svg width="60" height="60" viewBox="0 0 60 60" fill="none" xmlns="http://www.w3.org/2000/svg">
<path d="M30 60C46.5685 60 60 46.5685 60 30C60 13.4315 46.5685 0 30 0C13.4315 0 0 13.4315 0 30C0 46.5685 13.4315 60 30 60Z" fill="#00384F"/>
<path d="M42.4 32.9H33.32L34.93 36.56H39.67L42.4 32.9ZM46.78 26.04H30.3L31.91 29.7H44.04L46.78 26.04Z" fill="#009A61"/>
<path d="M30.26 16L17.46 43.97H22.33L30.25 25.93L38.18 44H43.06L30.26 16Z" fill="white"/>
<path d="M13.22 26.04L15.9 29.7H31.91L30.3 26.04H13.22ZM18.09 32.9L20.77 36.56H34.92L33.31 32.9H18.09V32.9Z" fill="#009A61"/>
</svg>
