<svg width="24" height="24" viewBox="0 0 24 24" fill="none" xmlns="http://www.w3.org/2000/svg"><path fill-rule="evenodd" clip-rule="evenodd" d="M5.61 7.574c0-.987-.744-1.787-1.662-1.787-.86.002-1.576.707-1.653 1.628-.082.983.593 1.851 1.507 1.94l.983 8.099c.004.03.011.058.021.085.346 1.453 3.92 2.21 7.453 2.21 3.533 0 7.107-.757 7.454-2.209a.474.474 0 00.021-.086l.983-8.1c.858-.08 1.517-.854 1.517-1.78 0-.987-.745-1.787-1.663-1.787s-1.662.8-1.662 1.787c0 .188.028.374.083.552l-1.349.92c-.887.608-2.057.407-2.724-.468L13.598 6.84c.21-.305.324-.674.324-1.053C13.922 4.8 13.178 4 12.259 4c-.918 0-1.662.8-1.662 1.787 0 .38.114.748.324 1.053L9.6 8.578c-.667.875-1.837 1.077-2.725.469l-1.348-.921a1.89 1.89 0 00.083-.552z" fill="url(#paint0_linear)"/><path d="M14.63 11.74c.39 0 .707-.309.707-.69a.699.699 0 00-.707-.69c-.39 0-.707.309-.707.69 0 .381.316.69.707.69z" fill="#fff"/><path d="M12.26 19.368c-3.72 0-6.735-.814-6.735-1.817 0-1.004 3.016-1.817 6.735-1.817 3.72 0 6.735.813 6.735 1.817 0 1.003-3.015 1.817-6.735 1.817z" fill="url(#paint1_linear)"/><mask id="a" maskUnits="userSpaceOnUse" x="2" y="4" width="21" height="14"><path d="M3.948 5.787c.918 0 1.662.8 1.662 1.787 0 .188-.028.374-.083.552l1.348.92c.888.609 2.058.407 2.725-.468L10.92 6.84a1.857 1.857 0 01-.324-1.053C10.597 4.8 11.341 4 12.26 4c.919 0 1.663.8 1.663 1.787 0 .38-.114.748-.324 1.053l1.321 1.738c.667.875 1.837 1.076 2.724.469l1.349-.921a1.888 1.888 0 01-.083-.552c0-.987.744-1.787 1.662-1.787.918 0 1.662.8 1.663 1.787 0 .926-.659 1.7-1.517 1.78l-.983 8.1a.426.426 0 01-.41.373H5.194a.426.426 0 01-.41-.373l-.982-8.1c-.914-.088-1.59-.956-1.507-1.94.077-.92.793-1.625 1.653-1.627z" fill="#FFC107"/></mask><g mask="url(#a)"><path fill-rule="evenodd" clip-rule="evenodd" d="M18.412 13.309c-1.613-.553-3.788-.88-6.151-.88s-4.538.327-6.151.88c-.803.275-1.512.621-2.036 1.046-.52.42-.955 1.003-.955 1.735h1.662c0-.054.03-.221.352-.482.317-.256.825-.523 1.526-.764 1.395-.477 3.375-.788 5.602-.788 2.227 0 4.207.31 5.602.789.701.24 1.21.507 1.526.763.322.261.352.428.352.482h1.662c0-.732-.435-1.315-.955-1.735-.524-.425-1.233-.77-2.036-1.046z" fill="url(#paint2_linear)"/></g><defs><linearGradient id="paint0_linear" x1="5.612" y1="7.223" x2="26.956" y2="29.236" gradientUnits="userSpaceOnUse"><stop offset=".146" stop-color="#FFDF38"/><stop offset="1" stop-color="#FF04E6" stop-opacity=".6"/></linearGradient><linearGradient id="paint1_linear" x1="18.549" y1="16.415" x2="6.231" y2="19.602" gradientUnits="userSpaceOnUse"><stop offset=".029" stop-color="#FCF200" stop-opacity=".9"/><stop offset="1" stop-color="#F7FC00" stop-opacity="0"/></linearGradient><linearGradient id="paint2_linear" x1="3.119" y1="11.616" x2="22.619" y2="15.431" gradientUnits="userSpaceOnUse"><stop stop-color="#F76EF1"/><stop offset="1" stop-color="#FFCE20" stop-opacity="0"/></linearGradient></defs></svg>