<svg width="191" height="116" viewBox="0 0 191 116" fill="none" xmlns="http://www.w3.org/2000/svg">
<g opacity="0.4" clip-path="url(#clip0)">
<path d="M88.7413 94.2355L87.8711 93.5031L128.062 45.5986L128.909 46.3081L88.7413 94.2355Z" fill="#545DA7"/>
<path d="M88.0109 96.5011L14.1787 73.2241L14.4993 72.1484L88.3315 95.4254L88.0109 96.5011Z" fill="#545DA7"/>
<path d="M1.10263 71.8964C1.56065 64.5951 7.88127 59.0562 15.1866 59.514C22.492 59.9717 28.034 66.2888 27.576 73.5901C27.1179 80.8913 20.7973 86.4302 13.492 85.9725C6.18661 85.5147 0.644619 79.1976 1.10263 71.8964Z" fill="#77C5CD"/>
<path d="M87.8456 93.0219L59.3799 18.0411L60.4104 17.652L88.899 92.6328L87.8456 93.0219Z" fill="#545DA7"/>
<path d="M128.269 46.4677L61.0322 18.4529L61.4444 17.4229L128.704 45.4377L128.269 46.4677Z" fill="#545DA7"/>
<path d="M127.335 46.3771L126.831 45.37L194.503 12.0681L194.984 13.0751L127.335 46.3771Z" fill="#545DA7"/>
<path d="M199.327 90.1384L128.197 46.4453L128.77 45.484L199.9 89.1771L199.327 90.1384Z" fill="#545DA7"/>
<path d="M107.8 41.1816C108.625 28.2499 119.8 18.4309 132.739 19.2549C145.678 20.0789 155.503 31.2482 154.678 44.1799C153.854 57.1116 142.678 66.9305 129.739 66.1065C116.8 65.2826 106.976 54.1132 107.8 41.1816Z" fill="#FBB345"/>
<path d="M43.9364 17.1253C44.5547 7.32929 53.028 -0.0864034 62.8067 0.531571C72.6082 1.14955 80.0281 9.61808 79.4097 19.3912C78.7914 29.1873 70.3181 36.603 60.5395 35.985C50.7379 35.367 43.3181 26.8985 43.9364 17.1253Z" fill="#545DA7"/>
<path d="M181.742 11.7468C182.2 4.55998 188.407 -0.887351 195.575 -0.406704C202.765 0.0510543 208.216 6.25369 207.735 13.4176C207.277 20.6044 201.071 26.0518 193.903 25.5711C186.712 25.1133 181.262 18.9107 181.742 11.7468Z" fill="#F05657"/>
<path d="M163.646 79.4036C164.883 60.1549 181.509 45.5295 200.768 46.7654C220.028 48.0014 234.662 64.618 233.425 83.8668C232.188 103.116 215.562 117.741 196.303 116.505C177.043 115.269 162.41 98.6524 163.646 79.4036Z" fill="#77C5CD"/>
<path d="M66.5552 85.9958C67.2651 75.124 76.6545 66.8615 87.5323 67.571C98.4102 68.2805 106.677 77.6646 105.967 88.5363C105.258 99.4081 95.8682 107.671 84.9903 106.961C74.1125 106.252 65.8453 96.8675 66.5552 85.9958Z" fill="#F05657"/>
<path d="M13.6553 84.4391C16.9072 84.6451 19.9301 83.5236 22.1973 81.5323C21.8995 80.4108 21.5331 79.3122 21.1209 78.2822C20.411 76.5427 19.1056 75.1466 17.5026 74.3455C17.5255 74.3226 17.5255 74.2997 17.5484 74.2768C18.2354 73.1553 18.4644 71.8507 18.4415 70.5919C18.4415 69.3788 18.2125 68.1429 17.4797 67.1358C16.7469 66.1287 15.3957 65.3734 14.0217 65.4879C12.5331 65.6252 11.3423 66.7238 10.8385 67.9369C10.3346 69.1499 10.3804 70.5003 10.472 71.7821C10.5407 72.6976 10.7927 73.6589 11.2507 74.437C10.2659 75.0321 9.41861 75.879 8.59418 76.9547C7.74685 78.0533 7.79265 78.0991 7.24303 79.3808C6.99112 80.0217 6.71631 80.6626 6.4873 81.3721C8.38807 83.1116 10.8843 84.2331 13.6553 84.4162V84.4391Z" fill="#FEFEFE"/>
<path d="M61.0116 33.5595C65.2941 33.8341 69.3017 32.3464 72.3017 29.7143C71.9124 28.2266 71.4315 26.7846 70.8819 25.4114C69.9429 23.1226 68.2025 21.2686 66.0956 20.2158C66.1185 20.1929 66.1414 20.17 66.1414 20.1471C67.0575 18.6594 67.3323 16.9428 67.3323 15.272C67.3094 13.6698 67.0345 12.0448 66.0498 10.6944C65.088 9.34403 63.3017 8.35984 61.4697 8.52006C59.5002 8.70316 57.9429 10.1451 57.2559 11.7701C56.5918 13.3952 56.6605 15.1576 56.775 16.8513C56.8666 18.0872 57.2101 19.3232 57.7826 20.3531C56.5002 21.1313 55.3551 22.2757 54.2559 23.6719C53.1338 25.1138 53.1796 25.1825 52.4925 26.8762C52.149 27.7001 51.8055 28.5699 51.5078 29.5312C54.0269 31.82 57.3246 33.3077 60.9887 33.5595H61.0116Z" fill="#FEFEFE"/>
<path d="M85.2685 104.81C89.8716 105.107 94.1769 103.505 97.406 100.69C96.9937 99.0877 96.467 97.5313 95.8716 96.0665C94.864 93.5946 92.9861 91.6262 90.7189 90.4818C90.7418 90.459 90.7647 90.4361 90.7876 90.3903C91.7724 88.7881 92.0701 86.9571 92.0701 85.149C92.0472 83.4324 91.7495 81.67 90.696 80.228C89.6426 78.7861 87.7418 77.7333 85.7724 77.8935C83.6655 78.0766 81.9708 79.633 81.238 81.3724C80.5281 83.1119 80.5968 85.0116 80.7342 86.8427C80.8258 88.1702 81.1922 89.4977 81.8334 90.6192C80.4365 91.466 79.2227 92.6791 78.0548 94.1897C76.8639 95.7461 76.9097 95.8147 76.154 97.6229C75.7876 98.5155 75.4212 99.4539 75.1006 100.461C77.8258 102.933 81.3525 104.535 85.2914 104.787L85.2685 104.81Z" fill="#FEFEFE"/>
<path d="M130.073 62.9243C135.638 63.2905 140.836 61.3451 144.707 57.9348C144.203 56.0122 143.584 54.1354 142.852 52.3501C141.638 49.3747 139.371 46.9943 136.623 45.6211C136.646 45.5982 136.668 45.5524 136.691 45.5295C137.882 43.6069 138.249 41.3868 138.226 39.2124C138.203 37.1525 137.836 35.0239 136.577 33.2616C135.317 31.5221 133.004 30.2404 130.646 30.4464C128.104 30.6752 126.042 32.552 125.172 34.6577C124.302 36.7634 124.394 39.0522 124.554 41.2495C124.668 42.8287 125.104 44.4538 125.882 45.8042C124.21 46.8112 122.722 48.2989 121.302 50.13C119.859 52.0068 119.905 52.0754 119.012 54.2956C118.554 55.3713 118.119 56.4928 117.729 57.7288C121.004 60.7042 125.264 62.6497 130.027 62.9472L130.073 62.9243Z" fill="#FEFEFE"/>
<path d="M194.063 23.3966C197.246 23.6026 200.224 22.504 202.445 20.5356C202.147 19.437 201.804 18.3612 201.392 17.3542C200.705 15.6376 199.399 14.2872 197.842 13.509C197.865 13.4861 197.865 13.4632 197.888 13.4632C198.575 12.3646 198.781 11.0829 198.758 9.84693C198.758 8.65675 198.529 7.44369 197.819 6.43662C197.086 5.42956 195.781 4.69714 194.43 4.83447C192.964 4.9718 191.796 6.04753 191.292 7.2377C190.788 8.42788 190.834 9.75538 190.949 11.0142C191.017 11.9297 191.269 12.8452 191.705 13.6234C190.743 14.1956 189.895 15.0425 189.094 16.0953C188.269 17.1711 188.292 17.2168 187.788 18.4757C187.537 19.0937 187.285 19.7345 187.056 20.444C188.934 22.1377 191.361 23.2593 194.109 23.4195L194.063 23.3966Z" fill="#FEFEFE"/>
<path d="M196.649 113.141C205.649 113.713 214.031 110.6 220.329 105.084C219.504 101.971 218.497 98.9273 217.352 96.0663C215.382 91.2369 211.741 87.3918 207.298 85.1716C207.344 85.1258 207.367 85.0572 207.413 85.0114C209.336 81.8986 209.932 78.3052 209.909 74.7805C209.886 71.4389 209.268 67.9828 207.23 65.1676C205.191 62.3523 201.481 60.2695 197.634 60.6358C193.512 61.002 190.214 64.0461 188.794 67.4335C187.397 70.8209 187.535 74.5287 187.81 78.0992C188.016 80.6627 188.703 83.2719 189.939 85.4463C187.237 87.0713 184.833 89.4746 182.542 92.4271C180.207 95.4483 180.298 95.5856 178.833 99.1562C178.1 100.896 177.39 102.727 176.771 104.718C182.062 109.524 188.978 112.66 196.672 113.164L196.649 113.141Z" fill="#FEFEFE"/>
</g>
<defs>
<clipPath id="clip0">
<rect width="191" height="116" fill="white"/>
</clipPath>
</defs>
</svg>
