<svg width="49" height="52" viewBox="0 0 49 52" fill="none" xmlns="http://www.w3.org/2000/svg">
<path d="M21.9599 28.5393C18.4722 24.8564 18.4726 18.8967 21.9609 15.2142L33.2936 3.25059C36.7881 -0.438439 42.4524 -0.438405 45.9469 3.25064C49.4356 6.93353 49.4356 12.894 45.947 16.5769L35.1313 27.9945C35.1309 27.9949 35.1306 27.9953 35.1302 27.9957C35.0452 28.0876 34.9432 28.1616 34.8298 28.2126C34.7159 28.2639 34.593 28.291 34.4684 28.2919C34.3439 28.2928 34.2206 28.2676 34.106 28.2179C33.9913 28.1683 33.888 28.0954 33.8015 28.0042C33.7151 27.9129 33.6473 27.8051 33.6014 27.6871L33.7878 27.6147L33.6014 27.6871C33.5556 27.5691 33.5325 27.4431 33.5334 27.3161C33.5342 27.1892 33.5589 27.0635 33.6063 26.9462C33.6535 26.8293 33.7224 26.7228 33.8096 26.633C33.8099 26.6326 33.8103 26.6323 33.8107 26.6319L44.6263 15.2142C47.4159 12.2693 47.4159 7.55821 44.6263 4.6133C41.8425 1.67453 37.398 1.67453 34.6142 4.6133L23.2816 16.5768C20.4922 19.5214 20.4919 24.2318 23.2807 27.1767C23.3679 27.2665 23.4368 27.373 23.4841 27.4899C23.5315 27.6072 23.5563 27.733 23.5571 27.8599C23.558 27.9869 23.535 28.113 23.4891 28.231C23.4433 28.349 23.3754 28.4569 23.289 28.5481C23.2025 28.6394 23.0991 28.7123 22.9844 28.7619C22.8698 28.8115 22.7465 28.8368 22.6219 28.8359C22.4973 28.8349 22.3744 28.8078 22.2604 28.7565C22.147 28.7054 22.045 28.6314 21.9599 28.5393ZM21.9599 28.5393C21.9596 28.539 21.9593 28.5386 21.959 28.5383L22.1061 28.4028L21.9599 28.5393ZM3.41653 48.1171L3.56173 47.9796L3.41653 48.1171C6.91102 51.8061 12.5753 51.8061 16.0699 48.1171L15.9247 47.9796L16.0699 48.1171L27.4025 36.1535C30.8909 32.471 30.8912 26.5113 27.4035 22.8283C27.3184 22.7364 27.2164 22.6624 27.1029 22.6114C26.989 22.5602 26.8661 22.5332 26.7416 22.5323C26.617 22.5315 26.4938 22.5568 26.3793 22.6064C26.2648 22.656 26.1615 22.7288 26.075 22.82C25.9886 22.9113 25.9208 23.0192 25.8749 23.137C25.8291 23.255 25.806 23.381 25.8068 23.5078C25.8076 23.6347 25.8323 23.7604 25.8796 23.8777C25.9268 23.9946 25.9956 24.1011 26.0827 24.1909C28.8715 27.1359 28.8713 31.8463 26.0819 34.7909L14.7492 46.7544L14.8944 46.8919L14.7492 46.7544C11.9654 49.6932 7.52098 49.6932 4.73716 46.7545C1.94754 43.8095 1.94754 39.0984 4.73718 36.1536L15.5529 24.7357C15.5532 24.7354 15.5535 24.7351 15.5538 24.7347C15.641 24.6449 15.7098 24.5384 15.757 24.4215C15.8043 24.3042 15.829 24.1785 15.8298 24.0516C15.8305 23.9248 15.8075 23.7987 15.7617 23.6808C15.7158 23.5629 15.648 23.4551 15.5616 23.3639C15.4752 23.2727 15.3719 23.1998 15.2573 23.1502C15.1427 23.1005 15.0195 23.0753 14.895 23.0762C14.7705 23.077 14.6476 23.104 14.5337 23.1552C14.4203 23.2062 14.3183 23.2801 14.2332 23.372C14.2329 23.3724 14.2326 23.3727 14.2323 23.373L3.41652 34.7908C-0.0721773 38.4737 -0.0721745 44.4342 3.41653 48.1171Z" fill="#F5BD35" stroke="#F5BD35" stroke-width="0.4"/>
</svg>
