<svg width="12" height="12" xmlns="http://www.w3.org/2000/svg">
  <path d="M10.1393 2.8857a.657.657 0 0 0 .2836-.1438.5912.5912 0 0 0 .1998-.4164.5924.5924 0 0 0-.1598-.4337.581.581 0 0 0-.4125-.2012.58.58 0 0 0-.4292.1618.6015.6015 0 0 0-.2006.4236.6025.6025 0 0 0 .1635.4396c.1273.1518.3457.2156.5552.17zM7.4766 1.3332a.6155.6155 0 0 0 .3167.0152c.2665-.0567.4623-.2866.478-.561.0157-.2746-.1526-.5258-.4108-.613-.316-.0989-.653.0705-.7657.3846-.0952.3248.0702.6618.3808.7742h.001zm-.2294 10.5333c1.5564-.3337 2.9179-1.2783 3.7846-2.626.8668-1.3475 1.168-2.9877.8371-4.5595a.6053.6053 0 0 0-.26-.3844.5944.5944 0 0 0-.4535-.0842.5992.5992 0 0 0-.38.263.6102.6102 0 0 0-.083.4576c.548 2.6165-1.105 5.187-3.6948 5.7454-2.5904.5535-5.1356-1.1154-5.689-3.7304C.76 4.3312 2.4133 1.76 5.0035 1.2016A.5992.5992 0 0 0 5.383.939a.6102.6102 0 0 0 .0834-.457.6053.6053 0 0 0-.2597-.384.5944.5944 0 0 0-.4528-.0845C1.513.7088-.5563 3.9259.1322 7.199c.6885 3.2731 3.874 5.3628 7.115 4.6675z" fill="#fdcd2d" fill-rule="nonzero"/>
</svg>
