<svg width="68" height="51" viewBox="0 0 68 51" fill="none" xmlns="http://www.w3.org/2000/svg">
<path d="M0.225576 50.1216C0.438728 50.4218 0.772591 50.5985 1.12794 50.5985H66.5376C66.8946 50.5985 67.2299 50.4203 67.4422 50.118C67.6559 49.8166 67.7204 49.4265 67.6183 49.066L64.2348 37.161C64.0926 36.6567 63.6527 36.312 63.1546 36.312H58.355L55.2128 25.2551C55.0701 24.751 54.6308 24.4067 54.1327 24.4067H49.3328L46.1903 13.3501C46.0481 12.846 45.6083 12.5007 45.1102 12.5007H22.5551C22.0573 12.5007 21.6179 12.846 21.4746 13.3501L18.333 24.4067H13.5332C13.035 24.4067 12.5955 24.751 12.453 25.2551L9.31111 36.312H4.51066C4.01312 36.312 3.57353 36.6567 3.43049 37.161L0.0471956 49.066C-0.0551399 49.4274 0.0110107 49.8199 0.225576 50.1216ZM20.6879 48.2176L23.3941 38.6929H32.9936L35.7007 48.2176H20.6879ZM19.1718 45.2646L17.3043 38.6929H21.0395L19.1718 45.2646ZM42.0161 26.7872L44.7226 36.312H29.7101L32.4163 26.7872H42.0161ZM39.084 38.6929L37.2159 45.2646L35.3487 38.6929H39.084ZM28.1937 33.3593L26.3268 26.7872H30.062L28.1937 33.3593ZM38.7317 48.2176L41.4385 38.6929H51.038L53.7451 48.2176H38.7317ZM65.0223 48.2176H56.0994L53.3931 38.6929H62.3161L65.0223 48.2176ZM56.0001 36.312H47.0772L44.3709 26.7872H53.2939L56.0001 36.312ZM46.9785 24.4067H38.055L35.3487 14.8822H44.2717L46.9785 24.4067ZM23.3941 14.8822H32.9936L35.7007 24.4067H20.6879L23.3941 14.8822ZM14.3719 26.7872H23.9717L26.6782 36.312H11.6657L14.3719 26.7872ZM5.35027 38.6929H14.95L17.6563 48.2176H2.64375L5.35027 38.6929Z" fill="#F5BD35"/>
<path d="M14.6777 11.5052C14.7699 12.0779 15.2397 12.4974 15.7898 12.4974C16.3405 12.4974 16.8101 12.0779 16.9022 11.5052C17.2087 9.56596 18.6484 8.04545 20.486 7.72165C21.0284 7.62466 21.4262 7.12896 21.4262 6.54792C21.4262 5.96687 21.0284 5.47088 20.486 5.37359C18.6484 5.04979 17.2087 3.52988 16.9022 1.59067C16.8101 1.01739 16.3405 0.598389 15.7898 0.598389C15.2397 0.598389 14.7699 1.01739 14.6777 1.59067C14.371 3.52988 12.9312 5.04979 11.0943 5.37359C10.5512 5.47088 10.1543 5.96687 10.1543 6.54792C10.1543 7.12896 10.5512 7.62466 11.0943 7.72165C12.9312 8.04545 14.371 9.56596 14.6777 11.5052ZM15.7898 4.84775C16.23 5.50908 16.7745 6.08356 17.4006 6.54792C16.7745 7.01228 16.23 7.58736 15.7898 8.24808C15.3502 7.58736 14.8052 7.01228 14.1799 6.54792C14.8052 6.08356 15.3502 5.50908 15.7898 4.84775Z" fill="#F5BD35"/>
</svg>
