<svg width="135" height="139" viewBox="0 0 135 139" fill="none" xmlns="http://www.w3.org/2000/svg">
<g opacity="0.4" clip-path="url(#clip0)">
<path d="M11.9561 124.949H230.243C236.816 124.949 242.144 117.912 242.144 109.233V16.119C242.144 7.43854 236.816 0.402465 230.243 0.402465H11.9561C5.38454 0.402465 0.0556641 7.43854 0.0556641 16.119V109.233C0.0556641 117.912 5.38454 124.949 11.9561 124.949Z" fill="#3B5D8D"/>
<path d="M25.7651 19.6229L27.1708 22.4821C27.2611 22.666 27.436 22.7925 27.637 22.8224L30.7812 23.2808C31.2878 23.3548 31.4912 23.9804 31.1237 24.3397L28.8488 26.5662C28.7025 26.7083 28.6359 26.9136 28.6704 27.1153L29.2079 30.2587C29.2947 30.766 28.7643 31.1528 28.31 30.9129L25.4987 29.429C25.318 29.3335 25.1027 29.3335 24.9232 29.429L22.1107 30.9129C21.6576 31.1528 21.1272 30.766 21.214 30.2587L21.7503 27.1153C21.7848 26.9136 21.7182 26.7083 21.5732 26.5662L19.2982 24.3397C18.9307 23.9804 19.1329 23.3548 19.6407 23.2808L22.785 22.8224C22.9859 22.7925 23.1595 22.666 23.2499 22.4821L24.6556 19.6229C24.8827 19.1609 25.5392 19.1609 25.7651 19.6229Z" fill="#ECC10C"/>
<path d="M42.7592 19.6229L44.1649 22.4821C44.2553 22.666 44.4289 22.7925 44.6311 22.8224L47.7742 23.2808C48.2819 23.3548 48.4841 23.9804 48.1179 24.3397L45.8429 26.5662C45.6966 26.7083 45.63 26.9136 45.6645 27.1153L46.202 30.2587C46.2888 30.766 45.7585 31.1528 45.3042 30.9129L42.4929 29.429C42.3121 29.3335 42.0968 29.3335 41.9161 29.429L39.1048 30.9129C38.6517 31.1528 38.1213 30.766 38.2069 30.2587L38.7445 27.1153C38.7789 26.9136 38.7124 26.7083 38.5661 26.5662L36.2923 24.3397C35.9249 23.9804 36.127 23.3548 36.6348 23.2808L39.7779 22.8224C39.98 22.7925 40.1537 22.666 40.2441 22.4821L41.6497 19.6229C41.8768 19.1609 42.5321 19.1609 42.7592 19.6229Z" fill="#ECC10C"/>
<path d="M59.7537 19.6229L61.1594 22.4821C61.2498 22.666 61.4234 22.7925 61.6256 22.8224L64.7687 23.2808C65.2764 23.3548 65.4786 23.9804 65.1111 24.3397L62.8362 26.5662C62.6911 26.7083 62.6245 26.9136 62.659 27.1153L63.1953 30.2587C63.2821 30.766 62.7517 31.1528 62.2987 30.9129L59.4862 29.429C59.3066 29.3335 59.0913 29.3335 58.9106 29.429L56.0993 30.9129C55.645 31.1528 55.1146 30.766 55.2014 30.2587L55.739 27.1153C55.7734 26.9136 55.7068 26.7083 55.5606 26.5662L53.2856 24.3397C52.9193 23.9804 53.1215 23.3548 53.6293 23.2808L56.7724 22.8224C56.9733 22.7925 57.1482 22.666 57.2385 22.4821L58.6442 19.6229C58.8713 19.1609 59.5266 19.1609 59.7537 19.6229Z" fill="#ECC10C"/>
<path d="M76.7463 19.6229L78.1531 22.4821C78.2423 22.666 78.4171 22.7925 78.6181 22.8224L81.7624 23.2808C82.269 23.3548 82.4723 23.9804 82.1049 24.3397L79.8299 26.5662C79.6848 26.7083 79.6182 26.9136 79.6527 27.1153L80.189 30.2587C80.2759 30.766 79.7455 31.1528 79.2912 30.9129L76.4799 29.429C76.2991 29.3335 76.0839 29.3335 75.9043 29.429L73.093 30.9129C72.6387 31.1528 72.1084 30.766 72.1952 30.2587L72.7315 27.1153C72.766 26.9136 72.6994 26.7083 72.5543 26.5662L70.2793 24.3397C69.9119 23.9804 70.1152 23.3548 70.6218 23.2808L73.7661 22.8224C73.9671 22.7925 74.1419 22.666 74.2311 22.4821L75.6367 19.6229C75.8639 19.1609 76.5203 19.1609 76.7463 19.6229Z" fill="#ECC10C"/>
<path d="M93.7397 19.6229L95.1454 22.4821C95.2358 22.666 95.4106 22.7925 95.6116 22.8224L98.7547 23.2808C99.2625 23.3548 99.4646 23.9804 99.0983 24.3397L96.8234 26.5662C96.6771 26.7083 96.6105 26.9136 96.645 27.1153L97.1825 30.2587C97.2693 30.766 96.739 31.1528 96.2847 30.9129L93.4733 29.429C93.2926 29.3335 93.0774 29.3335 92.8978 29.429L90.0853 30.9129C89.6322 31.1528 89.1018 30.766 89.1886 30.2587L89.7249 27.1153C89.7594 26.9136 89.6928 26.7083 89.5466 26.5662L87.2728 24.3397C86.9053 23.9804 87.1075 23.3548 87.6153 23.2808L90.7584 22.8224C90.9606 22.7925 91.1342 22.666 91.2246 22.4821L92.6302 19.6229C92.8574 19.1609 93.5126 19.1609 93.7397 19.6229Z" fill="white"/>
<path d="M139.392 70.8228H21.5589C20.2068 70.8228 19.1104 69.7222 19.1104 68.3648C19.1104 67.0074 20.2068 65.9079 21.5589 65.9079H139.392C140.744 65.9079 141.841 67.0074 141.841 68.3648C141.841 69.7222 140.744 70.8228 139.392 70.8228Z" fill="white"/>
<path d="M139.392 50.904H21.5589C20.2068 50.904 19.1104 49.8044 19.1104 48.4471C19.1104 47.0897 20.2068 45.989 21.5589 45.989H139.392C140.744 45.989 141.841 47.0897 141.841 48.4471C141.841 49.8044 140.744 50.904 139.392 50.904Z" fill="white"/>
<path d="M139.392 60.864H21.5589C20.2068 60.864 19.1104 59.7633 19.1104 58.4059C19.1104 57.0485 20.2068 55.9479 21.5589 55.9479H139.392C140.744 55.9479 141.841 57.0485 141.841 58.4059C141.841 59.7633 140.744 60.864 139.392 60.864Z" fill="white"/>
<path d="M139.392 80.7817H21.5589C20.2068 80.7817 19.1104 79.681 19.1104 78.3248C19.1104 76.9674 20.2068 75.8667 21.5589 75.8667H139.392C140.744 75.8667 141.841 76.9674 141.841 78.3248C141.841 79.681 140.744 80.7817 139.392 80.7817Z" fill="white"/>
<path d="M104.998 90.7405H21.5589C20.2068 90.7405 19.1104 89.641 19.1104 88.2837C19.1104 86.9263 20.2068 85.8256 21.5589 85.8256H104.998C106.35 85.8256 107.445 86.9263 107.445 88.2837C107.445 89.641 106.35 90.7405 104.998 90.7405Z" fill="white"/>
<path d="M57.7492 124.962L39.452 138.145C37.7538 139.369 35.3896 138.151 35.3896 136.054V124.962H57.7492Z" fill="#3B5D8D"/>
</g>
<defs>
<clipPath id="clip0">
<rect width="135" height="139" fill="white"/>
</clipPath>
</defs>
</svg>
