<svg width="70" height="130" viewBox="0 0 70 130" fill="none" xmlns="http://www.w3.org/2000/svg">
<g clip-path="url(#clip0)">
<path d="M0.0262552 111.641C0.0262552 111.641 0.0262552 111.641 0.0262552 111.64C0.0262552 111.641 0.0262552 111.641 0.0262552 111.641ZM0.0244038 111.615C0.0237874 111.607 0.0237861 111.599 0.0231696 111.591C0.0237861 111.599 0.0237874 111.607 0.0244038 111.615ZM0.0231696 111.589C0.00837366 111.349 0.000976562 111.099 0.000976562 110.839C0.000976562 111.099 0.00837366 111.349 0.0231696 111.589ZM2.3073 101.169C6.49395 92.8602 14.9166 86.4727 14.9166 60.0298V45.2825C14.9166 45.2677 14.9166 45.2529 14.9166 45.2375C14.9166 45.2535 14.9166 45.2671 14.9166 45.2825V60.0298C14.9166 86.4727 6.49395 92.8602 2.3073 101.169ZM14.9166 45.2245C14.9166 45.2134 14.9166 45.203 14.9166 45.1919C14.9166 45.2023 14.9166 45.2147 14.9166 45.2245ZM14.9166 45.1777C14.9166 45.166 14.9166 45.1543 14.9166 45.1425C14.9166 45.1536 14.9166 45.1666 14.9166 45.1777ZM14.9166 45.1321C14.9172 45.1173 14.9172 45.1031 14.9172 45.0883C14.9172 45.1025 14.9172 45.1179 14.9166 45.1321ZM14.9172 45.076C14.9172 45.0649 14.9172 45.0544 14.9172 45.0433C14.9172 45.0538 14.9172 45.0655 14.9172 45.076ZM14.9178 45.0279C14.9178 45.0168 14.9178 45.0075 14.9178 44.9964C14.9178 45.0069 14.9178 45.0174 14.9178 45.0279ZM14.9178 44.9822C14.9178 44.9681 14.9184 44.9533 14.9184 44.9391C14.9184 44.9539 14.9178 44.9681 14.9178 44.9822ZM14.9184 44.9268C14.9184 44.9157 14.919 44.9058 14.919 44.8947C14.919 44.9058 14.9184 44.9157 14.9184 44.9268ZM14.919 44.8781C14.919 44.8694 14.9197 44.859 14.9197 44.8503C14.9197 44.8596 14.919 44.8688 14.919 44.8781ZM14.9197 44.8318C14.9197 44.8207 14.9203 44.809 14.9203 44.7979C14.9203 44.8096 14.9197 44.8201 14.9197 44.8318ZM14.9209 44.7757C14.9209 44.7665 14.9209 44.7566 14.9209 44.7474C14.9209 44.7566 14.9209 44.7665 14.9209 44.7757ZM14.9215 44.7258C14.9215 44.7184 14.9215 44.7104 14.9221 44.7036C14.9215 44.7116 14.9215 44.7178 14.9215 44.7258ZM14.9221 44.6808C14.9227 44.6734 14.9227 44.6672 14.9227 44.6598C14.9227 44.6672 14.9227 44.6734 14.9221 44.6808ZM14.9234 44.6198C14.924 44.6124 14.924 44.6062 14.924 44.5988C14.924 44.6062 14.924 44.6124 14.9234 44.6198ZM14.9246 44.5741C14.9246 44.568 14.9246 44.5618 14.9252 44.5556C14.9246 44.5618 14.9246 44.568 14.9246 44.5741ZM14.9258 44.5297C14.9258 44.5242 14.9258 44.5193 14.9258 44.5137C14.9258 44.5193 14.9258 44.5248 14.9258 44.5297ZM14.9289 44.4175C14.9289 44.4151 14.9289 44.4114 14.9289 44.4095C14.9289 44.4114 14.9289 44.4157 14.9289 44.4175ZM14.9295 44.3769C14.9301 44.3744 14.9301 44.3719 14.9301 44.3695C14.9301 44.3719 14.9295 44.375 14.9295 44.3769ZM33.5534 12.0273C33.5534 12.026 33.5534 12.0242 33.5534 12.023C33.5534 12.0242 33.5534 12.0254 33.5534 12.0273Z" fill="#2C566F"/>
<path d="M57.2661 118.249C57.2661 124.646 52.0795 129.833 45.6821 129.833C39.2846 129.833 34.0986 124.646 34.0986 118.249C34.0986 111.851 39.2846 106.665 45.6821 106.665C52.0795 106.665 57.2661 111.851 57.2661 118.249Z" fill="#C79B41"/>
<path d="M45.6826 129.833V120.503H57.0435C57.1865 119.779 57.2654 119.032 57.2666 118.267C57.2666 118.319 57.266 118.37 57.2654 118.421C57.2438 119.911 56.9405 121.334 56.4066 122.637C55.6742 124.425 54.5078 125.989 53.0381 127.199C52.1731 127.91 51.2034 128.499 50.1559 128.938C49.3212 129.287 48.4371 129.542 47.5167 129.689C46.9193 129.784 46.3065 129.833 45.6826 129.833Z" fill="#B87E2F"/>
<path d="M45.682 120.503H34.3212C34.1788 119.779 34.0999 119.032 34.0986 118.267C34.0986 118.261 34.0986 118.255 34.0986 118.249C34.0986 118.001 34.106 117.756 34.1215 117.512H45.682V120.503Z" fill="#B87E2F"/>
<path d="M57.0435 120.503H45.6826V117.512H55.8265C55.9276 117.512 56.033 117.512 56.1421 117.512C56.1964 117.512 56.2519 117.512 56.3074 117.512H57.2432C57.2586 117.756 57.2666 118.001 57.2666 118.249C57.2666 118.255 57.2666 118.261 57.2666 118.267C57.2654 119.032 57.1865 119.779 57.0435 120.503Z" fill="#AA6724"/>
<path d="M45.683 6.41461C42.6097 6.41461 40.1098 8.91513 40.1098 11.9884C40.1098 15.061 42.6097 17.5615 45.683 17.5615C48.7562 17.5615 51.2567 15.061 51.2567 11.9884C51.2567 8.91513 48.7562 6.41461 45.683 6.41461ZM45.683 24.118C38.9946 24.118 33.5527 18.6768 33.5527 11.9884C33.5527 5.29936 38.9946 -0.141865 45.683 -0.141865C52.372 -0.141865 57.8132 5.29936 57.8132 11.9884C57.8132 18.6768 52.372 24.118 45.683 24.118Z" fill="#EBEA4F"/>
<path d="M56.8579 16.7058C54.805 15.8933 52.6447 15.2953 50.4068 14.942C50.9451 14.0851 51.2564 13.0722 51.2564 11.9884C51.2564 8.91513 48.7559 6.41462 45.6826 6.41462V-0.141861C52.3716 -0.141861 57.8129 5.29936 57.8129 11.9884C57.8129 13.6609 57.4725 15.2552 56.8579 16.7058Z" fill="#E0CD40"/>
<path d="M76.3436 60.0297V45.2824C76.3436 28.3897 62.5223 14.5684 45.6296 14.5684C28.7369 14.5684 14.9156 28.3897 14.9156 45.2824V60.0297C14.9156 95.2177 0 94.8922 0 110.839C0 118.593 6.54352 117.512 14.5408 117.512H76.8245C84.8223 117.512 91.3652 118.836 91.3652 110.839C91.3652 94.7806 76.3436 95.2177 76.3436 60.0297Z" fill="#EBEA4F"/>
<path d="M56.1418 117.512C56.0327 117.512 55.9273 117.512 55.8262 117.512H56.307C56.2516 117.512 56.1961 117.512 56.1418 117.512Z" fill="#B98132"/>
<path d="M91.3655 110.839C91.3655 110.226 91.344 109.637 91.3014 109.069H58.4999C58.1658 107.527 57.6824 105.705 57.016 103.549C55.1776 97.5986 54.2128 90.8362 53.772 83.8525H79.7149C78.4831 80.336 77.4678 76.0901 76.8839 70.7389H53.4718C53.6419 54.4615 55.4464 38.9386 54.5346 31.4525C53.0359 19.1484 45.6299 14.5684 45.6299 14.5684C62.5226 14.5684 76.3439 28.3897 76.3439 45.2824V49.5504V58.351V60.0297C76.3439 95.2177 91.3655 94.7806 91.3655 110.839Z" fill="#D8C047"/>
<path d="M53.7733 83.8526H30.4092C30.8111 79.9477 31.0115 75.4583 31.104 70.739H53.473C53.4274 75.1039 53.4996 79.5192 53.7733 83.8526Z" fill="#D8BB37"/>
<path d="M79.7148 83.8526H53.7719C53.4982 79.5192 53.4261 75.1039 53.4717 70.739H76.8839C77.4677 76.0903 78.4831 80.3361 79.7148 83.8526Z" fill="#C89C33"/>
<path d="M20.1557 83.8526H11.5771C12.7966 80.3324 13.8021 76.0847 14.381 70.739H21.9923C21.5663 75.4041 21.0084 79.878 20.1557 83.8526Z" fill="#D8BB37"/>
<path d="M56.3088 117.512H25.1084C25.2077 115.28 25.3975 112.368 25.7588 109.069H58.5011C60.2193 116.999 57.9838 117.488 56.3088 117.512Z" fill="#D8BB37"/>
<path d="M82.4472 117.594C80.7161 117.594 78.8148 117.512 76.8247 117.512H57.2435H56.3076C57.9826 117.488 60.2181 116.999 58.4999 109.069H91.3014C91.3439 109.637 91.3655 110.226 91.3655 110.839C91.3655 112.793 90.9752 114.191 90.2681 115.187C89.7897 115.861 89.1658 116.352 88.4199 116.707C87.9458 116.932 87.4224 117.104 86.8552 117.232C86.3842 117.338 85.8842 117.415 85.3565 117.47C84.8781 117.52 84.3775 117.552 83.8578 117.571C83.4022 117.587 82.9312 117.594 82.4472 117.594Z" fill="#C89C33"/>
<path d="M9.56782 117.563C4.00083 117.563 0.000976562 116.901 0.000976562 110.839C0.000976562 110.226 0.0231736 109.638 0.065712 109.069H12.3273C11.5283 113.08 11.5042 115.713 11.7928 117.54C12.58 117.528 13.3889 117.515 14.2144 117.512C13.678 117.514 13.1491 117.52 12.6275 117.528C12.0067 117.536 11.397 117.547 10.8027 117.554C10.3834 117.56 9.97163 117.563 9.56782 117.563Z" fill="#D8BB37"/>
<path d="M14.2168 117.512C14.2285 117.512 14.2402 117.512 14.2526 117.512C14.2402 117.512 14.2285 117.512 14.2168 117.512Z" fill="#D8BB37"/>
<path d="M14.2139 117.512C14.2145 117.512 14.2151 117.512 14.2157 117.512C14.2151 117.512 14.2145 117.512 14.2139 117.512ZM14.2515 117.512C14.2539 117.512 14.2583 117.512 14.2613 117.512C14.2576 117.512 14.2546 117.512 14.2515 117.512ZM14.2897 117.512C14.2952 117.512 14.3008 117.512 14.307 117.512C14.3014 117.512 14.2952 117.512 14.2897 117.512ZM14.3298 117.512C14.3372 117.512 14.3439 117.512 14.352 117.512C14.3446 117.512 14.3372 117.512 14.3298 117.512ZM14.3717 117.512C14.3791 117.512 14.3871 117.512 14.3945 117.512C14.3865 117.512 14.3791 117.512 14.3717 117.512ZM14.4136 117.512C14.4229 117.512 14.4309 117.512 14.4395 117.512C14.4309 117.512 14.4222 117.512 14.4136 117.512ZM14.4561 117.512C14.4648 117.512 14.4734 117.512 14.4827 117.512C14.4734 117.512 14.4648 117.512 14.4561 117.512ZM14.4993 117.512C14.5135 117.512 14.527 117.512 14.5412 117.512H14.5801H14.5412C14.527 117.512 14.5129 117.512 14.4993 117.512Z" fill="#4C778B"/>
<path d="M25.7572 109.069H12.3262C13.1893 104.74 14.9555 98.8057 18.207 90.5514C18.9936 88.5545 19.6298 86.2981 20.1545 83.8525H30.4075C30.0844 86.9904 29.6307 89.7505 28.9982 91.9502C27.2972 97.8618 26.3195 103.935 25.7572 109.069ZM31.1023 70.7389H21.991C23.179 57.7394 23.3486 43.2504 26.0562 33.9018C28.6104 25.0816 32.5504 19.4794 36.6347 15.9235C36.9177 15.8359 37.2044 15.7576 37.4911 15.6787C35.4998 18.4597 33.6577 22.3591 32.2188 27.8009C30.4217 34.6003 31.4296 54.0977 31.1023 70.7389Z" fill="#EEEE69"/>
<path d="M30.4063 83.8525H20.1533C21.0059 79.8779 21.5639 75.404 21.9899 70.7389H31.1011C31.0086 75.4582 30.8083 79.9476 30.4063 83.8525Z" fill="#DDC753"/>
<path d="M11.7925 117.54C11.504 115.713 11.5281 113.08 12.3271 109.069H25.7581C25.3968 112.368 25.207 115.28 25.1077 117.512H14.5415C14.5273 117.512 14.5138 117.512 14.4996 117.512C14.4941 117.512 14.4885 117.512 14.483 117.512C14.4737 117.512 14.4651 117.512 14.4564 117.512C14.4509 117.512 14.4453 117.512 14.4398 117.512C14.4312 117.512 14.4232 117.512 14.4139 117.512C14.4077 117.512 14.401 117.512 14.3948 117.512C14.3874 117.512 14.3794 117.512 14.372 117.512C14.3658 117.512 14.359 117.512 14.3523 117.512C14.3442 117.512 14.3375 117.512 14.3301 117.512C14.322 117.512 14.3147 117.512 14.3073 117.512C14.3011 117.512 14.2955 117.512 14.29 117.512C14.2801 117.512 14.2709 117.512 14.2616 117.512C14.2585 117.512 14.2542 117.512 14.2518 117.512C14.2394 117.512 14.2277 117.512 14.216 117.512C14.2154 117.512 14.2148 117.512 14.2142 117.512C13.3887 117.515 12.5798 117.528 11.7925 117.54Z" fill="#DDC753"/>
<path d="M92.6734 20.84C92.6734 30.6171 84.7471 38.5434 74.97 38.5434C65.1923 38.5434 57.2666 30.6171 57.2666 20.84C57.2666 11.0623 65.1923 3.136 74.97 3.136C84.7471 3.136 92.6734 11.0623 92.6734 20.84Z" fill="#F05657"/>
</g>
<defs>
<clipPath id="clip0">
<rect width="70" height="129.895" fill="white"/>
</clipPath>
</defs>
</svg>
