<svg width="329" height="200" viewBox="0 0 329 200" fill="none" xmlns="http://www.w3.org/2000/svg">
<g clip-path="url(#clip0)">
<g opacity="0.8">
<path fill-rule="evenodd" clip-rule="evenodd" d="M281.097 19.157C290.228 16.1056 295.281 24.0763 295.281 31.8878L244.253 277.975C244.253 285.787 231.361 291.534 224.796 287.867L102.506 198.774L58.5796 178.974L-17.9734 153.512C-24.5385 149.846 -30.1487 146.52 -25.0558 136.541C-19.9629 126.561 281.097 19.157 281.097 19.157Z" fill="white"/>
<path fill-rule="evenodd" clip-rule="evenodd" d="M242.838 65.8374C246.34 69.8018 213.355 98.1815 180.47 128.067C143.268 161.869 105.35 197.368 105.35 197.368L99.6795 276.567C99.6795 276.567 95.4619 278.28 89.7523 269.496C85.3358 262.715 79.6064 246.791 77.0003 236.967C71.0121 214.419 62.8154 178.982 62.8154 178.982C62.8154 178.982 237.586 59.8898 242.838 65.8374Z" fill="#C9DAEA"/>
</g>
</g>
<defs>
<clipPath id="clip0">
<rect width="329" height="200" fill="white"/>
</clipPath>
</defs>
</svg>
