<svg width="42" height="51" viewBox="0 0 42 51" fill="none" xmlns="http://www.w3.org/2000/svg">
<g id="Vector">
<mask id="path-1-outside-1" maskUnits="userSpaceOnUse" x="0" y="-0.858887" width="42" height="52" fill="black">
<rect fill="white" y="-0.858887" width="42" height="52"/>
<path d="M16.0492 30.7412C11.5865 30.7412 7.76319 23.1533 7.76319 16.9408C7.76319 16.1887 7.71023 15.3274 7.65434 14.4142C7.43076 10.7886 7.15328 6.27668 9.83617 3.24313C11.6817 1.15603 14.5725 0.141113 18.6723 0.141113C22.8006 0.141113 25.7002 1.14986 27.5389 3.22554C30.1816 6.21127 29.9109 10.7023 29.6923 14.3114C29.6354 15.2547 29.5815 16.146 29.5815 16.9408C29.5815 23.5231 20.0824 30.7412 16.0492 30.7412ZM18.6723 2.26873C15.2069 2.26873 12.727 3.08633 11.3012 4.69763C9.21349 7.05795 9.44982 10.8924 9.6577 14.2761C9.71653 15.2235 9.77145 16.119 9.77145 16.9408C9.77145 22.2858 13.1741 28.6136 16.0492 28.6136C19.2185 28.6136 27.5732 22.1269 27.5732 16.9408C27.5732 16.0785 27.6291 15.1539 27.6879 14.1753C27.8919 10.8093 28.1223 6.99458 26.0739 4.681C24.6559 3.0801 22.1662 2.26873 18.6723 2.26873Z"/>
<path d="M19.3754 50.1411C14.1518 50.1411 9.04089 49.123 5.7049 47.4182C2.63858 45.8796 1.01275 43.9558 1.01079 41.8583C1.00978 41.8562 1 41.5705 1 41.4396C1.23436 36.4021 1.24324 36.3273 1.24907 36.2785C1.51275 34.4905 2.37988 32.8645 3.68953 31.7027C4.99919 30.5408 6.66238 29.922 8.37017 29.961C9.08621 29.9644 9.79527 29.812 10.4534 29.5132C11.1116 29.2145 11.7049 28.7756 12.1965 28.224C12.3758 28.0159 12.6257 27.8917 12.8915 27.8786C13.1572 27.8655 13.4171 27.9646 13.6139 28.1541C13.8107 28.3437 13.9285 28.6082 13.9414 28.8897C13.9544 29.1711 13.8615 29.4466 13.683 29.6556C13.0018 30.4248 12.1788 31.0376 11.2649 31.4561C10.351 31.8746 9.36576 32.0899 8.37017 32.0886C7.1547 32.0627 5.97037 32.4971 5.03025 33.3137C4.09013 34.1303 3.45592 35.2756 3.24164 36.5434C3.22792 36.7616 3.00728 41.4926 3.00728 41.4926C3.00829 41.5528 3.01807 41.8114 3.01807 41.8114C3.01907 43.0373 4.31339 44.366 6.57077 45.4994C9.65475 47.0744 14.439 48.0135 19.3754 48.0135C22.4224 47.6965 25.4476 47.1772 28.4332 46.4584C29.249 46.2849 29.9286 46.1404 30.3699 46.0552C30.6316 46.0057 30.9014 46.0682 31.1198 46.229C31.3381 46.3897 31.4873 46.6357 31.5348 46.9129C31.5823 47.1901 31.5241 47.476 31.373 47.7078C31.2219 47.9396 30.9903 48.0984 30.7288 48.1496C30.2953 48.2327 29.6285 48.374 28.8284 48.5444C25.7147 49.3004 22.5566 49.8338 19.3754 50.1411Z"/>
<path d="M33.2116 32.6413C33.0707 32.641 32.9315 32.6095 32.8027 32.5489C32.148 32.2411 31.4391 32.0842 30.7229 32.0886C28.8834 32.1198 27.1072 31.3769 25.7838 30.0229C24.4605 28.6688 23.6981 26.8141 23.6636 24.8654C23.6636 24.5833 23.7694 24.3126 23.9577 24.1131C24.146 23.9136 24.4014 23.8016 24.6677 23.8016C24.934 23.8016 25.1893 23.9136 25.3776 24.1131C25.5659 24.3126 25.6718 24.5833 25.6718 24.8654C25.706 26.25 26.257 27.5637 27.2038 28.5188C28.1505 29.4739 29.4159 29.9925 30.7229 29.961C31.7216 29.9561 32.71 30.176 33.6225 30.6062C33.8325 30.7056 34.004 30.8784 34.1081 31.0957C34.2123 31.313 34.2428 31.5616 34.1947 31.8C34.1466 32.0383 34.0228 32.2519 33.8439 32.405C33.6649 32.5582 33.4417 32.6416 33.2116 32.6413Z"/>
<path d="M34.9522 48.1662C34.8203 48.1663 34.6896 48.1389 34.5678 48.0855C34.4459 48.032 34.3352 47.9536 34.242 47.8548C34.1487 47.756 34.0747 47.6388 34.0243 47.5097C33.9739 47.3806 33.948 47.2421 33.9481 47.1024V35.68C33.9481 35.3979 34.0539 35.1273 34.2422 34.9278C34.4305 34.7283 34.6859 34.6162 34.9522 34.6162C35.2185 34.6162 35.4738 34.7283 35.6621 34.9278C35.8504 35.1273 35.9563 35.3979 35.9563 35.68V47.1024C35.9564 47.2421 35.9305 47.3806 35.8801 47.5097C35.8296 47.6388 35.7556 47.756 35.6624 47.8548C35.5691 47.9536 35.4584 48.032 35.3366 48.0855C35.2147 48.1389 35.0841 48.1663 34.9522 48.1662Z"/>
<path d="M40.3425 42.4545H29.5609C29.2945 42.4545 29.0392 42.3425 28.8509 42.1429C28.6626 41.9434 28.5567 41.6728 28.5567 41.3907C28.5567 41.1085 28.6626 40.838 28.8509 40.6385C29.0392 40.439 29.2945 40.3269 29.5609 40.3269H40.3425C40.6088 40.3269 40.8642 40.439 41.0525 40.6385C41.2408 40.838 41.3467 41.1085 41.3467 41.3907C41.3467 41.6728 41.2408 41.9434 41.0525 42.1429C40.8642 42.3425 40.6088 42.4545 40.3425 42.4545Z"/>
</mask>
<path d="M16.0492 30.7412C11.5865 30.7412 7.76319 23.1533 7.76319 16.9408C7.76319 16.1887 7.71023 15.3274 7.65434 14.4142C7.43076 10.7886 7.15328 6.27668 9.83617 3.24313C11.6817 1.15603 14.5725 0.141113 18.6723 0.141113C22.8006 0.141113 25.7002 1.14986 27.5389 3.22554C30.1816 6.21127 29.9109 10.7023 29.6923 14.3114C29.6354 15.2547 29.5815 16.146 29.5815 16.9408C29.5815 23.5231 20.0824 30.7412 16.0492 30.7412ZM18.6723 2.26873C15.2069 2.26873 12.727 3.08633 11.3012 4.69763C9.21349 7.05795 9.44982 10.8924 9.6577 14.2761C9.71653 15.2235 9.77145 16.119 9.77145 16.9408C9.77145 22.2858 13.1741 28.6136 16.0492 28.6136C19.2185 28.6136 27.5732 22.1269 27.5732 16.9408C27.5732 16.0785 27.6291 15.1539 27.6879 14.1753C27.8919 10.8093 28.1223 6.99458 26.0739 4.681C24.6559 3.0801 22.1662 2.26873 18.6723 2.26873Z" fill="#F5BD35"/>
<path d="M19.3754 50.1411C14.1518 50.1411 9.04089 49.123 5.7049 47.4182C2.63858 45.8796 1.01275 43.9558 1.01079 41.8583C1.00978 41.8562 1 41.5705 1 41.4396C1.23436 36.4021 1.24324 36.3273 1.24907 36.2785C1.51275 34.4905 2.37988 32.8645 3.68953 31.7027C4.99919 30.5408 6.66238 29.922 8.37017 29.961C9.08621 29.9644 9.79527 29.812 10.4534 29.5132C11.1116 29.2145 11.7049 28.7756 12.1965 28.224C12.3758 28.0159 12.6257 27.8917 12.8915 27.8786C13.1572 27.8655 13.4171 27.9646 13.6139 28.1541C13.8107 28.3437 13.9285 28.6082 13.9414 28.8897C13.9544 29.1711 13.8615 29.4466 13.683 29.6556C13.0018 30.4248 12.1788 31.0376 11.2649 31.4561C10.351 31.8746 9.36576 32.0899 8.37017 32.0886C7.1547 32.0627 5.97037 32.4971 5.03025 33.3137C4.09013 34.1303 3.45592 35.2756 3.24164 36.5434C3.22792 36.7616 3.00728 41.4926 3.00728 41.4926C3.00829 41.5528 3.01807 41.8114 3.01807 41.8114C3.01907 43.0373 4.31339 44.366 6.57077 45.4994C9.65475 47.0744 14.439 48.0135 19.3754 48.0135C22.4224 47.6965 25.4476 47.1772 28.4332 46.4584C29.249 46.2849 29.9286 46.1404 30.3699 46.0552C30.6316 46.0057 30.9014 46.0682 31.1198 46.229C31.3381 46.3897 31.4873 46.6357 31.5348 46.9129C31.5823 47.1901 31.5241 47.476 31.373 47.7078C31.2219 47.9396 30.9903 48.0984 30.7288 48.1496C30.2953 48.2327 29.6285 48.374 28.8284 48.5444C25.7147 49.3004 22.5566 49.8338 19.3754 50.1411Z" fill="#F5BD35"/>
<path d="M33.2116 32.6413C33.0707 32.641 32.9315 32.6095 32.8027 32.5489C32.148 32.2411 31.4391 32.0842 30.7229 32.0886C28.8834 32.1198 27.1072 31.3769 25.7838 30.0229C24.4605 28.6688 23.6981 26.8141 23.6636 24.8654C23.6636 24.5833 23.7694 24.3126 23.9577 24.1131C24.146 23.9136 24.4014 23.8016 24.6677 23.8016C24.934 23.8016 25.1893 23.9136 25.3776 24.1131C25.5659 24.3126 25.6718 24.5833 25.6718 24.8654C25.706 26.25 26.257 27.5637 27.2038 28.5188C28.1505 29.4739 29.4159 29.9925 30.7229 29.961C31.7216 29.9561 32.71 30.176 33.6225 30.6062C33.8325 30.7056 34.004 30.8784 34.1081 31.0957C34.2123 31.313 34.2428 31.5616 34.1947 31.8C34.1466 32.0383 34.0228 32.2519 33.8439 32.405C33.6649 32.5582 33.4417 32.6416 33.2116 32.6413Z" fill="#F5BD35"/>
<path d="M34.9522 48.1662C34.8203 48.1663 34.6896 48.1389 34.5678 48.0855C34.4459 48.032 34.3352 47.9536 34.242 47.8548C34.1487 47.756 34.0747 47.6388 34.0243 47.5097C33.9739 47.3806 33.948 47.2421 33.9481 47.1024V35.68C33.9481 35.3979 34.0539 35.1273 34.2422 34.9278C34.4305 34.7283 34.6859 34.6162 34.9522 34.6162C35.2185 34.6162 35.4738 34.7283 35.6621 34.9278C35.8504 35.1273 35.9563 35.3979 35.9563 35.68V47.1024C35.9564 47.2421 35.9305 47.3806 35.8801 47.5097C35.8296 47.6388 35.7556 47.756 35.6624 47.8548C35.5691 47.9536 35.4584 48.032 35.3366 48.0855C35.2147 48.1389 35.0841 48.1663 34.9522 48.1662Z" fill="#F5BD35"/>
<path d="M40.3425 42.4545H29.5609C29.2945 42.4545 29.0392 42.3425 28.8509 42.1429C28.6626 41.9434 28.5567 41.6728 28.5567 41.3907C28.5567 41.1085 28.6626 40.838 28.8509 40.6385C29.0392 40.439 29.2945 40.3269 29.5609 40.3269H40.3425C40.6088 40.3269 40.8642 40.439 41.0525 40.6385C41.2408 40.838 41.3467 41.1085 41.3467 41.3907C41.3467 41.6728 41.2408 41.9434 41.0525 42.1429C40.8642 42.3425 40.6088 42.4545 40.3425 42.4545Z" fill="#F5BD35"/>
<path d="M16.0492 30.7412C11.5865 30.7412 7.76319 23.1533 7.76319 16.9408C7.76319 16.1887 7.71023 15.3274 7.65434 14.4142C7.43076 10.7886 7.15328 6.27668 9.83617 3.24313C11.6817 1.15603 14.5725 0.141113 18.6723 0.141113C22.8006 0.141113 25.7002 1.14986 27.5389 3.22554C30.1816 6.21127 29.9109 10.7023 29.6923 14.3114C29.6354 15.2547 29.5815 16.146 29.5815 16.9408C29.5815 23.5231 20.0824 30.7412 16.0492 30.7412ZM18.6723 2.26873C15.2069 2.26873 12.727 3.08633 11.3012 4.69763C9.21349 7.05795 9.44982 10.8924 9.6577 14.2761C9.71653 15.2235 9.77145 16.119 9.77145 16.9408C9.77145 22.2858 13.1741 28.6136 16.0492 28.6136C19.2185 28.6136 27.5732 22.1269 27.5732 16.9408C27.5732 16.0785 27.6291 15.1539 27.6879 14.1753C27.8919 10.8093 28.1223 6.99458 26.0739 4.681C24.6559 3.0801 22.1662 2.26873 18.6723 2.26873Z" stroke="#F5BD35" stroke-width="0.2" mask="url(#path-1-outside-1)"/>
<path d="M19.3754 50.1411C14.1518 50.1411 9.04089 49.123 5.7049 47.4182C2.63858 45.8796 1.01275 43.9558 1.01079 41.8583C1.00978 41.8562 1 41.5705 1 41.4396C1.23436 36.4021 1.24324 36.3273 1.24907 36.2785C1.51275 34.4905 2.37988 32.8645 3.68953 31.7027C4.99919 30.5408 6.66238 29.922 8.37017 29.961C9.08621 29.9644 9.79527 29.812 10.4534 29.5132C11.1116 29.2145 11.7049 28.7756 12.1965 28.224C12.3758 28.0159 12.6257 27.8917 12.8915 27.8786C13.1572 27.8655 13.4171 27.9646 13.6139 28.1541C13.8107 28.3437 13.9285 28.6082 13.9414 28.8897C13.9544 29.1711 13.8615 29.4466 13.683 29.6556C13.0018 30.4248 12.1788 31.0376 11.2649 31.4561C10.351 31.8746 9.36576 32.0899 8.37017 32.0886C7.1547 32.0627 5.97037 32.4971 5.03025 33.3137C4.09013 34.1303 3.45592 35.2756 3.24164 36.5434C3.22792 36.7616 3.00728 41.4926 3.00728 41.4926C3.00829 41.5528 3.01807 41.8114 3.01807 41.8114C3.01907 43.0373 4.31339 44.366 6.57077 45.4994C9.65475 47.0744 14.439 48.0135 19.3754 48.0135C22.4224 47.6965 25.4476 47.1772 28.4332 46.4584C29.249 46.2849 29.9286 46.1404 30.3699 46.0552C30.6316 46.0057 30.9014 46.0682 31.1198 46.229C31.3381 46.3897 31.4873 46.6357 31.5348 46.9129C31.5823 47.1901 31.5241 47.476 31.373 47.7078C31.2219 47.9396 30.9903 48.0984 30.7288 48.1496C30.2953 48.2327 29.6285 48.374 28.8284 48.5444C25.7147 49.3004 22.5566 49.8338 19.3754 50.1411Z" stroke="#F5BD35" stroke-width="0.2" mask="url(#path-1-outside-1)"/>
<path d="M33.2116 32.6413C33.0707 32.641 32.9315 32.6095 32.8027 32.5489C32.148 32.2411 31.4391 32.0842 30.7229 32.0886C28.8834 32.1198 27.1072 31.3769 25.7838 30.0229C24.4605 28.6688 23.6981 26.8141 23.6636 24.8654C23.6636 24.5833 23.7694 24.3126 23.9577 24.1131C24.146 23.9136 24.4014 23.8016 24.6677 23.8016C24.934 23.8016 25.1893 23.9136 25.3776 24.1131C25.5659 24.3126 25.6718 24.5833 25.6718 24.8654C25.706 26.25 26.257 27.5637 27.2038 28.5188C28.1505 29.4739 29.4159 29.9925 30.7229 29.961C31.7216 29.9561 32.71 30.176 33.6225 30.6062C33.8325 30.7056 34.004 30.8784 34.1081 31.0957C34.2123 31.313 34.2428 31.5616 34.1947 31.8C34.1466 32.0383 34.0228 32.2519 33.8439 32.405C33.6649 32.5582 33.4417 32.6416 33.2116 32.6413Z" stroke="#F5BD35" stroke-width="0.2" mask="url(#path-1-outside-1)"/>
<path d="M34.9522 48.1662C34.8203 48.1663 34.6896 48.1389 34.5678 48.0855C34.4459 48.032 34.3352 47.9536 34.242 47.8548C34.1487 47.756 34.0747 47.6388 34.0243 47.5097C33.9739 47.3806 33.948 47.2421 33.9481 47.1024V35.68C33.9481 35.3979 34.0539 35.1273 34.2422 34.9278C34.4305 34.7283 34.6859 34.6162 34.9522 34.6162C35.2185 34.6162 35.4738 34.7283 35.6621 34.9278C35.8504 35.1273 35.9563 35.3979 35.9563 35.68V47.1024C35.9564 47.2421 35.9305 47.3806 35.8801 47.5097C35.8296 47.6388 35.7556 47.756 35.6624 47.8548C35.5691 47.9536 35.4584 48.032 35.3366 48.0855C35.2147 48.1389 35.0841 48.1663 34.9522 48.1662Z" stroke="#F5BD35" stroke-width="0.2" mask="url(#path-1-outside-1)"/>
<path d="M40.3425 42.4545H29.5609C29.2945 42.4545 29.0392 42.3425 28.8509 42.1429C28.6626 41.9434 28.5567 41.6728 28.5567 41.3907C28.5567 41.1085 28.6626 40.838 28.8509 40.6385C29.0392 40.439 29.2945 40.3269 29.5609 40.3269H40.3425C40.6088 40.3269 40.8642 40.439 41.0525 40.6385C41.2408 40.838 41.3467 41.1085 41.3467 41.3907C41.3467 41.6728 41.2408 41.9434 41.0525 42.1429C40.8642 42.3425 40.6088 42.4545 40.3425 42.4545Z" stroke="#F5BD35" stroke-width="0.2" mask="url(#path-1-outside-1)"/>
</g>
</svg>
