<svg width="64" height="64" viewBox="0 0 64 64" fill="none" xmlns="http://www.w3.org/2000/svg">
<g>
<path d="M27.75 3.17543C29.9158 1.925 32.5842 1.925 34.75 3.17543L52.7308 13.5566C54.8966 14.8071 56.2308 17.1179 56.2308 19.6188V40.3812C56.2308 42.8821 54.8966 45.1929 52.7308 46.4434L34.75 56.8246C32.5842 58.075 29.9158 58.075 27.75 56.8246L9.76924 46.4434C7.60343 45.1929 6.26924 42.8821 6.26924 40.3812V19.6188C6.26924 17.1179 7.60343 14.8071 9.76924 13.5566L27.75 3.17543Z" stroke="#883FEB" stroke-width="2"/>
<path d="M27.75 3.17543C29.9158 1.925 32.5842 1.925 34.75 3.17543L52.7308 13.5566C54.8966 14.8071 56.2308 17.1179 56.2308 19.6188V40.3812C56.2308 42.8821 54.8966 45.1929 52.7308 46.4434L34.75 56.8246C32.5842 58.075 29.9158 58.075 27.75 56.8246L9.76924 46.4434C7.60343 45.1929 6.26924 42.8821 6.26924 40.3812V19.6188C6.26924 17.1179 7.60343 14.8071 9.76924 13.5566L27.75 3.17543Z" stroke="#FAFF13" stroke-width="2"/>
</g>
<path d="M27.25 10.3094C29.7252 8.88034 32.7748 8.88034 35.25 10.3094L46.3026 16.6906C48.7778 18.1197 50.3026 20.7607 50.3026 23.6188V36.3812C50.3026 39.2393 48.7778 41.8803 46.3026 43.3094L35.25 49.6906C32.7748 51.1197 29.7252 51.1197 27.25 49.6906L16.1974 43.3094C13.7222 41.8803 12.1974 39.2393 12.1974 36.3812V23.6188C12.1974 20.7607 13.7222 18.1197 16.1974 16.6906L27.25 10.3094Z" fill="#2A2E48"/>
<path d="M39.5528 21.2801H39.554C39.6214 21.2808 39.688 21.2947 39.7501 21.3211L39.7011 21.4361L39.7501 21.3211C39.8121 21.3475 39.8683 21.3859 39.9155 21.4341C39.9627 21.4822 39.9999 21.5392 40.0251 21.6017C40.0502 21.664 40.0628 21.7307 40.0622 21.7979M39.5528 21.2801L24.2578 19.7199M39.5528 21.2801H37.7086C37.7028 20.6118 37.6526 20.1776 37.6403 20.0718C37.6396 20.0654 37.639 20.0602 37.6385 20.0562M39.5528 21.2801L37.1259 19.7199M40.0622 21.7979C40.0622 21.8988 40.0606 23.0691 39.8058 24.4707C39.5516 25.8695 39.0407 27.5255 38.0035 28.5673C37.6867 28.8966 37.3059 29.1576 36.8845 29.3343C36.4814 29.5034 36.0493 29.5919 35.6126 29.5951C35.607 29.602 35.6013 29.609 35.5956 29.6159C35.5091 29.7223 35.4186 29.8335 35.3203 29.9416C34.7806 30.5539 34.1161 31.0431 33.3719 31.3766V33.0151C33.3719 33.1513 33.3178 33.2818 33.2215 33.3781C33.1253 33.4743 32.9947 33.5284 32.8586 33.5284H32.4399V35.515H34.9359C35.0721 35.515 35.2026 35.5691 35.2989 35.6653L35.2105 35.7537L35.2989 35.6653C35.3952 35.7616 35.4492 35.8922 35.4492 36.0283V39.488C35.4492 39.6242 35.3952 39.7547 35.2989 39.851C35.2026 39.9472 35.0721 40.0013 34.9359 40.0013H26.4827C26.3466 40.0013 26.2161 39.9472 26.1198 39.851C26.0235 39.7547 25.9695 39.6242 25.9695 39.488V36.0283C25.9695 35.8922 26.0235 35.7616 26.1198 35.6653L26.2082 35.7537L26.1198 35.6653C26.2161 35.5691 26.3466 35.515 26.4827 35.515H28.9787V33.5284H28.5291C28.3929 33.5284 28.2624 33.4743 28.1661 33.3781C28.0698 33.2818 28.0158 33.1513 28.0158 33.0151V31.3769C27.2664 31.044 26.597 30.5538 26.0531 29.9393C25.9465 29.8289 25.85 29.71 25.757 29.5905C25.3263 29.5827 24.9009 29.4921 24.5041 29.3235C24.0887 29.1469 23.7131 28.8884 23.3997 28.5635C22.3624 27.5236 21.8525 25.8675 21.5992 24.4682C21.3449 23.063 21.3448 21.8896 21.3448 21.7934C21.3448 21.6572 21.3989 21.5267 21.4952 21.4304C21.5915 21.3342 21.722 21.2801 21.8581 21.2801H23.677C23.6843 20.9514 23.6999 20.6758 23.7142 20.4693C23.7223 20.3543 23.7299 20.2607 23.7355 20.1917L23.7357 20.1903C23.7416 20.1171 23.7445 20.0802 23.7445 20.0693V20.0568L23.7451 20.0568C23.7579 19.9298 23.8176 19.8121 23.9125 19.7266C24.0073 19.6413 24.1305 19.5943 24.2581 19.5949M40.0622 21.7979C40.0622 21.7981 40.0622 21.7983 40.0622 21.7985L39.9372 21.7973H40.0622C40.0622 21.7975 40.0622 21.7977 40.0622 21.7979ZM24.2581 19.5949C24.2582 19.5949 24.2583 19.5949 24.2584 19.5949L24.2578 19.7199M24.2581 19.5949H24.2578V19.7199M24.2581 19.5949H37.1256M24.2578 19.7199H37.1259M37.1256 19.5949C37.1255 19.5949 37.1254 19.5949 37.1253 19.5949L37.1259 19.7199M37.1256 19.5949H37.1259V19.7199M37.1256 19.5949C37.2532 19.5943 37.3764 19.6413 37.4713 19.7266C37.566 19.8119 37.6256 19.9294 37.6385 20.0562M37.6385 20.0562C37.6386 20.0564 37.6386 20.0566 37.6386 20.0568L37.5142 20.0693L37.6385 20.0555C37.6385 20.0558 37.6385 20.056 37.6385 20.0562ZM29.0424 32.5018H31.9267H32.3375V31.7164C31.8029 31.8473 31.2543 31.9134 30.7035 31.9131L29.0424 32.5018ZM29.0424 32.5018V31.7164C29.577 31.8473 30.1256 31.9134 30.6763 31.9131C30.6764 31.9131 30.6764 31.9131 30.6764 31.9131H30.7035L29.0424 32.5018ZM28.9787 33.4034H29.1037V33.5284L28.9787 33.4034ZM30.7931 30.9004L30.7926 30.8942L30.6899 30.8976L30.5785 30.8939V30.9005C29.8892 30.9109 29.2048 30.7779 28.569 30.5094C27.9047 30.2289 27.3093 29.8072 26.8241 29.2737C25.684 27.9984 25.1374 26.1516 24.8892 24.4416C24.655 22.8279 24.6887 21.3531 24.7289 20.6331H36.6471C36.6874 21.3532 36.722 22.8289 36.4882 24.4431C36.2405 26.1537 35.6939 28.0004 34.5519 29.2737C34.0674 29.8072 33.4727 30.2288 32.809 30.5093C32.1713 30.7788 31.4846 30.9119 30.7931 30.9004ZM22.7406 24.8684C22.5063 23.8466 22.4227 22.865 22.3931 22.296L23.6776 22.3058C23.7245 24.0261 23.9982 26.4369 25.0255 28.4213C24.6884 28.2967 24.3833 28.0952 24.1354 27.8312L24.1354 27.8312L24.1329 27.8286C23.4225 27.1145 22.995 25.9782 22.7406 24.8684ZM37.2606 27.8423C37.003 28.1131 36.6847 28.3164 36.3338 28.4366C37.3845 26.4505 37.6626 24.0295 37.7064 22.3067H39.0063C38.9768 22.8815 38.8933 23.8653 38.6583 24.8873C38.4034 25.9954 37.975 27.1278 37.2628 27.8401L37.2627 27.84L37.2606 27.8423ZM34.4227 38.9747H26.996V36.5416H34.4227V38.9747ZM31.4134 35.515H30.0053V33.5284H31.4134V35.515Z" fill="white" stroke="white" stroke-width="0.25"/>
<defs>
<filter id="filter0_dd" x="0.269287" y="-3.7624" width="61.9615" height="67.5248" filterUnits="userSpaceOnUse" color-interpolation-filters="sRGB">
<feFlood flood-opacity="0" result="BackgroundImageFix"/>
<feColorMatrix in="SourceAlpha" type="matrix" values="0 0 0 0 0 0 0 0 0 0 0 0 0 0 0 0 0 0 127 0" result="hardAlpha"/>
<feOffset/>
<feGaussianBlur stdDeviation="2.5"/>
<feColorMatrix type="matrix" values="0 0 0 0 0.980392 0 0 0 0 1 0 0 0 0 0.0745098 0 0 0 0.8 0"/>
<feBlend mode="normal" in2="BackgroundImageFix" result="effect1_dropShadow"/>
<feColorMatrix in="SourceAlpha" type="matrix" values="0 0 0 0 0 0 0 0 0 0 0 0 0 0 0 0 0 0 127 0" result="hardAlpha"/>
<feOffset/>
<feGaussianBlur stdDeviation="2.5"/>
<feColorMatrix type="matrix" values="0 0 0 0 0.980392 0 0 0 0 1 0 0 0 0 0.0745098 0 0 0 0.8 0"/>
<feBlend mode="normal" in2="effect1_dropShadow" result="effect2_dropShadow"/>
<feBlend mode="normal" in="SourceGraphic" in2="effect2_dropShadow" result="shape"/>
</filter>
</defs>
</svg>