<svg width="64" height="64" viewBox="0 0 64 64" fill="none" xmlns="http://www.w3.org/2000/svg">
<g>
<path d="M28.25 3.17543C30.4158 1.925 33.0842 1.925 35.25 3.17543L53.2308 13.5566C55.3966 14.8071 56.7308 17.1179 56.7308 19.6188V40.3812C56.7308 42.8821 55.3966 45.1929 53.2308 46.4434L35.25 56.8246C33.0842 58.075 30.4158 58.075 28.25 56.8246L10.2692 46.4434C8.10343 45.1929 6.76924 42.8821 6.76924 40.3812V19.6188C6.76924 17.1179 8.10343 14.8071 10.2692 13.5566L28.25 3.17543Z" stroke="#883FEB" stroke-width="2"/>
<path d="M28.25 3.17543C30.4158 1.925 33.0842 1.925 35.25 3.17543L53.2308 13.5566C55.3966 14.8071 56.7308 17.1179 56.7308 19.6188V40.3812C56.7308 42.8821 55.3966 45.1929 53.2308 46.4434L35.25 56.8246C33.0842 58.075 30.4158 58.075 28.25 56.8246L10.2692 46.4434C8.10343 45.1929 6.76924 42.8821 6.76924 40.3812V19.6188C6.76924 17.1179 8.10343 14.8071 10.2692 13.5566L28.25 3.17543Z" stroke="#FFE817" stroke-width="2"/>
</g>
<path d="M27.75 10.3094C30.2252 8.88034 33.2748 8.88034 35.75 10.3094L46.8026 16.6906C49.2778 18.1197 50.8026 20.7607 50.8026 23.6188V36.3812C50.8026 39.2393 49.2778 41.8803 46.8026 43.3094L35.75 49.6906C33.2748 51.1197 30.2252 51.1197 27.75 49.6906L16.6974 43.3094C14.2222 41.8803 12.6974 39.2393 12.6974 36.3812V23.6188C12.6974 20.7607 14.2222 18.1197 16.6974 16.6906L27.75 10.3094Z" fill="#2A2E48"/>
<path fill-rule="evenodd" clip-rule="evenodd" d="M42.9898 24.7133C41.6385 24.3963 40.6324 23.1833 40.6324 21.7353C40.6324 20.046 42.0018 18.6765 43.6912 18.6765C45.3805 18.6765 46.75 20.046 46.75 21.7353C46.75 23.1377 45.8062 24.3197 44.5192 24.6807V31.2943C44.5192 32.5612 43.4923 33.5882 42.2254 33.5882H41.3971V37.7973C41.3971 38.6403 40.7146 39.3235 39.8711 39.3235H22.2759C21.4336 39.3235 20.75 38.6383 20.75 37.7973V27.8497C20.75 27.0067 21.4324 26.3235 22.2759 26.3235H39.8711C40.7135 26.3235 41.3971 27.0088 41.3971 27.8497V32.0588H42.2254C42.6476 32.0588 42.9898 31.7166 42.9898 31.2943V24.7133ZM43.6912 23.2647C44.5358 23.2647 45.2206 22.58 45.2206 21.7353C45.2206 20.8906 44.5358 20.2059 43.6912 20.2059C42.8465 20.2059 42.1618 20.8906 42.1618 21.7353C42.1618 22.58 42.8465 23.2647 43.6912 23.2647ZM22.2794 27.8529V37.7941H39.8676V27.8529H22.2794ZM28.7794 30.914C28.7794 30.0682 29.4607 29.3824 30.3081 29.3824H31.839C32.684 29.3824 33.3676 30.0685 33.3676 30.914V34.7331C33.3676 35.5789 32.6863 36.2647 31.839 36.2647H30.3081C29.4631 36.2647 28.7794 35.5786 28.7794 34.7331V30.914ZM30.3088 34.7331C30.3088 34.7344 30.8187 34.7352 31.8386 34.7353C31.8385 34.7351 31.8384 33.4613 31.8382 30.914C31.8382 30.9126 31.3283 30.9119 30.3085 30.9118L30.3088 34.7331ZM34.1324 30.914C34.1324 30.0682 34.8137 29.3824 35.661 29.3824H37.1919C38.0369 29.3824 38.7206 30.0685 38.7206 30.914V34.7331C38.7206 35.5789 38.0393 36.2647 37.1919 36.2647H35.661C34.816 36.2647 34.1324 35.5786 34.1324 34.7331V30.914ZM35.6618 34.7331C35.6618 34.7344 36.1717 34.7352 37.1915 34.7353C37.1914 34.7351 37.1913 33.4613 37.1912 30.914C37.1912 30.9126 36.6813 30.9119 35.6614 30.9118L35.6618 34.7331ZM23.4265 30.914C23.4265 30.0682 24.1078 29.3824 24.9552 29.3824H26.486C27.331 29.3824 28.0147 30.0685 28.0147 30.914V34.7331C28.0147 35.5789 27.3334 36.2647 26.486 36.2647H24.9552C24.1102 36.2647 23.4265 35.5786 23.4265 34.7331V30.914ZM24.9559 34.7331C24.9559 34.7344 25.4658 34.7352 26.4857 34.7353C26.4855 34.7351 26.4854 33.4613 26.4853 30.914C26.4853 30.9126 25.9754 30.9119 24.9555 30.9118L24.9559 34.7331Z" fill="white"/>
<defs>
<filter id="filter0_dd" x="0.769226" y="-3.7624" width="61.9615" height="67.5248" filterUnits="userSpaceOnUse" color-interpolation-filters="sRGB">
<feFlood flood-opacity="0" result="BackgroundImageFix"/>
<feColorMatrix in="SourceAlpha" type="matrix" values="0 0 0 0 0 0 0 0 0 0 0 0 0 0 0 0 0 0 127 0" result="hardAlpha"/>
<feOffset/>
<feGaussianBlur stdDeviation="2.5"/>
<feColorMatrix type="matrix" values="0 0 0 0 1 0 0 0 0 0.909804 0 0 0 0 0.0901961 0 0 0 0.8 0"/>
<feBlend mode="normal" in2="BackgroundImageFix" result="effect1_dropShadow"/>
<feColorMatrix in="SourceAlpha" type="matrix" values="0 0 0 0 0 0 0 0 0 0 0 0 0 0 0 0 0 0 127 0" result="hardAlpha"/>
<feOffset/>
<feGaussianBlur stdDeviation="2.5"/>
<feColorMatrix type="matrix" values="0 0 0 0 1 0 0 0 0 0.909804 0 0 0 0 0.0901961 0 0 0 0.8 0"/>
<feBlend mode="normal" in2="effect1_dropShadow" result="effect2_dropShadow"/>
<feBlend mode="normal" in="SourceGraphic" in2="effect2_dropShadow" result="shape"/>
</filter>
</defs>
</svg>