<svg width="63" height="64" viewBox="0 0 63 64" fill="none" xmlns="http://www.w3.org/2000/svg">
<g>
<path d="M27.75 3.17543C29.9158 1.925 32.5842 1.925 34.75 3.17543L52.7308 13.5566C54.8966 14.8071 56.2308 17.1179 56.2308 19.6188V40.3812C56.2308 42.8821 54.8966 45.1929 52.7308 46.4434L34.75 56.8246C32.5842 58.075 29.9158 58.075 27.75 56.8246L9.76924 46.4434C7.60343 45.1929 6.26924 42.8821 6.26924 40.3812V19.6188C6.26924 17.1179 7.60343 14.8071 9.76924 13.5566L27.75 3.17543Z" stroke="#883FEB" stroke-width="2"/>
<path d="M27.75 3.17543C29.9158 1.925 32.5842 1.925 34.75 3.17543L52.7308 13.5566C54.8966 14.8071 56.2308 17.1179 56.2308 19.6188V40.3812C56.2308 42.8821 54.8966 45.1929 52.7308 46.4434L34.75 56.8246C32.5842 58.075 29.9158 58.075 27.75 56.8246L9.76924 46.4434C7.60343 45.1929 6.26924 42.8821 6.26924 40.3812V19.6188C6.26924 17.1179 7.60343 14.8071 9.76924 13.5566L27.75 3.17543Z" stroke="#08FFD3" stroke-width="2"/>
</g>
<path d="M27.25 10.3094C29.7252 8.88034 32.7748 8.88034 35.25 10.3094L46.3026 16.6906C48.7778 18.1197 50.3026 20.7607 50.3026 23.6188V36.3812C50.3026 39.2393 48.7778 41.8803 46.3026 43.3094L35.25 49.6906C32.7748 51.1197 29.7252 51.1197 27.25 49.6906L16.1974 43.3094C13.7222 41.8803 12.1974 39.2393 12.1974 36.3812V23.6188C12.1974 20.7607 13.7222 18.1197 16.1974 16.6906L27.25 10.3094Z" fill="#2A2E48"/>
<g clip-path="url(#clip0)">
<path d="M31.25 19C28.9755 19 26.7521 19.6745 24.8609 20.9381C22.9698 22.2017 21.4958 23.9978 20.6254 26.0991C19.755 28.2005 19.5272 30.5128 19.971 32.7435C20.4147 34.9743 21.51 37.0234 23.1183 38.6317C24.7266 40.24 26.7757 41.3353 29.0065 41.779C31.2372 42.2228 33.5495 41.995 35.6509 41.1246C37.7522 40.2542 39.5483 38.7802 40.8119 36.8891C42.0755 34.9979 42.75 32.7745 42.75 30.5C42.7465 27.4511 41.5338 24.528 39.3779 22.3721C37.222 20.2162 34.2989 19.0035 31.25 19ZM31.25 36.25C30.1128 36.25 29.0011 35.9128 28.0555 35.2809C27.1099 34.6491 26.3729 33.7511 25.9377 32.7004C25.5025 31.6498 25.3886 30.4936 25.6105 29.3782C25.8324 28.2628 26.38 27.2383 27.1841 26.4341C27.9883 25.63 29.0128 25.0823 30.1282 24.8605C31.2436 24.6386 32.3998 24.7525 33.4504 25.1877C34.5011 25.6229 35.3991 26.3599 36.031 27.3055C36.6628 28.2511 37 29.3628 37 30.5C36.9983 32.0245 36.3919 33.486 35.3139 34.5639C34.236 35.6419 32.7745 36.2483 31.25 36.25ZM35.7957 24.9382C34.7048 24.0425 33.3733 23.4895 31.9688 23.3489V20.4739C34.1342 20.6268 36.1913 21.4798 37.8296 22.9041L35.7957 24.9382ZM30.5313 23.3489C29.1267 23.4895 27.7952 24.0425 26.7043 24.9382L24.6704 22.9041C26.3087 21.4798 28.3658 20.6268 30.5313 20.4739V23.3489ZM25.688 25.9546C24.7924 27.0455 24.2395 28.3769 24.099 29.7812H21.2239C21.3768 27.6158 22.2297 25.5588 23.654 23.9205L25.688 25.9546ZM24.099 31.2187C24.2395 32.6231 24.7924 33.9545 25.688 35.0454L23.654 37.0795C22.2298 35.4412 21.3768 33.3842 21.2239 31.2187H24.099ZM26.7043 36.0618C27.7952 36.9575 29.1267 37.5105 30.5313 37.6511V40.5261C28.3658 40.3732 26.3087 39.5202 24.6704 38.0959L26.7043 36.0618ZM31.9688 37.6511C33.3733 37.5105 34.7048 36.9575 35.7957 36.0618L37.8296 38.0959C36.1913 39.5202 34.1342 40.3732 31.9688 40.5261V37.6511ZM36.812 35.0454C37.7076 33.9545 38.2605 32.6231 38.401 31.2187H41.2761C41.1232 33.3842 40.2703 35.4412 38.846 37.0795L36.812 35.0454ZM38.401 29.7812C38.2605 28.3769 37.7076 27.0455 36.812 25.9546L38.846 23.9205C40.2703 25.5588 41.1232 27.6158 41.2761 29.7812H38.401Z" fill="white"/>
<path d="M32.9745 31.3213C33.1009 31.066 33.1667 30.7849 33.1667 30.5C33.1667 30.2151 33.1009 29.934 32.9745 29.6787L33.6184 29.035C33.7364 28.9149 33.8022 28.753 33.8014 28.5845C33.8006 28.4161 33.7334 28.2548 33.6143 28.1357C33.4952 28.0166 33.3339 27.9494 33.1655 27.9486C32.9971 27.9478 32.8351 28.0136 32.715 28.1316L32.0711 28.7753C31.8158 28.649 31.5348 28.5834 31.25 28.5834C30.9652 28.5834 30.6842 28.649 30.429 28.7753L29.785 28.1316C29.6649 28.0136 29.503 27.9478 29.3345 27.9486C29.1661 27.9494 29.0048 28.0166 28.8857 28.1357C28.7666 28.2548 28.6994 28.4161 28.6986 28.5845C28.6979 28.753 28.7636 28.9149 28.8816 29.035L29.5255 29.6787C29.3991 29.934 29.3334 30.2151 29.3334 30.5C29.3334 30.7849 29.3991 31.0659 29.5255 31.3213L28.8816 31.965C28.8214 32.0241 28.7736 32.0946 28.7407 32.1723C28.7079 32.25 28.6908 32.3335 28.6904 32.4179C28.6901 32.5022 28.7064 32.5859 28.7385 32.6639C28.7706 32.7419 28.8179 32.8128 28.8775 32.8725C28.9372 32.9321 29.0081 32.9794 29.0861 33.0115C29.1641 33.0436 29.2478 33.0599 29.3321 33.0596C29.4165 33.0592 29.5 33.0421 29.5777 33.0093C29.6555 32.9765 29.7259 32.9286 29.785 32.8684L30.429 32.2246C30.6842 32.3509 30.9652 32.4166 31.25 32.4166C31.5348 32.4167 31.8158 32.351 32.071 32.2247L32.715 32.8684C32.8351 32.9864 32.9971 33.0521 33.1655 33.0514C33.3339 33.0506 33.4952 32.9834 33.6143 32.8643C33.7334 32.7452 33.8006 32.5839 33.8014 32.4155C33.8022 32.247 33.7364 32.0851 33.6184 31.965L32.9745 31.3213ZM30.6111 30.5C30.6111 30.3736 30.6486 30.2501 30.7188 30.1451C30.789 30.04 30.8888 29.9581 31.0055 29.9097C31.1223 29.8614 31.2507 29.8487 31.3746 29.8734C31.4986 29.898 31.6124 29.9589 31.7018 30.0482C31.7911 30.1376 31.852 30.2514 31.8766 30.3754C31.9013 30.4993 31.8886 30.6277 31.8403 30.7445C31.7919 30.8612 31.71 30.961 31.605 31.0312C31.4999 31.1014 31.3764 31.1389 31.25 31.1389C31.0806 31.1387 30.9182 31.0714 30.7984 30.9516C30.6787 30.8318 30.6113 30.6694 30.6111 30.5Z" fill="white"/>
</g>
<defs>
<filter id="filter0_dd" x="0.269226" y="-3.7624" width="61.9615" height="67.5248" filterUnits="userSpaceOnUse" color-interpolation-filters="sRGB">
<feFlood flood-opacity="0" result="BackgroundImageFix"/>
<feColorMatrix in="SourceAlpha" type="matrix" values="0 0 0 0 0 0 0 0 0 0 0 0 0 0 0 0 0 0 127 0" result="hardAlpha"/>
<feOffset/>
<feGaussianBlur stdDeviation="2.5"/>
<feColorMatrix type="matrix" values="0 0 0 0 0.0313726 0 0 0 0 1 0 0 0 0 0.827451 0 0 0 0.8 0"/>
<feBlend mode="normal" in2="BackgroundImageFix" result="effect1_dropShadow"/>
<feColorMatrix in="SourceAlpha" type="matrix" values="0 0 0 0 0 0 0 0 0 0 0 0 0 0 0 0 0 0 127 0" result="hardAlpha"/>
<feOffset/>
<feGaussianBlur stdDeviation="2.5"/>
<feColorMatrix type="matrix" values="0 0 0 0 0.0313726 0 0 0 0 1 0 0 0 0 0.827451 0 0 0 0.8 0"/>
<feBlend mode="normal" in2="effect1_dropShadow" result="effect2_dropShadow"/>
<feBlend mode="normal" in="SourceGraphic" in2="effect2_dropShadow" result="shape"/>
</filter>
<clipPath id="clip0">
<rect width="23" height="23" fill="white" transform="translate(19.75 19)"/>
</clipPath>
</defs>
</svg>