<svg width="64" height="64" viewBox="0 0 64 64" fill="none" xmlns="http://www.w3.org/2000/svg">
<g>
<path d="M28.25 3.17543C30.4158 1.925 33.0842 1.925 35.25 3.17543L53.2308 13.5566C55.3966 14.8071 56.7308 17.1179 56.7308 19.6188V40.3812C56.7308 42.8821 55.3966 45.1929 53.2308 46.4434L35.25 56.8246C33.0842 58.075 30.4158 58.075 28.25 56.8246L10.2692 46.4434C8.10343 45.1929 6.76924 42.8821 6.76924 40.3812V19.6188C6.76924 17.1179 8.10343 14.8071 10.2692 13.5566L28.25 3.17543Z" stroke="#883FEB" stroke-width="2"/>
<path d="M28.25 3.17543C30.4158 1.925 33.0842 1.925 35.25 3.17543L53.2308 13.5566C55.3966 14.8071 56.7308 17.1179 56.7308 19.6188V40.3812C56.7308 42.8821 55.3966 45.1929 53.2308 46.4434L35.25 56.8246C33.0842 58.075 30.4158 58.075 28.25 56.8246L10.2692 46.4434C8.10343 45.1929 6.76924 42.8821 6.76924 40.3812V19.6188C6.76924 17.1179 8.10343 14.8071 10.2692 13.5566L28.25 3.17543Z" stroke="#4BEB00" stroke-width="2"/>
</g>
<path d="M27.75 10.3094C30.2252 8.88034 33.2748 8.88034 35.75 10.3094L46.8026 16.6906C49.2778 18.1197 50.8026 20.7607 50.8026 23.6188V36.3812C50.8026 39.2393 49.2778 41.8803 46.8026 43.3094L35.75 49.6906C33.2748 51.1197 30.2252 51.1197 27.75 49.6906L16.6974 43.3094C14.2222 41.8803 12.6974 39.2393 12.6974 36.3812V23.6188C12.6974 20.7607 14.2222 18.1197 16.6974 16.6906L27.75 10.3094Z" fill="#2A2E48"/>
<g clip-path="url(#clip0)">
<path d="M22.727 23.1706L22.7047 23.2004C21.0265 25.2651 20.1159 27.8477 20.1278 30.5085V30.5094V30.5105V30.5117V30.5128V30.514V30.5152V30.5163V30.5175V30.5187V30.5198V30.521V30.5221V30.5233V30.5245V30.5256V30.5268V30.528V30.5291V30.5303V30.5314V30.5326V30.5338V30.5349V30.5361V30.5372V30.5384V30.5396V30.5407V30.5419V30.5431V30.5442V30.5454V30.5465V30.5477V30.5489V30.55V30.5512V30.5523V30.5535V30.5547V30.5558V30.557V30.5582V30.5593V30.5605V30.5616V30.5628V30.564V30.5651V30.5663V30.5674V30.5686V30.5698V30.5709V30.5721V30.5732V30.5744V30.5756V30.5767V30.5779V30.579V30.5802V30.5814V30.5825V30.5837V30.5849V30.586V30.5872V30.5883V30.5895V30.5907V30.5918V30.593V30.5941V30.5953V30.5964V30.5976V30.5988V30.5999V30.6011V30.6022V30.6034V30.6046V30.6057V30.6069V30.608V30.6092V30.6104V30.6115V30.6127V30.6138V30.615V30.6161V30.6173V30.6185V30.6196V30.6208V30.6219V30.6231V30.6243V30.6254V30.6266V30.6277V30.6289V30.63V30.6312V30.6324V30.6335V30.6347V30.6358V30.637V30.6381V30.6393V30.6405V30.6416V30.6428V30.6439V30.6451V30.6462V30.6474V30.6485V30.6497V30.6509V30.652V30.6532V30.6543V30.6555V30.6566V30.6578V30.6589V30.6601V30.6612V30.6624V30.6636V30.6647V30.6659V30.667V30.6682V30.6693V30.6705V30.6716V30.6728V30.6739V30.6751V30.6762V30.6774V30.6785V30.6797V30.6809V30.682V30.6832V30.6843V30.6855V30.6866V30.6878V30.6889V30.6901V30.6912V30.6924V30.6935V30.6947V30.6958V30.697V30.6981V30.6993V30.7004V30.7016V30.7027V30.7039V30.705V30.7062V30.7073V30.7085V30.7096V30.7108V30.7119V30.7131V30.7142V30.7154V30.7165V30.7177V30.7188V30.7199V30.7211V30.7222V30.7234V30.7245V30.7257V30.7268V30.728V30.7291V30.7303V30.7314V30.7326V30.7337V30.7348V30.736V30.7371V30.7383V30.7394V30.7406V30.7417V30.7429V30.744V30.7451V30.7463V30.7474V30.7486V30.7497V30.7509V30.752V30.7531V30.7543V30.7554V30.7566V30.7577V30.7589V30.76V30.7611V30.7623V30.7634V30.7646V30.7657V30.7668V30.768V30.7691V30.7703V30.7714V30.7725V30.7737V30.7748V30.7759V30.7771V30.7782V30.7794V30.7805V30.7816V30.7828V30.7839V30.785V30.7862V30.7873V30.7885V30.7896V30.7907V30.7919V30.793V30.7941V30.7953V30.7964V30.7975V30.7987V30.7998V30.8009V30.8021V30.8032V30.8043V30.8055V30.8066V30.8077V30.8089V30.81V30.8111V30.8123V30.8134V30.8145V30.8157V30.8168V30.8179V30.819V30.8202V30.8213V30.8224V30.8236V30.8247V30.8258V30.8269V30.8281V30.8292V30.8303V30.8315V30.8326V30.8337V30.8348V30.836V30.8371V30.8382V30.8393V30.8405V30.8416V30.8427V30.8438V30.845V30.8461V30.8472V30.8483V30.8495V30.8506V30.8517V30.8528V30.8539V30.8551V30.8562V30.8573V30.8584V30.8596V30.8607V30.8618V30.8629V30.864V30.8652V30.8663V30.8674V30.8685V30.8696V30.8707V30.8719V30.873V30.8741V30.8752V30.8763V30.8774V30.8786V30.8797V30.8808V30.8819V30.883V30.8841V30.8852V30.8864V30.8875V30.8886V30.8897V30.8908V30.8919V30.893V30.8942V30.8953V30.8964V30.8975V30.8986V30.8997V30.9008V30.9019V30.903V30.9041V30.9053V30.9064V30.9075V30.9086V30.9097V30.9108V30.9119V30.913V30.9141V30.9152V30.9163V30.9174V30.9185V30.9196V30.9207V30.9218V30.923V30.9241V30.9252V30.9263V30.9274V30.9285V30.9296V30.9307V30.9318V30.9329V30.934V30.9351V30.9362V30.9373V30.9384V30.9395V30.9406V30.9417V30.9428V30.9439V30.945V30.9461V30.9472V30.9482V30.9493V30.9504V30.9515V30.9526V30.9537V30.9548V30.9559V30.957V30.9581V30.9592V30.9603V30.9614V30.9625V30.9636V30.9647V30.9657V30.9668V30.9679V30.969V30.9701V30.9712V30.9723V30.9734V30.9745V30.9755V30.9766V30.9777V30.9788V30.9799V30.981V30.9821V30.9831V30.9842V30.9853V30.9864V30.9875V30.9886V30.9896V30.9907V30.9918V30.9929V30.994V30.995V30.9961V30.9972V30.9983V30.9994V31.0004V31.0015V31.0026V31.0037V31.0048V31.0058V31.0069V31.008V31.0091V31.0101V31.0112V31.0123V31.0134V31.0144V31.0155V31.0166V31.0177V31.0187V31.0198V31.0209V31.0219V31.023V31.0241V31.0252V31.0262V31.0273V31.0284V31.0294V31.0305V31.0316V31.0326V31.0337V31.0348V31.0358V31.0369V31.038V31.039V31.0401V31.0411V31.0422V31.0433V31.0443V31.0454V31.0465V31.0475V31.0486V31.0496V31.0507V31.0518V31.0528V31.0539V31.0549V31.056V31.057V31.0581V31.0592V31.0602V31.0613V31.0623V31.0634V31.0644V31.0655V31.0665V31.0676V31.0686V31.0697V31.0708V31.0718V31.0729V31.0739V31.075V31.076V31.0771V31.0781V31.0784C20.124 31.1293 20.1241 31.1803 20.1281 31.2311C20.254 33.2101 20.888 35.123 21.9687 36.7852C21.9687 36.7853 21.9687 36.7853 21.9687 36.7854L21.9712 36.8169L21.9885 36.8434C23.0447 38.465 24.489 39.7974 26.1904 40.7197C27.8918 41.642 29.7965 42.125 31.7317 42.125C33.667 42.125 35.5717 41.642 37.2731 40.7197C38.9744 39.7974 40.4187 38.465 41.475 36.8434L41.4952 36.8123V36.7887C42.5802 35.1276 43.2206 33.2156 43.3548 31.2357C43.3633 31.1782 43.3635 31.1198 43.3555 31.0623V31.0616V31.0605V31.0594V31.0583V31.0572V31.0561V31.055V31.054V31.0529V31.0518V31.0507V31.0496V31.0485V31.0474V31.0463V31.0452V31.0441V31.043V31.0419V31.0408V31.0398V31.0387V31.0376V31.0365V31.0354V31.0343V31.0332V31.0321V31.031V31.0299V31.0288V31.0277V31.0266V31.0256V31.0245V31.0234V31.0223V31.0212V31.0201V31.019V31.0179V31.0168V31.0157V31.0146V31.0135V31.0124V31.0114V31.0103V31.0092V31.0081V31.007V31.0059V31.0048V31.0037V31.0026V31.0015V31.0004V30.9993V30.9982V30.9971V30.9961V30.995V30.9939V30.9928V30.9917V30.9906V30.9895V30.9884V30.9873V30.9862V30.9851V30.984V30.9829V30.9818V30.9808V30.9797V30.9786V30.9775V30.9764V30.9753V30.9742V30.9731V30.972V30.9709V30.9698V30.9687V30.9676V30.9665V30.9655V30.9644V30.9633V30.9622V30.9611V30.96V30.9589V30.9578V30.9567V30.9556V30.9545V30.9534V30.9523V30.9512V30.9501V30.9491V30.948V30.9469V30.9458V30.9447V30.9436V30.9425V30.9414V30.9403V30.9392V30.9381V30.937V30.9359V30.9348V30.9337V30.9326V30.9316V30.9305V30.9294V30.9283V30.9272V30.9261V30.925V30.9239V30.9228V30.9217V30.9206V30.9195V30.9184V30.9173V30.9162V30.9151V30.9141V30.913V30.9119V30.9108V30.9097V30.9086V30.9075V30.9064V30.9053V30.9042V30.9031V30.902V30.9009V30.8998V30.8987V30.8976V30.8965V30.8954V30.8944V30.8933V30.8922V30.8911V30.89V30.8889V30.8878V30.8867V30.8856V30.8845V30.8834V30.8823V30.8812V30.8801V30.879V30.8779V30.8768V30.8757V30.8746V30.8735V30.8725V30.8714V30.8703V30.8692V30.8681V30.867V30.8659V30.8648V30.8637V30.8626V30.8615V30.8604V30.8593V30.8582V30.8571V30.856V30.8549V30.8538V30.8527V30.8516V30.8505V30.8494V30.8483V30.8473V30.8462V30.8451V30.844V30.8429V30.8418V30.8407V30.8396V30.8385V30.8374V30.8363V30.8352V30.8341V30.833V30.8319V30.8308V30.8297V30.8286V30.8275V30.8264V30.8253V30.8242V30.8231V30.822V30.8209V30.8198V30.8187V30.8176V30.8165V30.8155V30.8144V30.8133V30.8122V30.8111V30.81V30.8089V30.8078V30.8067V30.8056V30.8045V30.8034V30.8023V30.8012V30.8001V30.799V30.7979V30.7968V30.7957V30.7946V30.7935V30.7924V30.7913V30.7902V30.7891V30.788V30.7869V30.7858V30.7847V30.7836V30.7825V30.7814V30.7803V30.7792V30.7781V30.777V30.7759V30.7748V30.7737V30.7726V30.7715V30.7704V30.7693V30.7682V30.7671V30.766V30.7649V30.7638V30.7627V30.7616V30.7605V30.7594V30.7583V30.7572V30.7561V30.755V30.7539V30.7528V30.7517V30.7506V30.7495V30.7484V30.7473V30.7462V30.7451V30.744V30.7429V30.7418V30.7407V30.7396V30.7385V30.7374V30.7363V30.7352V30.7341V30.733V30.7319V30.7308V30.7297V30.7286V30.7275V30.7264V30.7253V30.7242V30.7231V30.722V30.7209V30.7198V30.7187V30.7176V30.7165V30.7154V30.7143V30.7132V30.7121V30.711V30.7099V30.7088V30.7077V30.7066V30.7055V30.7044V30.7033V30.7022V30.7011V30.7V30.6989V30.6978V30.6967V30.6956V30.6945V30.6934V30.6923V30.6912V30.6901V30.689V30.6879V30.6868V30.6856V30.6845V30.6834V30.6823V30.6812V30.6801V30.679V30.6779V30.6768V30.6757V30.6746V30.6735V30.6724V30.6713V30.6702V30.6691V30.668V30.6669V30.6658V30.6647V30.6636V30.6625V30.6614V30.6603V30.6591V30.658V30.6569V30.6558V30.6547V30.6536V30.6525V30.6514V30.6503V30.6492V30.6481V30.647V30.6459V30.6448V30.6437V30.6426V30.6415V30.6404V30.6393V30.6381V30.637V30.6359V30.6348V30.6337V30.6326V30.6315V30.6304V30.6293V30.6282V30.6271V30.626V30.6249V30.6238V30.6227V30.6215V30.6204V30.6193V30.6182V30.6171V30.616V30.6149V30.6138V30.6127V30.6116V30.6105V30.6094V30.6083V30.6071V30.606V30.6049V30.6038V30.6027V30.6016V30.6005V30.5994V30.5983V30.5972V30.5961V30.5949V30.5938V30.5927V30.5916V30.5905V30.5894V30.5883V30.5872V30.5861V30.585V30.5839V30.5827V30.5816V30.5805V30.5794V30.5783V30.5772V30.5761V30.575V30.5739V30.5728V30.5716V30.5705V30.5694V30.5683V30.5672V30.5661V30.565V30.5639V30.5628V30.5616V30.5605V30.5594V30.5583V30.5572V30.5561V30.555V30.5539V30.5527V30.5516V30.5505V30.5494V30.5483V30.5472V30.5461V30.545V30.5438V30.5427V30.5416V30.5405V30.5394V30.5383V30.5372V30.5361V30.5349V30.5338V30.5327V30.5316V30.5305V30.5294V30.5283V30.5271V30.526V30.5249V30.5238V30.5227V30.5216V30.5205V30.5193V30.5182V30.5171V30.516V30.5149V30.5138V30.5127V30.5115V30.5104V30.5093V30.5087C43.3652 27.9193 42.5011 25.4045 40.9066 23.3696L40.9232 23.3668L40.7999 23.2024L40.7761 23.1706L40.7762 23.1706L40.7731 23.1668C39.6828 21.8259 38.3073 20.745 36.7467 20.0026C35.1862 19.2602 33.4797 18.875 31.7516 18.875C30.0234 18.875 28.317 19.2602 26.7564 20.0026C25.1958 20.745 23.8204 21.8259 22.7301 23.1668L22.73 23.1667L22.727 23.1706ZM28.0689 36.0838L28.0681 36.0824C28.0173 35.9938 27.9481 35.917 27.8653 35.8574C27.7824 35.7977 27.6877 35.7564 27.5875 35.7364L27.5869 35.7363C26.0577 35.4379 24.4892 35.3999 22.9477 35.6238C22.2215 34.3736 21.7711 32.9825 21.6268 31.5439C23.0054 30.8183 24.2521 29.8654 25.3142 28.7252L25.3143 28.7252L25.3162 28.7231C25.3829 28.648 25.4335 28.56 25.4648 28.4645C25.4961 28.3691 25.5074 28.2682 25.498 28.1682L25.498 28.1682L25.4976 28.1646C25.3068 26.6178 24.8568 25.1145 24.1665 23.7176C25.1314 22.6388 26.3152 21.778 27.6389 21.1926C28.7555 22.2803 30.0475 23.1723 31.4608 23.8309L31.4608 23.8309L31.4627 23.8318C31.5549 23.8729 31.6547 23.894 31.7555 23.894C31.8564 23.894 31.9562 23.8729 32.0483 23.8318L32.0483 23.8318L32.0503 23.8309C33.4635 23.1723 34.7555 22.2803 35.8721 21.1926C37.1954 21.7788 38.379 22.6395 39.3445 23.7177C38.6543 25.1145 38.2042 26.6178 38.0135 28.1646L38.0134 28.1646L38.0131 28.1682C38.0037 28.2682 38.015 28.3691 38.0463 28.4645C38.0775 28.56 38.1281 28.648 38.1949 28.7231L38.1948 28.7231L38.1968 28.7252C39.259 29.8654 40.5057 30.8183 41.8843 31.5439C41.7407 32.9832 41.2889 34.3747 40.5596 35.6238C39.018 35.3999 37.4495 35.4379 35.9202 35.7363L35.9196 35.7364C35.8194 35.7564 35.7247 35.7977 35.6418 35.8574C35.559 35.917 35.4898 35.9938 35.439 36.0824L35.4382 36.0838C34.6813 37.4463 34.161 38.927 33.8992 40.4629C32.4846 40.7638 31.0225 40.7638 29.6079 40.4629C29.3461 38.927 28.8258 37.4463 28.0689 36.0838ZM40.3436 25.0042C41.2935 26.4743 41.8418 28.1678 41.9339 29.9157C41.0526 29.3712 40.2373 28.7263 39.5043 27.9937C39.6661 26.9676 39.9478 25.9642 40.3436 25.0042ZM31.7555 22.3757C30.8292 21.9035 29.9615 21.3245 29.1701 20.6507C30.865 20.206 32.6461 20.206 34.341 20.6507C33.5496 21.3245 32.6819 21.9035 31.7555 22.3757ZM24.0067 27.9937C23.2738 28.7263 22.4585 29.3712 21.5772 29.9157C21.6692 28.1678 22.2176 26.4743 23.1675 25.0042C23.5633 25.9642 23.845 26.9676 24.0067 27.9937ZM26.977 37.0869C27.4493 38.0123 27.8111 38.9899 28.0549 39.9995C26.4204 39.3662 24.9787 38.3186 23.8716 36.9596C24.908 36.882 25.95 36.9246 26.977 37.0869ZM36.5535 37.087C37.5803 36.9247 38.6224 36.882 39.6587 36.9596C38.5456 38.32 37.0977 39.3676 35.4574 39.9995C35.707 38.9892 36.0749 38.0116 36.5535 37.087Z" fill="white" stroke="white" stroke-width="0.25"/>
<path d="M36.0308 29.399L36.0305 29.4003C35.7059 30.8969 35.2821 32.6183 34.5841 33.8004C34.521 33.9085 34.4307 33.9982 34.3221 34.0605C34.2133 34.1229 34.09 34.1556 33.9646 34.1554M36.0308 29.399L29.5462 34.0304M36.0308 29.399C36.0525 29.2936 36.0504 29.1847 36.0247 29.0802L35.9033 29.11L36.0308 29.399ZM33.9646 34.1554L33.9648 34.0304V34.1554H33.9646ZM33.9646 34.1554H29.5464M29.5464 34.1554L29.5462 34.0304M29.5464 34.1554H29.5462V34.0304M29.5464 34.1554C29.421 34.1556 29.2977 34.1229 29.1889 34.0605C29.0803 33.9982 28.9899 33.9085 28.9268 33.8004C28.9267 33.8002 28.9266 33.8 28.9265 33.7998L29.0345 33.7369L29.5462 34.0304M33.5303 32.7155H29.9807C29.5215 31.6676 29.1815 30.5714 28.9673 29.4475C29.787 28.6387 30.7277 27.9625 31.7555 27.4432C32.7833 27.9625 33.7239 28.6387 34.5437 29.4475C34.3294 30.5714 33.9895 31.6676 33.5303 32.7155Z" fill="white" stroke="white" stroke-width="0.25"/>
</g>
<defs>
<filter id="filter0_dd" x="0.769287" y="-3.7624" width="61.9615" height="67.5248" filterUnits="userSpaceOnUse" color-interpolation-filters="sRGB">
<feFlood flood-opacity="0" result="BackgroundImageFix"/>
<feColorMatrix in="SourceAlpha" type="matrix" values="0 0 0 0 0 0 0 0 0 0 0 0 0 0 0 0 0 0 127 0" result="hardAlpha"/>
<feOffset/>
<feGaussianBlur stdDeviation="2.5"/>
<feColorMatrix type="matrix" values="0 0 0 0 0.294118 0 0 0 0 0.921569 0 0 0 0 0 0 0 0 0.8 0"/>
<feBlend mode="normal" in2="BackgroundImageFix" result="effect1_dropShadow"/>
<feColorMatrix in="SourceAlpha" type="matrix" values="0 0 0 0 0 0 0 0 0 0 0 0 0 0 0 0 0 0 127 0" result="hardAlpha"/>
<feOffset/>
<feGaussianBlur stdDeviation="2.5"/>
<feColorMatrix type="matrix" values="0 0 0 0 0.294118 0 0 0 0 0.921569 0 0 0 0 0 0 0 0 0.8 0"/>
<feBlend mode="normal" in2="effect1_dropShadow" result="effect2_dropShadow"/>
<feBlend mode="normal" in="SourceGraphic" in2="effect2_dropShadow" result="shape"/>
</filter>
<clipPath id="clip0">
<rect width="23" height="23" fill="white" transform="translate(20.25 19)"/>
</clipPath>
</defs>
</svg>