<svg width="63" height="64" viewBox="0 0 63 64" fill="none" xmlns="http://www.w3.org/2000/svg">
<g>
<path d="M28.25 3.17543C30.4158 1.925 33.0842 1.925 35.25 3.17543L53.2308 13.5566C55.3966 14.8071 56.7308 17.1179 56.7308 19.6188V40.3812C56.7308 42.8821 55.3966 45.1929 53.2308 46.4434L35.25 56.8246C33.0842 58.075 30.4158 58.075 28.25 56.8246L10.2692 46.4434C8.10343 45.1929 6.76924 42.8821 6.76924 40.3812V19.6188C6.76924 17.1179 8.10343 14.8071 10.2692 13.5566L28.25 3.17543Z" stroke="#883FEB" stroke-width="2"/>
<path d="M28.25 3.17543C30.4158 1.925 33.0842 1.925 35.25 3.17543L53.2308 13.5566C55.3966 14.8071 56.7308 17.1179 56.7308 19.6188V40.3812C56.7308 42.8821 55.3966 45.1929 53.2308 46.4434L35.25 56.8246C33.0842 58.075 30.4158 58.075 28.25 56.8246L10.2692 46.4434C8.10343 45.1929 6.76924 42.8821 6.76924 40.3812V19.6188C6.76924 17.1179 8.10343 14.8071 10.2692 13.5566L28.25 3.17543Z" stroke="#FF0329" stroke-width="2"/>
</g>
<path d="M27.75 10.3094C30.2252 8.88034 33.2748 8.88034 35.75 10.3094L46.8026 16.6906C49.2778 18.1197 50.8026 20.7607 50.8026 23.6188V36.3812C50.8026 39.2393 49.2778 41.8803 46.8026 43.3094L35.75 49.6906C33.2748 51.1197 30.2252 51.1197 27.75 49.6906L16.6974 43.3094C14.2222 41.8803 12.6974 39.2393 12.6974 36.3812V23.6188C12.6974 20.7607 14.2222 18.1197 16.6974 16.6906L27.75 10.3094Z" fill="#2A2E48"/>
<g clip-path="url(#clip0)">
<path d="M39.2428 19.8317V19.825H39.0678L27.1331 19.825L27.1329 19.825C26.508 19.8257 25.9088 20.0743 25.4669 20.5162C25.025 20.9581 24.7765 21.5573 24.7758 22.1822V22.1824V22.5707L20.2758 25.1055L20.2758 25.1055C19.7316 25.4122 19.3313 25.9223 19.1629 26.5238C18.9945 27.1253 19.0717 27.769 19.3775 28.3137L19.3777 28.3139L24.7758 37.8967V39.8176L24.7758 39.8178C24.7765 40.4427 25.025 41.0419 25.4669 41.4838C25.9088 41.9257 26.508 42.1743 27.1329 42.175H27.1331H39.0678H39.068C39.693 42.1743 40.2921 41.9257 40.734 41.4838C41.1759 41.0419 41.4245 40.4427 41.4252 39.8178V39.8176V22.1824V22.1822C41.4245 21.5573 41.1759 20.9581 40.734 20.5162L40.6103 20.6399L40.734 20.5162C40.3335 20.1157 39.8038 19.874 39.2428 19.8317ZM26.2257 22.1824H26.2258L26.2257 22.1793C26.2251 22.1459 26.2278 22.1126 26.2339 22.0798L26.2342 22.0798L26.2355 22.0693C26.2621 21.8501 26.3681 21.6482 26.5335 21.5018C26.6989 21.3555 26.9121 21.2748 27.133 21.275H27.1331H39.0676C39.3082 21.2755 39.5387 21.3713 39.7088 21.5414C39.879 21.7115 39.9747 21.9421 39.9752 22.1827V39.8173C39.9747 40.0579 39.879 40.2885 39.7088 40.4586C39.5387 40.6288 39.3081 40.7245 39.0675 40.725H27.1334C26.8928 40.7246 26.6622 40.6288 26.492 40.4587C26.322 40.2886 26.2262 40.0581 26.2257 39.8176C26.2257 39.8175 26.2257 39.8174 26.2257 39.8173L26.2257 22.1824ZM20.9869 26.3673L24.7758 24.233V34.9438L20.6419 27.6034C20.6419 27.6033 20.6418 27.6033 20.6418 27.6032C20.5242 27.3934 20.4945 27.1457 20.5591 26.9141C20.6238 26.6825 20.7775 26.4859 20.9867 26.3674C20.9868 26.3674 20.9868 26.3673 20.9869 26.3673Z" fill="white" stroke="white" stroke-width="0.35"/>
<path d="M37.9093 24.1053C38.3316 24.1053 38.6738 23.763 38.6738 23.3407C38.6738 22.9185 38.3316 22.5762 37.9093 22.5762C37.4871 22.5762 37.1448 22.9185 37.1448 23.3407C37.1448 23.763 37.4871 24.1053 37.9093 24.1053Z" fill="white" stroke="white" stroke-width="0.35"/>
<path d="M28.2912 39.4238C28.7135 39.4238 29.0558 39.0815 29.0558 38.6593C29.0558 38.237 28.7135 37.8947 28.2912 37.8947C27.869 37.8947 27.5267 38.237 27.5267 38.6593C27.5267 39.0815 27.869 39.4238 28.2912 39.4238Z" fill="white" stroke="white" stroke-width="0.35"/>
<path d="M37.1242 31.5587C37.1268 31.2416 37.0666 30.9271 36.947 30.6333C36.8274 30.3394 36.6507 30.0721 36.4272 29.8468L36.4267 29.8464L33.6251 27.0446L33.625 27.0445C33.4951 26.9148 33.319 26.8418 33.1354 26.8417C32.9518 26.8416 32.7756 26.9143 32.6455 27.0439L32.6453 27.0442C31.9642 27.7254 29.9665 29.723 29.8098 29.8796L29.8098 29.8796L29.8089 29.8805C29.382 30.313 29.1404 30.8947 29.1352 31.5023C29.13 32.1099 29.3616 32.6957 29.781 33.1354L29.781 33.1354L29.7818 33.1363C29.9946 33.3563 30.2493 33.5314 30.531 33.6511C30.8125 33.7708 31.1152 33.8327 31.4211 33.8333M37.1242 31.5587C37.1235 31.8647 37.0614 32.1675 36.9416 32.4491C36.8216 32.7309 36.6463 32.9857 36.426 33.1984L36.4248 33.1995L36.4248 33.1995C36.0601 33.5455 35.5933 33.7644 35.094 33.8236C34.7799 33.8608 34.4636 33.8336 34.1637 33.7458L34.7876 34.7992L34.7876 34.7992C34.8259 34.8638 34.8464 34.9374 34.847 35.0125C34.8476 35.0877 34.8284 35.1616 34.7912 35.2269C34.754 35.2921 34.7002 35.3464 34.6352 35.3841C34.5703 35.4218 34.4965 35.4417 34.4214 35.4417H31.8381C31.7629 35.4417 31.6892 35.4218 31.6242 35.3841C31.5593 35.3464 31.5055 35.2921 31.4683 35.2269C31.4311 35.1616 31.4118 35.0876 31.4124 35.0125C31.413 34.9374 31.4335 34.8638 31.4718 34.7992L31.4718 34.7992L32.0995 33.7395C31.8799 33.8025 31.6515 33.8344 31.4211 33.8333M37.1242 31.5587C37.1242 31.5589 37.1242 31.559 37.1242 31.5592L36.9492 31.5578L37.1242 31.5581C37.1242 31.5583 37.1242 31.5585 37.1242 31.5587ZM31.4211 33.8333L31.4219 33.6583M31.4211 33.8333C31.4213 33.8333 31.4215 33.8333 31.4216 33.8333L31.4219 33.6583M31.4219 33.6583C31.1393 33.6578 30.8596 33.6006 30.5995 33.4901C30.3393 33.3795 30.1041 33.2179 29.9076 33.0147L32.2358 33.5095C31.9769 33.6088 31.701 33.6596 31.4219 33.6583Z" fill="white" stroke="white" stroke-width="0.35"/>
</g>
<defs>
<filter id="filter0_dd" x="0.769226" y="-3.7624" width="61.9615" height="67.5248" filterUnits="userSpaceOnUse" color-interpolation-filters="sRGB">
<feFlood flood-opacity="0" result="BackgroundImageFix"/>
<feColorMatrix in="SourceAlpha" type="matrix" values="0 0 0 0 0 0 0 0 0 0 0 0 0 0 0 0 0 0 127 0" result="hardAlpha"/>
<feOffset/>
<feGaussianBlur stdDeviation="2.5"/>
<feColorMatrix type="matrix" values="0 0 0 0 1 0 0 0 0 0.0117647 0 0 0 0 0.160784 0 0 0 0.8 0"/>
<feBlend mode="normal" in2="BackgroundImageFix" result="effect1_dropShadow"/>
<feColorMatrix in="SourceAlpha" type="matrix" values="0 0 0 0 0 0 0 0 0 0 0 0 0 0 0 0 0 0 127 0" result="hardAlpha"/>
<feOffset/>
<feGaussianBlur stdDeviation="2.5"/>
<feColorMatrix type="matrix" values="0 0 0 0 1 0 0 0 0 0.0117647 0 0 0 0 0.160784 0 0 0 0.8 0"/>
<feBlend mode="normal" in2="effect1_dropShadow" result="effect2_dropShadow"/>
<feBlend mode="normal" in="SourceGraphic" in2="effect2_dropShadow" result="shape"/>
</filter>
<clipPath id="clip0">
<rect width="22" height="22" fill="white" transform="translate(19.25 20)"/>
</clipPath>
</defs>
</svg>