<svg width="64" height="64" viewBox="0 0 64 64" fill="none" xmlns="http://www.w3.org/2000/svg">
<g>
<path d="M28.25 3.17543C30.4158 1.925 33.0842 1.925 35.25 3.17543L53.2308 13.5566C55.3966 14.8071 56.7308 17.1179 56.7308 19.6188V40.3812C56.7308 42.8821 55.3966 45.1929 53.2308 46.4434L35.25 56.8246C33.0842 58.075 30.4158 58.075 28.25 56.8246L10.2692 46.4434C8.10343 45.1929 6.76924 42.8821 6.76924 40.3812V19.6188C6.76924 17.1179 8.10343 14.8071 10.2692 13.5566L28.25 3.17543Z" stroke="#883FEB" stroke-width="2"/>
<path d="M28.25 3.17543C30.4158 1.925 33.0842 1.925 35.25 3.17543L53.2308 13.5566C55.3966 14.8071 56.7308 17.1179 56.7308 19.6188V40.3812C56.7308 42.8821 55.3966 45.1929 53.2308 46.4434L35.25 56.8246C33.0842 58.075 30.4158 58.075 28.25 56.8246L10.2692 46.4434C8.10343 45.1929 6.76924 42.8821 6.76924 40.3812V19.6188C6.76924 17.1179 8.10343 14.8071 10.2692 13.5566L28.25 3.17543Z" stroke="#E829C9" stroke-width="2"/>
</g>
<path d="M27.75 10.3094C30.2252 8.88034 33.2748 8.88034 35.75 10.3094L46.8026 16.6906C49.2778 18.1197 50.8026 20.7607 50.8026 23.6188V36.3812C50.8026 39.2393 49.2778 41.8803 46.8026 43.3094L35.75 49.6906C33.2748 51.1197 30.2252 51.1197 27.75 49.6906L16.6974 43.3094C14.2222 41.8803 12.6974 39.2393 12.6974 36.3812V23.6188C12.6974 20.7607 14.2222 18.1197 16.6974 16.6906L27.75 10.3094Z" fill="#2A2E48"/>
<path d="M38.3047 31.0394L39.0218 31.7363L38.3047 31.0394C37.8725 31.4841 37.671 32.1042 37.7593 32.718L38.6316 38.7835L33.1325 36.0796C32.576 35.8059 31.924 35.8059 31.3675 36.0796L25.8684 38.7835L26.7407 32.718C26.829 32.1042 26.6275 31.4841 26.1953 31.0394L21.9244 26.645L27.9626 25.6002C28.5736 25.4945 29.1011 25.1113 29.3905 24.5628L32.25 19.143L35.1095 24.5628C35.3989 25.1113 35.9264 25.4945 36.5374 25.6002L42.5756 26.645L38.3047 31.0394Z" stroke="white" stroke-width="2"/>
<defs>
<filter id="filter0_dd" x="0.769226" y="-3.7624" width="61.9615" height="67.5248" filterUnits="userSpaceOnUse" color-interpolation-filters="sRGB">
<feFlood flood-opacity="0" result="BackgroundImageFix"/>
<feColorMatrix in="SourceAlpha" type="matrix" values="0 0 0 0 0 0 0 0 0 0 0 0 0 0 0 0 0 0 127 0" result="hardAlpha"/>
<feOffset/>
<feGaussianBlur stdDeviation="2.5"/>
<feColorMatrix type="matrix" values="0 0 0 0 0.909804 0 0 0 0 0.160784 0 0 0 0 0.788235 0 0 0 0.8 0"/>
<feBlend mode="normal" in2="BackgroundImageFix" result="effect1_dropShadow"/>
<feColorMatrix in="SourceAlpha" type="matrix" values="0 0 0 0 0 0 0 0 0 0 0 0 0 0 0 0 0 0 127 0" result="hardAlpha"/>
<feOffset/>
<feGaussianBlur stdDeviation="2.5"/>
<feColorMatrix type="matrix" values="0 0 0 0 0.909804 0 0 0 0 0.160784 0 0 0 0 0.788235 0 0 0 0.8 0"/>
<feBlend mode="normal" in2="effect1_dropShadow" result="effect2_dropShadow"/>
<feBlend mode="normal" in="SourceGraphic" in2="effect2_dropShadow" result="shape"/>
</filter>
</defs>
</svg>