<svg width="63" height="64" viewBox="0 0 63 64" fill="none" xmlns="http://www.w3.org/2000/svg">
<g>
<path d="M27.75 3.17543C29.9158 1.925 32.5842 1.925 34.75 3.17543L52.7308 13.5566C54.8966 14.8071 56.2308 17.1179 56.2308 19.6188V40.3812C56.2308 42.8821 54.8966 45.1929 52.7308 46.4434L34.75 56.8246C32.5842 58.075 29.9158 58.075 27.75 56.8246L9.76924 46.4434C7.60343 45.1929 6.26924 42.8821 6.26924 40.3812V19.6188C6.26924 17.1179 7.60343 14.8071 9.76924 13.5566L27.75 3.17543Z" stroke="#883FEB" stroke-width="2"/>
<path d="M27.75 3.17543C29.9158 1.925 32.5842 1.925 34.75 3.17543L52.7308 13.5566C54.8966 14.8071 56.2308 17.1179 56.2308 19.6188V40.3812C56.2308 42.8821 54.8966 45.1929 52.7308 46.4434L34.75 56.8246C32.5842 58.075 29.9158 58.075 27.75 56.8246L9.76924 46.4434C7.60343 45.1929 6.26924 42.8821 6.26924 40.3812V19.6188C6.26924 17.1179 7.60343 14.8071 9.76924 13.5566L27.75 3.17543Z" stroke="#00CFFD" stroke-width="2"/>
</g>
<path d="M27.25 10.3094C29.7252 8.88034 32.7748 8.88034 35.25 10.3094L46.3026 16.6906C48.7778 18.1197 50.3026 20.7607 50.3026 23.6188V36.3812C50.3026 39.2393 48.7778 41.8803 46.3026 43.3094L35.25 49.6906C32.7748 51.1197 29.7252 51.1197 27.25 49.6906L16.1974 43.3094C13.7222 41.8803 12.1974 39.2393 12.1974 36.3812V23.6188C12.1974 20.7607 13.7222 18.1197 16.1974 16.6906L27.25 10.3094Z" fill="#2A2E48"/>
<path d="M41.0943 22.81H41.0937H21.4062V22.81L21.4057 22.81C21.1923 22.8108 20.9878 22.8959 20.8368 23.0468C20.6859 23.1978 20.6008 23.4023 20.6 23.6157H20.6V23.6162L20.6 36.7436L20.6 36.7441C20.6008 36.9576 20.6859 37.1621 20.8368 37.313C20.9878 37.464 21.1923 37.5491 21.4057 37.5498H21.4062H28.5558L26.117 38.5439C25.8442 38.6163 25.5792 38.7148 25.4006 38.8775C25.3074 38.9625 25.2353 39.0669 25.2001 39.1946C25.1649 39.3219 25.1694 39.4611 25.211 39.611C25.2526 39.7613 25.3212 39.8834 25.4167 39.976C25.5124 40.0687 25.6276 40.1244 25.7513 40.1535C25.9922 40.2102 26.2749 40.1678 26.548 40.0971L26.5579 40.0946L26.5674 40.0907L31.1095 38.2265C31.1559 38.2174 31.2018 38.2062 31.2471 38.1929C31.2934 38.2083 31.3405 38.2216 31.3881 38.2325L35.9325 40.1024L35.942 40.1063L35.952 40.1089C36.2242 40.1793 36.5064 40.2237 36.7472 40.168C36.8711 40.1394 36.9865 40.0838 37.0825 39.9905C37.1782 39.8975 37.2468 39.7745 37.289 39.6228C37.3312 39.4712 37.3356 39.3309 37.2998 39.2029C37.2639 39.0745 37.1907 38.9703 37.0968 38.886C36.9172 38.7246 36.6518 38.6279 36.3835 38.5558L33.9378 37.5498L41.0937 37.5498L41.0943 37.5498C41.3077 37.5491 41.5122 37.464 41.6632 37.313C41.8141 37.1621 41.8992 36.9576 41.9 36.7441V36.7436L41.9 23.6162L41.9 23.6157C41.8992 23.4023 41.8141 23.1978 41.6632 23.0468C41.5122 22.8959 41.3077 22.8108 41.0943 22.81ZM40.2875 35.9373H22.2125V24.4225H40.2875V35.9373Z" fill="white" stroke="white" stroke-width="0.3"/>
<defs>
<filter id="filter0_dd" x="0.269226" y="-3.7624" width="61.9615" height="67.5248" filterUnits="userSpaceOnUse" color-interpolation-filters="sRGB">
<feFlood flood-opacity="0" result="BackgroundImageFix"/>
<feColorMatrix in="SourceAlpha" type="matrix" values="0 0 0 0 0 0 0 0 0 0 0 0 0 0 0 0 0 0 127 0" result="hardAlpha"/>
<feOffset/>
<feGaussianBlur stdDeviation="2.5"/>
<feColorMatrix type="matrix" values="0 0 0 0 0 0 0 0 0 0.811765 0 0 0 0 0.992157 0 0 0 0.8 0"/>
<feBlend mode="normal" in2="BackgroundImageFix" result="effect1_dropShadow"/>
<feColorMatrix in="SourceAlpha" type="matrix" values="0 0 0 0 0 0 0 0 0 0 0 0 0 0 0 0 0 0 127 0" result="hardAlpha"/>
<feOffset/>
<feGaussianBlur stdDeviation="2.5"/>
<feColorMatrix type="matrix" values="0 0 0 0 0 0 0 0 0 0.811765 0 0 0 0 0.992157 0 0 0 0.8 0"/>
<feBlend mode="normal" in2="effect1_dropShadow" result="effect2_dropShadow"/>
<feBlend mode="normal" in="SourceGraphic" in2="effect2_dropShadow" result="shape"/>
</filter>
</defs>
</svg>